<?xml version="1.0" encoding="UTF-8"?>
<svg xmlns="http://www.w3.org/2000/svg" xmlns:xlink="http://www.w3.org/1999/xlink" width="1024pt" height="1024pt" viewBox="0 0 1024 1024" version="1.1">
<g id="surface1">
<path style=" stroke:none;fill-rule:nonzero;fill:rgb(17.254902%,17.254902%,17.254902%);fill-opacity:1;" d="M 534.101562 207.332031 C 573.199219 168.230469 624.398438 148.730469 675.601562 148.730469 C 714.800781 148.730469 754 160.132812 787.699219 183.03125 L 863.800781 106.933594 C 865.398438 105.433594 867.398438 104.632812 869.5 104.632812 C 871.601562 104.632812 873.601562 105.332031 875.199219 106.933594 L 917.601562 149.332031 C 920.699219 152.433594 920.699219 157.53125 917.601562 160.730469 L 841.5 236.832031 C 894.199219 314.632812 886.101562 421.332031 817.199219 490.332031 L 715.300781 592.230469 C 713.699219 593.730469 711.601562 594.53125 709.601562 594.53125 C 707.5 594.53125 705.5 593.832031 703.898438 592.230469 L 432.199219 320.53125 C 429.101562 317.433594 429.101562 312.332031 432.199219 309.230469 Z M 308.5 432.832031 C 310.101562 431.332031 312.199219 430.53125 314.199219 430.53125 C 315.355469 430.53125 316.480469 430.742188 317.527344 431.203125 L 317.496094 431.234375 L 593.515625 707.257812 C 594.582031 710.105469 593.976562 713.457031 591.699219 715.730469 L 489.800781 817.632812 C 450.699219 856.730469 399.5 876.230469 348.300781 876.230469 C 309.101562 876.230469 269.898438 864.832031 236.199219 841.933594 L 160.101562 918.03125 C 158.5 919.53125 156.5 920.332031 154.398438 920.332031 C 152.300781 920.332031 150.300781 919.632812 148.699219 918.03125 L 106.300781 875.632812 C 103.199219 872.53125 103.199219 867.433594 106.300781 864.332031 L 182.398438 788.230469 C 129.699219 710.433594 137.800781 603.730469 206.699219 534.730469 Z M 582.199219 255.433594 L 522.800781 314.832031 L 709.601562 501.632812 L 769 442.230469 C 793.898438 417.230469 807.699219 384.132812 807.699219 348.832031 C 807.699219 313.53125 793.898438 280.332031 769 255.433594 C 744 230.433594 710.898438 216.730469 675.601562 216.730469 C 640.300781 216.730469 607.101562 230.53125 582.199219 255.433594 Z M 314.199219 523.433594 L 254.800781 582.832031 C 229.800781 607.832031 216.101562 640.933594 216.101562 676.230469 C 216.101562 711.53125 229.898438 744.730469 254.800781 769.632812 C 279.800781 794.632812 312.898438 808.332031 348.199219 808.332031 C 383.5 808.332031 416.699219 794.53125 441.601562 769.632812 L 501 710.230469 Z M 314.199219 523.433594 "/>
<path style=" stroke:none;fill-rule:nonzero;fill:rgb(17.254902%,17.254902%,17.254902%);fill-opacity:1;" d="M 567.8125 548.613281 C 570.933594 545.492188 576 545.492188 579.125 548.613281 L 613.066406 582.554688 C 616.191406 585.679688 616.191406 590.746094 613.066406 593.871094 L 546.597656 660.339844 L 501.34375 615.082031 Z M 429.21875 410.023438 C 432.34375 406.898438 437.410156 406.898438 440.53125 410.023438 L 474.472656 443.964844 C 477.597656 447.089844 477.597656 452.152344 474.472656 455.277344 L 408.007812 521.746094 L 362.75 476.488281 Z M 429.21875 410.023438 "/>
</g>
</svg>
