<?xml version="1.0" encoding="UTF-8"?>
<svg xmlns="http://www.w3.org/2000/svg" xmlns:xlink="http://www.w3.org/1999/xlink" width="21971pt" height="12700pt" viewBox="0 0 21971 12700" version="1.1">
<g id="surface6">
<path style=" stroke:none;fill-rule:evenodd;fill:rgb(22.745098%,22.745098%,22.745098%);fill-opacity:1;" d="M 8119 4638 L 8119 3606 L 4773 1905 L 4773 11430 L 8119 9729 L 8119 8691 L 7373 8691 L 7373 9337 L 5518 10281 L 5518 3048 L 7373 3992 L 7373 4638 Z M 8119 4638 "/>
<path style=" stroke:none;fill-rule:evenodd;fill:rgb(82.352942%,94.509804%,100%);fill-opacity:1;" d="M 2304 9277 C 2205 9221 2100 9188 1984 9188 C 1874 9188 1763 9216 1664 9277 C 1471 9387 1349 9602 1349 9829 C 1349 10061 1471 10270 1664 10386 C 1763 10442 1874 10475 1984 10475 C 2100 10475 2205 10447 2304 10386 C 2498 10270 2625 10055 2625 9829 C 2625 9602 2498 9387 2304 9277 Z M 3033 7106 C 2912 7040 2768 7002 2630 7002 C 2498 7002 2360 7040 2233 7112 C 1984 7256 1830 7515 1830 7797 C 1830 8084 1979 8349 2233 8487 C 2354 8553 2492 8592 2630 8592 C 2774 8592 2912 8559 3033 8487 C 3282 8343 3436 8084 3436 7791 C 3436 7510 3282 7250 3033 7106 Z M 9891 6935 C 9792 6875 9681 6847 9566 6847 C 9455 6847 9339 6875 9245 6935 C 9041 7051 8919 7267 8919 7493 C 8919 7725 9041 7940 9245 8062 C 9339 8122 9455 8150 9566 8150 C 9681 8150 9792 8122 9891 8062 C 10090 7940 10217 7725 10217 7493 C 10217 7267 10090 7051 9891 6935 Z M 7732 6852 C 7373 6852 7086 7140 7086 7499 L 7086 7548 C 7108 7885 7390 8156 7732 8156 C 8091 8156 8378 7857 8378 7499 C 8378 7140 8091 6852 7732 6852 Z M 3989 5306 C 3895 5251 3784 5218 3674 5218 C 3558 5218 3453 5246 3354 5306 C 3155 5417 3033 5632 3033 5859 C 3033 6090 3155 6300 3354 6416 C 3453 6466 3558 6505 3674 6505 C 3784 6505 3895 6471 3989 6416 C 4187 6300 4309 6085 4309 5859 C 4309 5632 4187 5417 3989 5306 Z M 7732 5163 C 7373 5163 7086 5450 7086 5809 L 7086 5859 C 7108 6195 7390 6460 7732 6460 C 8091 6460 8378 6168 8378 5809 C 8378 5450 8091 5163 7732 5163 Z M 9245 6372 C 9339 6427 9455 6460 9566 6460 C 9681 6460 9792 6427 9891 6372 C 10090 6256 10217 6041 10217 5809 C 10217 5577 10090 5362 9891 5251 C 9792 5190 9681 5163 9566 5163 C 9455 5163 9339 5190 9245 5251 C 9041 5362 8919 5577 8919 5809 C 8919 6041 9041 6256 9245 6372 Z M 1758 5224 C 1957 5113 2078 4898 2078 4671 C 2078 4439 1957 4230 1758 4114 C 1664 4058 1553 4025 1443 4025 C 1327 4025 1217 4053 1117 4114 C 918 4230 797 4445 797 4671 C 797 4903 918 5113 1117 5224 C 1217 5279 1327 5312 1443 5312 C 1553 5312 1664 5284 1758 5224 Z M 2630 3738 C 2730 3788 2840 3827 2950 3827 C 3066 3827 3171 3793 3271 3738 C 3464 3622 3591 3407 3591 3181 C 3591 2954 3464 2739 3271 2623 C 3171 2573 3066 2534 2950 2534 C 2840 2534 2730 2568 2630 2623 C 2437 2739 2315 2954 2315 3181 C 2315 3407 2437 3622 2630 3738 Z M 2630 3738 "/>
<path style=" stroke:none;fill-rule:evenodd;fill:rgb(31.764707%,31.764707%,31.764707%);fill-opacity:1;" d="M 18168 2507 L 20775 2507 C 21051 2507 21272 2733 21272 3004 L 21272 5621 C 21272 5903 21045 6124 20775 6124 L 18168 6124 C 17887 6124 17660 5897 17660 5621 L 17660 3004 C 17660 2733 17892 2507 18168 2507 Z M 18168 2507 "/>
<path style=" stroke:none;fill-rule:evenodd;fill:rgb(31.764707%,31.764707%,31.764707%);fill-opacity:1;" d="M 17660 7438 L 17660 10055 C 17660 10337 17892 10558 18168 10558 L 20775 10558 C 21051 10558 21272 10331 21272 10055 L 21272 7438 C 21272 7162 21045 6941 20775 6941 L 18168 6941 C 17892 6941 17660 7167 17660 7438 Z M 17660 7438 "/>
<path style=" stroke:none;fill-rule:evenodd;fill:rgb(31.764707%,31.764707%,31.764707%);fill-opacity:1;" d="M 13237 3004 L 13237 5621 C 13237 5903 13464 6124 13740 6124 L 16352 6124 C 16628 6124 16849 5897 16849 5621 L 16849 3004 C 16849 2728 16622 2507 16352 2507 L 13740 2507 C 13464 2507 13237 2733 13237 3004 Z M 13237 3004 "/>
<path style=" stroke:none;fill-rule:evenodd;fill:rgb(82.352942%,94.509804%,100%);fill-opacity:1;" d="M 16793 9089 C 16987 8884 16987 8570 16793 8376 L 15408 6991 C 15209 6792 14894 6792 14701 6991 L 13320 8376 C 13122 8570 13122 8890 13320 9089 L 14701 10469 C 14900 10662 15214 10662 15408 10469 Z M 16793 9089 "/>
</g>
</svg>
