<?xml version="1.0" encoding="UTF-8"?>
<svg xmlns="http://www.w3.org/2000/svg" xmlns:xlink="http://www.w3.org/1999/xlink" width="21979pt" height="19016pt" viewBox="0 0 21979 19016" version="1.1">
<g id="surface11">
<path style=" stroke:none;fill-rule:evenodd;fill:rgb(64.313728%,89.019608%,100%);fill-opacity:1;" d="M 12642 952 C 12642 1967 12642 2969 12642 3985 C 11627 3985 10632 3985 9617 3985 C 9867 3734 10104 3504 10348 3267 C 9075 2631 7193 2719 5805 3903 C 4249 5230 3748 7667 5061 9596 C 4648 10016 4228 10429 3809 10849 C 3504 10463 3253 10036 3050 9583 C 2692 8770 2516 7918 2543 7031 C 2597 5237 3308 3754 4648 2577 C 5596 1744 6713 1263 7958 1135 C 9217 1006 10409 1243 11519 1859 C 11627 1927 11688 1920 11769 1825 C 12020 1561 12284 1311 12548 1054 C 12575 1020 12595 986 12615 952 C 12622 952 12636 952 12642 952 Z M 12642 952 "/>
<path style="fill:none;stroke-width:20;stroke-linecap:butt;stroke-linejoin:miter;stroke:rgb(0%,0%,0%);stroke-opacity:1;stroke-miterlimit:4;" d="M 12642 952 L 12642 3985 L 9617 3985 C 9867 3734 10104 3504 10348 3267 C 9075 2631 7193 2719 5805 3903 C 4249 5230 3748 7667 5061 9596 C 4648 10016 4228 10429 3809 10849 C 3504 10463 3253 10036 3050 9583 C 2692 8770 2516 7918 2543 7031 C 2597 5237 3308 3754 4648 2577 C 5596 1744 6713 1263 7958 1135 C 9217 1006 10409 1243 11519 1859 C 11627 1927 11688 1920 11769 1825 C 12020 1561 12284 1311 12548 1054 C 12575 1020 12595 986 12615 952 Z M 12642 952 "/>
<path style=" stroke:none;fill-rule:evenodd;fill:rgb(0%,0%,0%);fill-opacity:1;" d="M 10006 5785 C 10006 5867 10006 5941 10006 6022 C 10006 6313 9871 6456 9580 6456 C 8910 6456 8246 6456 7576 6456 C 7136 6456 7035 6354 7035 5928 C 7035 5846 7035 5758 7042 5677 C 7069 5481 7197 5366 7400 5359 C 7414 5359 7421 5359 7434 5359 C 7793 5359 8158 5359 8517 5359 C 8876 5359 9228 5359 9587 5359 C 9878 5352 10006 5488 10006 5785 Z M 9648 6097 C 9648 5968 9648 5846 9648 5704 C 9140 5704 8646 5704 8145 5704 C 8145 5846 8145 5968 8145 6097 C 8653 6097 9147 6097 9648 6097 Z M 7779 6097 C 7779 5968 7779 5840 7779 5704 C 7651 5704 7529 5704 7400 5704 C 7400 5846 7400 5968 7400 6097 C 7529 6097 7651 6097 7779 6097 Z M 7779 6097 "/>
<path style=" stroke:none;fill-rule:evenodd;fill:rgb(64.313728%,89.019608%,100%);fill-opacity:1;" d="M 7779 5704 C 7779 5833 7779 5968 7779 6097 C 7651 6097 7529 6097 7394 6097 C 7394 5968 7394 5839 7394 5704 C 7529 5704 7651 5704 7779 5704 Z M 7779 5704 "/>
<path style=" stroke:none;fill-rule:evenodd;fill:rgb(64.313728%,89.019608%,100%);fill-opacity:1;" d="M 9648 5704 C 9648 5839 9648 5961 9648 6097 C 9147 6097 8653 6097 8138 6097 C 8138 5961 8138 5839 8138 5704 C 8646 5704 9140 5704 9648 5704 Z M 9648 5704 "/>
<path style=" stroke:none;fill-rule:evenodd;fill:rgb(89.411765%,89.411765%,89.411765%);fill-opacity:1;" d="M 8267 11647 C 8456 11837 8632 12013 8822 12202 C 8680 12338 8531 12487 8375 12622 C 8314 12683 8321 12724 8355 12805 C 8443 12981 8517 13157 8578 13346 C 8605 13421 8626 13448 8707 13448 C 8917 13448 9126 13448 9343 13448 C 9343 13698 9343 13942 9343 14206 C 9140 14206 8944 14206 8747 14206 C 8646 14199 8605 14226 8571 14328 C 8517 14511 8429 14687 8348 14863 C 8321 14930 8314 14964 8368 15018 C 8524 15167 8673 15323 8829 15472 C 8639 15655 8463 15824 8267 16014 C 8131 15878 7982 15729 7847 15580 C 7786 15506 7739 15513 7658 15553 C 7488 15634 7312 15716 7130 15770 C 7035 15797 7014 15838 7014 15926 C 7021 16129 7021 16325 7021 16535 C 6757 16535 6514 16535 6250 16535 C 6250 16338 6250 16135 6256 15939 C 6256 15838 6229 15797 6128 15763 C 5938 15702 5762 15621 5586 15533 C 5518 15506 5485 15513 5444 15560 C 5295 15716 5139 15865 4997 16007 C 4814 15831 4638 15655 4449 15472 C 4598 15323 4740 15174 4896 15025 C 4957 14971 4957 14930 4916 14856 C 4828 14673 4754 14490 4686 14301 C 4666 14226 4638 14199 4564 14206 C 4354 14206 4151 14206 3928 14206 C 3928 13956 3928 13712 3928 13448 C 4056 13448 4192 13448 4320 13448 C 4408 13448 4496 13455 4584 13441 C 4618 13441 4666 13407 4679 13374 C 4767 13150 4848 12927 4943 12670 C 4794 12534 4611 12365 4435 12209 C 4632 12006 4808 11830 4997 11641 C 5139 11790 5288 11932 5430 12087 C 5485 12148 5532 12148 5606 12108 C 5769 12026 5938 11952 6114 11898 C 6216 11864 6263 11837 6256 11722 C 6243 11526 6250 11322 6250 11119 C 6500 11119 6744 11119 7014 11119 C 7014 11316 7021 11512 7014 11702 C 7008 11823 7048 11864 7163 11898 C 7333 11945 7495 12020 7651 12101 C 7739 12148 7786 12142 7854 12074 C 7989 11932 8131 11783 8267 11647 Z M 6642 13001 C 6189 12994 5810 13367 5803 13814 C 5796 14274 6182 14660 6642 14660 C 7096 14653 7468 14281 7468 13827 C 7475 13380 7096 13008 6642 13001 Z M 6642 13001 "/>
<path style="fill:none;stroke-width:7;stroke-linecap:butt;stroke-linejoin:miter;stroke:rgb(0%,0%,0%);stroke-opacity:1;stroke-miterlimit:4;" d="M 8267 11647 L 8822 12202 C 8680 12338 8531 12487 8375 12622 C 8314 12683 8321 12724 8355 12805 C 8443 12981 8517 13157 8578 13346 C 8605 13421 8626 13448 8707 13448 L 9343 13448 L 9343 14206 L 8747 14206 C 8646 14199 8605 14226 8571 14328 C 8517 14511 8429 14687 8348 14863 C 8321 14930 8314 14964 8368 15018 C 8524 15167 8673 15323 8829 15472 C 8639 15655 8463 15824 8267 16014 C 8131 15878 7982 15729 7847 15580 C 7786 15506 7739 15513 7658 15553 C 7488 15634 7312 15716 7130 15770 C 7035 15797 7014 15838 7014 15926 C 7021 16129 7021 16325 7021 16535 L 6250 16535 C 6250 16338 6250 16135 6256 15939 C 6256 15838 6229 15797 6128 15763 C 5938 15702 5762 15621 5586 15533 C 5518 15506 5485 15513 5444 15560 C 5295 15716 5139 15865 4997 16007 C 4814 15831 4638 15655 4449 15472 C 4598 15323 4740 15174 4896 15025 C 4957 14971 4957 14930 4916 14856 C 4828 14673 4754 14490 4686 14301 C 4666 14226 4638 14199 4564 14206 L 3928 14206 L 3928 13448 L 4320 13448 C 4408 13448 4496 13455 4584 13441 C 4618 13441 4666 13407 4679 13374 C 4767 13150 4848 12927 4943 12670 C 4794 12534 4611 12365 4435 12209 C 4632 12006 4808 11830 4997 11641 C 5139 11790 5288 11932 5430 12087 C 5485 12148 5532 12148 5606 12108 C 5769 12026 5938 11952 6114 11898 C 6216 11864 6263 11837 6256 11722 C 6243 11526 6250 11322 6250 11119 L 7014 11119 C 7014 11316 7021 11512 7014 11702 C 7008 11823 7048 11864 7163 11898 C 7333 11945 7495 12020 7651 12101 C 7739 12148 7786 12142 7854 12074 C 7989 11932 8131 11783 8267 11647 Z M 8267 11647 "/>
<path style="fill:none;stroke-width:7;stroke-linecap:butt;stroke-linejoin:miter;stroke:rgb(0%,0%,0%);stroke-opacity:1;stroke-miterlimit:4;" d="M 6642 13001 C 6189 12994 5810 13367 5803 13814 C 5796 14274 6182 14660 6642 14660 C 7096 14653 7468 14281 7468 13827 C 7475 13380 7096 13008 6642 13001 Z M 6642 13001 "/>
<path style=" stroke:none;fill-rule:evenodd;fill:rgb(0%,0%,0%);fill-opacity:1;" d="M 17107 6530 C 17107 8655 17107 10788 17107 12920 C 16945 13374 16722 13550 16315 13550 C 13229 13550 10155 13550 7082 13550 C 6940 13550 6798 13509 6676 13455 C 6446 13353 6351 13150 6283 12920 C 6283 10361 6283 7802 6283 5230 C 6290 5217 6297 5196 6304 5176 C 6412 4804 6683 4601 7069 4601 C 7922 4601 8774 4601 9627 4607 C 9722 4607 9817 4621 9918 4641 C 10169 4695 10345 4871 10507 5061 C 10575 5142 10650 5169 10758 5169 C 12389 5169 14021 5169 15659 5169 C 15896 5169 16133 5169 16370 5169 C 16579 5176 16722 5311 16728 5521 C 16735 5663 16728 5799 16735 5941 C 16735 5968 16742 6015 16762 6029 C 16952 6144 17046 6327 17107 6530 Z M 16755 12737 C 16755 10734 16755 8723 16755 6713 C 16755 6415 16606 6273 16309 6273 C 14738 6273 13181 6273 11624 6266 C 11523 6266 11421 6252 11320 6232 C 11130 6191 10974 6076 10846 5934 C 10616 5690 10386 5440 10162 5196 C 10034 5054 9885 4959 9688 4959 C 8795 4959 7908 4953 7014 4959 C 6838 4959 6690 5074 6649 5237 C 6635 5305 6635 5379 6635 5447 C 6635 7356 6635 9251 6635 11146 C 6635 11681 6635 12209 6642 12744 C 6642 12825 6656 12920 6690 12994 C 6771 13150 6913 13198 7082 13198 C 8612 13191 10149 13191 11685 13191 C 13202 13191 14718 13191 16241 13191 C 16309 13191 16383 13198 16451 13184 C 16654 13143 16755 12988 16755 12737 Z M 16383 5907 C 16383 5826 16383 5745 16383 5670 C 16383 5514 16383 5514 16241 5514 C 14515 5514 12789 5514 11069 5514 C 11035 5514 11002 5514 10947 5521 C 11123 5738 11286 5914 11577 5914 C 13134 5914 14691 5914 16261 5914 C 16302 5914 16336 5914 16383 5907 Z M 16383 5907 "/>
<path style=" stroke:none;fill-rule:evenodd;fill:rgb(88.627452%,88.627452%,88.627452%);fill-opacity:1;" d="M 16755 6706 C 16755 8716 16755 10727 16755 12737 C 16755 12988 16654 13143 16458 13184 C 16390 13198 16315 13198 16248 13198 C 14731 13198 13208 13198 11692 13198 C 10155 13198 8619 13191 7082 13198 C 6920 13198 6771 13157 6696 13001 C 6656 12920 6649 12832 6642 12744 C 6642 12216 6642 11681 6642 11153 C 6642 9251 6642 7349 6642 5447 C 6642 5379 6642 5305 6656 5237 C 6696 5074 6845 4959 7021 4959 C 7915 4959 8802 4959 9695 4959 C 9891 4959 10040 5054 10169 5196 C 10392 5440 10622 5684 10846 5934 C 10981 6076 11130 6185 11326 6225 C 11428 6252 11530 6266 11631 6266 C 13188 6266 14758 6266 16315 6266 C 16606 6266 16755 6408 16755 6706 Z M 10000 6015 C 10000 5934 10000 5860 10000 5778 C 10000 5487 9871 5352 9580 5352 C 9221 5352 8869 5352 8510 5352 C 8152 5352 7786 5352 7427 5352 C 7414 5352 7407 5352 7394 5352 C 7197 5359 7069 5474 7042 5670 C 7035 5751 7035 5833 7035 5914 C 7035 6347 7136 6449 7570 6449 C 8233 6449 8903 6449 9573 6442 C 9864 6449 10000 6306 10000 6015 Z M 10000 6015 "/>
<path style=" stroke:none;fill-rule:evenodd;fill:rgb(64.313728%,89.019608%,100%);fill-opacity:1;" d="M 16383 5663 C 16383 5745 16383 5826 16383 5914 C 16336 5914 16302 5914 16261 5914 C 14704 5914 13147 5914 11577 5921 C 11286 5921 11123 5731 10947 5521 C 11002 5521 11035 5514 11069 5514 C 12795 5514 14522 5514 16241 5514 C 16383 5514 16383 5514 16383 5663 Z M 16383 5663 "/>
<path style="fill:none;stroke-width:20;stroke-linecap:butt;stroke-linejoin:miter;stroke:rgb(0%,0%,0%);stroke-opacity:1;stroke-miterlimit:4;" d="M 10656 18105 C 10548 17083 10440 16088 10331 15086 C 11340 14985 12335 14876 13357 14768 C 13114 15073 12883 15357 12646 15648 C 13716 16068 15456 15946 16735 14842 C 18245 13536 18712 11322 17662 9441 C 18116 9062 18563 8682 19043 8283 C 19213 8615 19382 8926 19524 9251 C 19930 10199 20079 11194 19964 12230 C 19795 13766 19131 15052 17987 16088 C 17216 16785 16322 17252 15307 17482 C 14041 17774 12809 17658 11604 17151 C 11502 17110 11448 17117 11387 17205 C 11157 17496 10914 17780 10656 18105 Z M 10656 18105 "/>
<path style=" stroke:none;fill-rule:evenodd;fill:rgb(86.666667%,86.666667%,86.666667%);fill-opacity:1;" d="M 19524 9251 C 19930 10199 20079 11194 19964 12230 C 19795 13759 19131 15052 17987 16088 C 17216 16785 16322 17246 15307 17482 C 14041 17774 12809 17658 11604 17151 C 11502 17110 11448 17117 11387 17198 C 11157 17496 10920 17780 10656 18105 C 10548 17076 10440 16088 10338 15086 C 11340 14978 12335 14876 13364 14761 C 13114 15073 12883 15357 12653 15648 C 13716 16068 15456 15946 16742 14836 C 18251 13536 18718 11316 17669 9434 C 18116 9062 18563 8682 19043 8283 C 19206 8615 19382 8926 19524 9251 Z M 19524 9251 "/>
</g>
</svg>
