<?xml version="1.0" encoding="UTF-8"?>
<svg xmlns="http://www.w3.org/2000/svg" xmlns:xlink="http://www.w3.org/1999/xlink" width="1024pt" height="1024pt" viewBox="0 0 1024 1024" version="1.1">
<g id="surface112278">
<path style=" stroke:none;fill-rule:nonzero;fill:rgb(31.764707%,31.764707%,31.764707%);fill-opacity:1;" d="M 488 640 C 483.582031 640 480 643.582031 480 648 L 480 760 C 480 764.417969 483.582031 768 488 768 L 536 768 C 540.417969 768 544 764.417969 544 760 L 544 648 C 544 643.582031 540.417969 640 536 640 Z M 483 361 L 483 570 C 483 574.417969 486.582031 578 491 578 L 539 578 C 543.417969 578 547 574.417969 547 570 L 547 361 Z M 483 361 "/>
<path style=" stroke:none;fill-rule:nonzero;fill:rgb(31.764707%,31.764707%,31.764707%);fill-opacity:1;" d="M 352 151.519531 L 136.945312 276.238281 C 127.074219 281.964844 121 292.511719 121 303.921875 L 121 720.09375 C 121 731.503906 127.074219 742.050781 136.945312 747.773438 L 495.539062 955.738281 C 505.46875 961.496094 517.71875 961.496094 527.644531 955.738281 L 886.238281 747.773438 C 896.109375 742.050781 902.183594 731.503906 902.183594 720.09375 L 902.183594 303.921875 C 902.183594 292.511719 896.109375 281.964844 886.238281 276.238281 L 672 151.992188 L 672 235.226562 L 830.183594 326.964844 L 830.183594 697.050781 L 511.59375 881.816406 L 193 697.050781 L 193 326.964844 L 352 234.753906 Z M 352 151.519531 "/>
<path style=" stroke:none;fill-rule:nonzero;fill:rgb(31.764707%,31.764707%,31.764707%);fill-opacity:1;" d="M 493.3125 178.722656 C 505.414062 168.027344 523.585938 168.027344 535.6875 178.722656 L 704.648438 328.019531 C 726.734375 347.535156 712.929688 384 683.460938 384 L 345.539062 384 C 316.070312 384 302.265625 347.535156 324.351562 328.019531 Z M 493.3125 178.722656 "/>
</g>
</svg>
