<?xml version="1.0" encoding="UTF-8"?>
<svg xmlns="http://www.w3.org/2000/svg" xmlns:xlink="http://www.w3.org/1999/xlink" width="1024pt" height="1024pt" viewBox="0 0 1024 1024" version="1.1">
<g id="surface16">
<path style=" stroke:none;fill-rule:nonzero;fill:rgb(31.764707%,31.764707%,31.764707%);fill-opacity:1;" d="M 771.289062 231.042969 L 589.375 64.222656 L 128.023438 64.222656 L 128.023438 840.910156 L 771.289062 840.910156 Z M 190.863281 781.21875 L 190.863281 123.914062 L 535.773438 123.914062 L 535.773438 286.84375 L 708.449219 286.84375 L 708.449219 781.21875 Z M 190.863281 781.21875 "/>
<path style=" stroke:none;fill-rule:nonzero;fill:rgb(31.764707%,31.764707%,31.764707%);fill-opacity:1;" d="M 833.335938 287.210938 L 833.335938 899.867188 L 253.273438 899.867188 L 253.273438 959.558594 L 896.175781 959.558594 L 896.175781 287.210938 Z M 256.234375 371.53125 L 643.082031 371.53125 L 643.082031 429.734375 L 256.234375 429.734375 Z M 256.234375 371.53125 "/>
<path style=" stroke:none;fill-rule:nonzero;fill:rgb(31.764707%,31.764707%,31.764707%);fill-opacity:1;" d="M 256.234375 510.34375 L 643.082031 510.34375 L 643.082031 568.542969 L 256.234375 568.542969 Z M 256.234375 649.15625 L 643.082031 649.15625 L 643.082031 707.355469 L 256.234375 707.355469 Z M 256.234375 649.15625 "/>
</g>
</svg>
