<?xml version="1.0" encoding="UTF-8"?>
<svg xmlns="http://www.w3.org/2000/svg" xmlns:xlink="http://www.w3.org/1999/xlink" width="100pt" height="100pt" viewBox="0 0 100 100" version="1.1">
<g id="surface60">
<rect x="0" y="0" width="100" height="100" style="fill:rgb(100%,100%,100%);fill-opacity:1;stroke:none;"/>
<path style="fill-rule:nonzero;fill:rgb(0%,0%,0%);fill-opacity:1;stroke-width:3.5;stroke-linecap:round;stroke-linejoin:miter;stroke:rgb(0%,0%,0%);stroke-opacity:1;stroke-miterlimit:4;" d="M 375.207617 106.497986 L 362.998295 113.493777 " transform="matrix(0.234516,0,0,0.234516,0,11.66905)"/>
<path style="fill-rule:nonzero;fill:rgb(0%,0%,0%);fill-opacity:1;stroke-width:3.5;stroke-linecap:round;stroke-linejoin:miter;stroke:rgb(0%,0%,0%);stroke-opacity:1;stroke-miterlimit:4;" d="M 340.495166 113.493777 L 317.092577 100.001893 " transform="matrix(0.234516,0,0,0.234516,0,11.66905)"/>
<path style="fill:none;stroke-width:3.5;stroke-linecap:round;stroke-linejoin:miter;stroke:rgb(0%,0%,0%);stroke-opacity:1;stroke-miterlimit:4;" d="M 314.094381 100.001893 L 314.094381 73.00147 " transform="matrix(0.234516,0,0,0.234516,0,11.66905)"/>
<path style="fill:none;stroke-width:3.5;stroke-linecap:round;stroke-linejoin:miter;stroke:rgb(0%,0%,0%);stroke-opacity:1;stroke-miterlimit:4;" d="M 320.10743 100.001893 L 320.10743 73.00147 " transform="matrix(0.234516,0,0,0.234516,0,11.66905)"/>
<path style="fill-rule:nonzero;fill:rgb(0%,0%,0%);fill-opacity:1;stroke-width:3.5;stroke-linecap:round;stroke-linejoin:miter;stroke:rgb(0%,0%,0%);stroke-opacity:1;stroke-miterlimit:4;" d="M 317.092577 100.001893 L 282.496723 120.006526 " transform="matrix(0.234516,0,0,0.234516,0,11.66905)"/>
<path style="fill-rule:nonzero;fill:rgb(0%,0%,0%);fill-opacity:1;stroke-width:3.5;stroke-linecap:round;stroke-linejoin:miter;stroke:rgb(0%,0%,0%);stroke-opacity:1;stroke-miterlimit:4;" d="M 256.195878 219.096915 L 229.395334 248.895656 " transform="matrix(0.234516,0,0,0.234516,0,11.66905)"/>
<path style="fill-rule:nonzero;fill:rgb(0%,0%,0%);fill-opacity:1;stroke-width:3.5;stroke-linecap:round;stroke-linejoin:miter;stroke:rgb(0%,0%,0%);stroke-opacity:1;stroke-miterlimit:4;" d="M 229.395334 248.895656 L 237.707001 274.496921 " transform="matrix(0.234516,0,0,0.234516,0,11.66905)"/>
<path style="fill-rule:nonzero;fill:rgb(0%,0%,0%);fill-opacity:1;stroke-width:3.5;stroke-linecap:round;stroke-linejoin:miter;stroke:rgb(0%,0%,0%);stroke-opacity:1;stroke-miterlimit:4;" d="M 213.205074 159.999134 L 189.802486 173.507674 " transform="matrix(0.234516,0,0,0.234516,0,11.66905)"/>
<path style="fill-rule:nonzero;fill:rgb(0%,0%,0%);fill-opacity:1;stroke-width:3.5;stroke-linecap:round;stroke-linejoin:miter;stroke:rgb(0%,0%,0%);stroke-opacity:1;stroke-miterlimit:4;" d="M 167.299356 173.507674 L 143.896768 159.999134 " transform="matrix(0.234516,0,0,0.234516,0,11.66905)"/>
<path style="fill:none;stroke-width:3.5;stroke-linecap:round;stroke-linejoin:miter;stroke:rgb(0%,0%,0%);stroke-opacity:1;stroke-miterlimit:4;" d="M 109.300914 100.001893 L 109.300914 59.992629 " transform="matrix(0.234516,0,0,0.234516,0,11.66905)"/>
<path style="fill-rule:nonzero;fill:rgb(0%,0%,0%);fill-opacity:1;stroke-width:3.5;stroke-linecap:round;stroke-linejoin:miter;stroke:rgb(0%,0%,0%);stroke-opacity:1;stroke-miterlimit:4;" d="M 109.300914 59.992629 L 132.703502 46.500745 " transform="matrix(0.234516,0,0,0.234516,0,11.66905)"/>
<path style="fill-rule:nonzero;fill:rgb(0%,0%,0%);fill-opacity:1;stroke-width:3.5;stroke-linecap:round;stroke-linejoin:miter;stroke:rgb(0%,0%,0%);stroke-opacity:1;stroke-miterlimit:4;" d="M 74.605119 120.006526 L 51.302471 106.497986 " transform="matrix(0.234516,0,0,0.234516,0,11.66905)"/>
<path style="fill-rule:nonzero;fill:rgb(0%,0%,0%);fill-opacity:1;stroke-width:3.5;stroke-linecap:round;stroke-linejoin:miter;stroke:rgb(0%,0%,0%);stroke-opacity:1;stroke-miterlimit:4;" d="M 74.605119 159.999134 L 51.302471 173.507674 " transform="matrix(0.234516,0,0,0.234516,0,11.66905)"/>
<path style="fill:none;stroke-width:3.5;stroke-linecap:round;stroke-linejoin:miter;stroke:rgb(0%,0%,0%);stroke-opacity:1;stroke-miterlimit:4;" d="M 109.300914 180.003766 L 109.300914 207.00419 " transform="matrix(0.234516,0,0,0.234516,0,11.66905)"/>
<path style="fill-rule:nonzero;fill:rgb(0%,0%,0%);fill-opacity:1;stroke-width:3.5;stroke-linecap:round;stroke-linejoin:miter;stroke:rgb(0%,0%,0%);stroke-opacity:1;stroke-miterlimit:4;" d="M 295.905323 223.29439 L 312.195523 186.799678 " transform="matrix(0.234516,0,0,0.234516,0,11.66905)"/>
<path style="fill-rule:nonzero;fill:rgb(0%,0%,0%);fill-opacity:1;stroke-width:3.5;stroke-linecap:round;stroke-linejoin:miter;stroke:rgb(0%,0%,0%);stroke-opacity:1;stroke-miterlimit:4;" d="M 312.195523 186.799678 L 282.496723 159.999134 " transform="matrix(0.234516,0,0,0.234516,0,11.66905)"/>
<path style="fill-rule:nonzero;fill:rgb(0%,0%,0%);fill-opacity:1;stroke-width:3.5;stroke-linecap:round;stroke-linejoin:miter;stroke:rgb(0%,0%,0%);stroke-opacity:1;stroke-miterlimit:4;" d="M 282.496723 159.999134 L 247.800928 180.003766 " transform="matrix(0.234516,0,0,0.234516,0,11.66905)"/>
<path style="fill-rule:nonzero;fill:rgb(0%,0%,0%);fill-opacity:1;stroke-width:3.5;stroke-linecap:round;stroke-linejoin:miter;stroke:rgb(0%,0%,0%);stroke-opacity:1;stroke-miterlimit:4;" d="M 247.800928 180.003766 L 256.195878 219.096915 " transform="matrix(0.234516,0,0,0.234516,0,11.66905)"/>
<path style="fill-rule:nonzero;fill:rgb(0%,0%,0%);fill-opacity:1;stroke-width:3.5;stroke-linecap:round;stroke-linejoin:miter;stroke:rgb(0%,0%,0%);stroke-opacity:1;stroke-miterlimit:4;" d="M 256.195878 219.096915 L 295.905323 223.29439 " transform="matrix(0.234516,0,0,0.234516,0,11.66905)"/>
<path style="fill-rule:nonzero;fill:rgb(0%,0%,0%);fill-opacity:1;stroke-width:3.5;stroke-linecap:round;stroke-linejoin:miter;stroke:rgb(0%,0%,0%);stroke-opacity:1;stroke-miterlimit:4;" d="M 262.89185 212.600823 L 290.691793 215.49908 " transform="matrix(0.234516,0,0,0.234516,0,11.66905)"/>
<path style="fill:none;stroke-width:3.5;stroke-linecap:round;stroke-linejoin:miter;stroke:rgb(0%,0%,0%);stroke-opacity:1;stroke-miterlimit:4;" d="M 213.205074 132.99871 L 213.205074 159.999134 " transform="matrix(0.234516,0,0,0.234516,0,11.66905)"/>
<path style="fill-rule:nonzero;fill:rgb(0%,0%,0%);fill-opacity:1;stroke-width:3.5;stroke-linecap:round;stroke-linejoin:miter;stroke:rgb(0%,0%,0%);stroke-opacity:1;stroke-miterlimit:4;" d="M 213.205074 159.999134 L 247.800928 180.003766 " transform="matrix(0.234516,0,0,0.234516,0,11.66905)"/>
<path style="fill:none;stroke-width:3.5;stroke-linecap:round;stroke-linejoin:miter;stroke:rgb(0%,0%,0%);stroke-opacity:1;stroke-miterlimit:4;" d="M 282.496723 159.999134 L 282.496723 120.006526 " transform="matrix(0.234516,0,0,0.234516,0,11.66905)"/>
<path style="fill-rule:nonzero;fill:rgb(0%,0%,0%);fill-opacity:1;stroke-width:3.5;stroke-linecap:round;stroke-linejoin:miter;stroke:rgb(0%,0%,0%);stroke-opacity:1;stroke-miterlimit:4;" d="M 282.496723 120.006526 L 247.800928 100.001893 " transform="matrix(0.234516,0,0,0.234516,0,11.66905)"/>
<path style="fill-rule:nonzero;fill:rgb(0%,0%,0%);fill-opacity:1;stroke-width:3.5;stroke-linecap:round;stroke-linejoin:miter;stroke:rgb(0%,0%,0%);stroke-opacity:1;stroke-miterlimit:4;" d="M 273.702014 123.204602 L 249.399967 109.196362 " transform="matrix(0.234516,0,0,0.234516,0,11.66905)"/>
<path style="fill-rule:nonzero;fill:rgb(0%,0%,0%);fill-opacity:1;stroke-width:3.5;stroke-linecap:round;stroke-linejoin:miter;stroke:rgb(0%,0%,0%);stroke-opacity:1;stroke-miterlimit:4;" d="M 247.800928 100.001893 L 224.49828 113.493777 " transform="matrix(0.234516,0,0,0.234516,0,11.66905)"/>
<path style="fill:none;stroke-width:3.5;stroke-linecap:round;stroke-linejoin:miter;stroke:rgb(0%,0%,0%);stroke-opacity:1;stroke-miterlimit:4;" d="M 74.605119 159.999134 L 74.605119 120.006526 " transform="matrix(0.234516,0,0,0.234516,0,11.66905)"/>
<path style="fill-rule:nonzero;fill:rgb(0%,0%,0%);fill-opacity:1;stroke-width:3.5;stroke-linecap:round;stroke-linejoin:miter;stroke:rgb(0%,0%,0%);stroke-opacity:1;stroke-miterlimit:4;" d="M 74.605119 120.006526 L 109.300914 100.001893 " transform="matrix(0.234516,0,0,0.234516,0,11.66905)"/>
<path style="fill-rule:nonzero;fill:rgb(0%,0%,0%);fill-opacity:1;stroke-width:3.5;stroke-linecap:round;stroke-linejoin:miter;stroke:rgb(0%,0%,0%);stroke-opacity:1;stroke-miterlimit:4;" d="M 109.300914 100.001893 L 132.703502 113.493777 " transform="matrix(0.234516,0,0,0.234516,0,11.66905)"/>
<path style="fill:none;stroke-width:3.5;stroke-linecap:round;stroke-linejoin:miter;stroke:rgb(0%,0%,0%);stroke-opacity:1;stroke-miterlimit:4;" d="M 143.896768 132.99871 L 143.896768 159.999134 " transform="matrix(0.234516,0,0,0.234516,0,11.66905)"/>
<path style="fill-rule:nonzero;fill:rgb(0%,0%,0%);fill-opacity:1;stroke-width:3.5;stroke-linecap:round;stroke-linejoin:miter;stroke:rgb(0%,0%,0%);stroke-opacity:1;stroke-miterlimit:4;" d="M 143.896768 159.999134 L 109.300914 180.003766 " transform="matrix(0.234516,0,0,0.234516,0,11.66905)"/>
<path style="fill-rule:nonzero;fill:rgb(0%,0%,0%);fill-opacity:1;stroke-width:3.5;stroke-linecap:round;stroke-linejoin:miter;stroke:rgb(0%,0%,0%);stroke-opacity:1;stroke-miterlimit:4;" d="M 109.300914 180.003766 L 74.605119 159.999134 " transform="matrix(0.234516,0,0,0.234516,0,11.66905)"/>
</g>
</svg>
