<?xml version="1.0" encoding="UTF-8"?>
<svg xmlns="http://www.w3.org/2000/svg" xmlns:xlink="http://www.w3.org/1999/xlink" width="21979pt" height="19016pt" viewBox="0 0 21979 19016" version="1.1">
<g id="surface98">
<path style=" stroke:none;fill-rule:evenodd;fill:rgb(54.11765%,78.039217%,86.666667%);fill-opacity:1;" d="M 4217 7935 C 4217 8623 4217 9310 4217 9998 C 4177 10005 4145 10009 4113 10009 C 3857 10020 3596 10027 3336 10037 C 2871 10055 2410 10073 1949 10091 C 1853 10095 1752 10095 1652 10095 C 1644 10095 1632 10095 1616 10091 C 1616 9439 1616 8784 1616 8125 C 2482 8060 3348 7996 4217 7935 Z M 2582 8289 C 2630 8289 2666 8257 2666 8204 C 2666 8153 2626 8114 2578 8114 C 2534 8114 2498 8150 2498 8200 C 2502 8250 2538 8289 2582 8289 Z M 2482 8229 C 2482 8178 2446 8135 2402 8132 C 2358 8132 2318 8168 2314 8218 C 2310 8264 2350 8307 2398 8311 C 2446 8311 2482 8272 2482 8229 Z M 2205 8304 C 2209 8289 2209 8275 2213 8250 C 2205 8229 2197 8193 2173 8168 C 2117 8096 2013 8110 1977 8193 C 1957 8239 1957 8289 1989 8336 C 2017 8379 2065 8401 2113 8390 C 2165 8386 2193 8350 2205 8304 Z M 2205 8304 "/>
<path style=" stroke:none;fill-rule:evenodd;fill:rgb(0%,39.607844%,56.862748%);fill-opacity:1;" d="M 2217 8250 C 2213 8279 2213 8289 2209 8304 C 2197 8354 2165 8386 2109 8397 C 2064 8408 2016 8383 1988 8336 C 1956 8289 1952 8243 1976 8193 C 2012 8114 2113 8100 2173 8171 C 2201 8196 2209 8228 2217 8250 Z M 2217 8250 "/>
<path style=" stroke:none;fill-rule:evenodd;fill:rgb(0%,0%,0%);fill-opacity:1;" d="M 2402 8132 C 2446 8135 2490 8178 2486 8229 C 2486 8279 2442 8315 2398 8315 C 2350 8311 2310 8268 2314 8218 C 2318 8168 2358 8132 2402 8132 Z M 2406 8261 C 2438 8221 2438 8221 2398 8182 C 2362 8225 2362 8232 2406 8261 Z M 2406 8261 "/>
<path style=" stroke:none;fill-rule:evenodd;fill:rgb(100%,100%,100%);fill-opacity:1;" d="M 2399 8182 C 2439 8225 2439 8225 2407 8261 C 2359 8236 2359 8229 2399 8182 Z M 2399 8182 "/>
<path style=" stroke:none;fill-rule:evenodd;fill:rgb(0%,0%,0%);fill-opacity:1;" d="M 2670 8204 C 2670 8254 2634 8293 2586 8293 C 2534 8293 2502 8250 2498 8200 C 2498 8150 2534 8114 2582 8114 C 2630 8114 2670 8153 2670 8204 Z M 2586 8236 C 2606 8243 2614 8221 2614 8207 C 2610 8193 2602 8178 2586 8150 C 2574 8175 2558 8189 2558 8196 C 2558 8211 2574 8232 2586 8236 Z M 2586 8236 "/>
<path style=" stroke:none;fill-rule:evenodd;fill:rgb(100%,100%,100%);fill-opacity:1;" d="M 2615 8207 C 2615 8221 2607 8246 2587 8239 C 2575 8232 2559 8211 2559 8193 C 2555 8186 2567 8175 2587 8150 C 2603 8178 2611 8193 2615 8207 Z M 2615 8207 "/>
<path style=" stroke:none;fill-rule:evenodd;fill:rgb(81.960785%,81.960785%,81.960785%);fill-opacity:1;" d="M 5564 7974 C 5564 7988 5564 8006 5564 8024 C 5564 8644 5564 9274 5564 9898 C 5564 9987 5564 9987 5464 9983 C 5199 9983 4943 9976 4686 9976 C 4574 9976 4466 9983 4358 9983 C 4290 9983 4282 9983 4282 9919 C 4282 9600 4282 9278 4282 8959 C 4282 8644 4282 8336 4282 8028 C 4282 8013 4282 7996 4282 7981 C 4286 7935 4294 7928 4346 7917 C 4566 7877 4795 7859 5023 7877 C 5179 7888 5344 7906 5500 7920 C 5548 7924 5560 7935 5564 7974 Z M 5472 8339 C 5472 8304 5472 8271 5472 8236 C 5472 8171 5452 8153 5380 8146 C 5219 8125 5059 8125 4903 8157 C 4855 8164 4843 8178 4839 8221 C 4835 8243 4839 8261 4839 8282 C 4839 8504 4839 8730 4839 8948 C 4839 9174 4839 9400 4839 9622 C 4839 9643 4839 9661 4839 9683 C 4847 9722 4859 9733 4903 9736 C 4919 9736 4935 9736 4951 9736 C 5083 9733 5215 9722 5352 9740 C 5456 9751 5472 9733 5472 9636 C 5472 9203 5472 8773 5472 8339 Z M 5472 8339 "/>
<path style=" stroke:none;fill-rule:evenodd;fill:rgb(0%,0%,0%);fill-opacity:1;" d="M 5472 8238 C 5472 8270 5472 8306 5472 8342 C 5472 8772 5472 9201 5472 9635 C 5472 9732 5456 9753 5352 9735 C 5219 9721 5087 9732 4955 9732 C 4939 9732 4923 9735 4903 9732 C 4859 9732 4847 9721 4839 9678 C 4839 9660 4839 9638 4839 9620 C 4839 9395 4839 9169 4839 8947 C 4839 8725 4839 8507 4839 8284 C 4839 8263 4839 8245 4839 8224 C 4843 8181 4855 8166 4903 8155 C 5063 8123 5223 8120 5380 8145 C 5452 8155 5472 8173 5472 8238 Z M 5296 9581 C 5296 9151 5296 8714 5296 8284 C 5296 8270 5296 8252 5296 8234 C 5296 8209 5280 8195 5247 8195 C 5159 8195 5063 8195 4975 8202 C 4895 8206 4895 8213 4895 8277 C 4895 8721 4895 9169 4895 9610 C 4895 9631 4895 9653 4899 9678 C 4935 9678 4963 9678 4987 9678 C 5059 9678 5131 9671 5203 9671 C 5296 9671 5296 9671 5296 9581 Z M 5296 9581 "/>
<path style=" stroke:none;fill-rule:evenodd;fill:rgb(81.960785%,81.960785%,81.960785%);fill-opacity:1;" d="M 5296 8282 C 5296 8719 5296 9153 5296 9586 C 5296 9672 5296 9672 5199 9672 C 5127 9676 5055 9679 4979 9683 C 4955 9683 4927 9683 4895 9683 C 4891 9658 4891 9636 4891 9615 C 4891 9171 4891 8723 4891 8279 C 4891 8211 4891 8204 4967 8200 C 5055 8193 5155 8200 5243 8196 C 5276 8196 5292 8211 5292 8236 C 5296 8250 5296 8268 5296 8282 Z M 5296 8282 "/>
<path style=" stroke:none;fill-rule:evenodd;fill:rgb(100%,100%,100%);fill-opacity:1;" d="M 3420 10156 C 3420 10163 3420 10163 3420 10163 C 3412 10163 3408 10163 3396 10163 C 3400 10163 3412 10163 3420 10156 Z M 3420 10156 "/>
<path style=" stroke:none;fill-rule:evenodd;fill:rgb(99.215686%,100%,100%);fill-opacity:1;" d="M 3275 10761 C 3275 10790 3279 10818 3279 10851 C 3267 10854 3251 10854 3239 10858 C 2887 10865 2538 10872 2185 10879 C 2101 10883 2017 10886 1937 10886 C 1829 10886 1728 10886 1616 10883 C 1616 10661 1616 10453 1616 10231 C 2181 10206 2746 10184 3316 10170 C 3267 10209 3275 10256 3275 10302 C 3275 10457 3275 10611 3275 10761 Z M 3275 10761 "/>
<path style=" stroke:none;fill-rule:evenodd;fill:rgb(100%,100%,100%);fill-opacity:1;" d="M 4205 10808 C 4205 10811 4209 10815 4209 10822 C 4197 10829 4185 10836 4173 10836 C 4057 10836 3941 10836 3821 10836 C 3953 10829 4081 10815 4205 10808 Z M 4205 10808 "/>
<path style=" stroke:none;fill-rule:evenodd;fill:rgb(81.960785%,81.960785%,81.960785%);fill-opacity:1;" d="M 5300 10758 C 5296 10780 5292 10801 5292 10819 C 5276 10823 5268 10827 5260 10827 C 5035 10823 4811 10819 4586 10816 C 4546 10816 4510 10823 4486 10787 C 4482 10776 4458 10776 4446 10773 C 4426 10769 4410 10773 4390 10773 C 4346 10769 4338 10762 4334 10723 C 4334 10694 4334 10665 4334 10637 C 4334 10490 4334 10347 4334 10207 C 4334 10146 4342 10139 4406 10132 C 4630 10099 4851 10092 5075 10103 C 5127 10107 5179 10107 5227 10107 C 5243 10107 5264 10107 5276 10114 C 5288 10121 5296 10135 5296 10146 C 5296 10157 5280 10167 5272 10167 C 5255 10171 5239 10171 5223 10171 C 5127 10171 5031 10167 4935 10167 C 4855 10167 4843 10182 4843 10246 C 4843 10379 4843 10511 4843 10647 C 4843 10715 4859 10726 4931 10730 C 5047 10733 5155 10741 5268 10748 C 5276 10751 5284 10758 5300 10758 Z M 5300 10758 "/>
<path style="fill-rule:evenodd;fill:rgb(0%,0%,0%);fill-opacity:1;stroke-width:50;stroke-linecap:butt;stroke-linejoin:miter;stroke:rgb(0%,0%,0%);stroke-opacity:1;stroke-miterlimit:4;" d="M 15011 10564 L 15280 11291 L 14735 11291 Z M 15011 10564 "/>
<path style=" stroke:none;fill-rule:evenodd;fill:rgb(54.11765%,78.039217%,86.666667%);fill-opacity:1;" d="M 4205 13558 C 4221 13612 4225 14003 4209 14056 C 4141 14067 1784 13963 1616 13938 C 1616 12964 1616 11997 1616 11022 C 2482 11001 3348 10983 4217 10962 C 4221 11223 4217 11477 4217 11735 C 4077 11753 3937 11746 3793 11753 C 3781 11810 3764 11864 3756 11918 C 3716 12204 3696 12495 3708 12781 C 3716 13007 3732 13225 3772 13447 C 3777 13476 3785 13501 3793 13530 C 3933 13541 4069 13551 4205 13558 Z M 2666 11202 C 2662 11194 2662 11184 2654 11169 C 2642 11133 2602 11112 2566 11116 C 2530 11119 2502 11148 2498 11187 C 2494 11198 2498 11212 2502 11223 C 2506 11266 2546 11295 2586 11295 C 2630 11291 2666 11255 2666 11202 Z M 2402 11295 C 2446 11295 2486 11255 2482 11209 C 2482 11159 2438 11116 2394 11116 C 2350 11116 2310 11159 2314 11205 C 2318 11252 2358 11295 2402 11295 Z M 2205 11252 C 2209 11237 2209 11223 2213 11194 C 2205 11176 2197 11144 2185 11119 C 2161 11080 2121 11058 2073 11065 C 2021 11069 1993 11098 1977 11137 C 1953 11187 1961 11234 1993 11277 C 2021 11316 2057 11338 2113 11330 C 2161 11323 2189 11295 2205 11252 Z M 2205 11252 "/>
<path style=" stroke:none;fill-rule:evenodd;fill:rgb(0%,39.607844%,56.862748%);fill-opacity:1;" d="M 2215 11192 C 2211 11221 2211 11235 2207 11249 C 2191 11289 2159 11325 2111 11332 C 2055 11343 2019 11321 1991 11275 C 1959 11232 1951 11181 1975 11135 C 1991 11095 2019 11067 2071 11063 C 2119 11056 2159 11078 2183 11117 C 2199 11142 2207 11174 2215 11192 Z M 2215 11192 "/>
<path style=" stroke:none;fill-rule:evenodd;fill:rgb(0%,0%,0%);fill-opacity:1;" d="M 2490 11209 C 2494 11259 2450 11298 2406 11298 C 2358 11298 2318 11255 2318 11205 C 2318 11159 2354 11119 2398 11119 C 2442 11119 2486 11162 2490 11209 Z M 2406 11248 C 2430 11216 2438 11191 2414 11176 C 2406 11173 2386 11173 2382 11180 C 2362 11198 2370 11219 2406 11248 Z M 2406 11248 "/>
<path style=" stroke:none;fill-rule:evenodd;fill:rgb(100%,100%,100%);fill-opacity:1;" d="M 2416 11179 C 2436 11197 2432 11218 2408 11250 C 2368 11225 2360 11204 2380 11186 C 2384 11175 2408 11175 2416 11179 Z M 2416 11179 "/>
<path style=" stroke:none;fill-rule:evenodd;fill:rgb(0%,0%,0%);fill-opacity:1;" d="M 2662 11170 C 2666 11184 2670 11195 2670 11202 C 2670 11259 2638 11295 2594 11299 C 2554 11299 2514 11266 2506 11223 C 2502 11213 2502 11198 2502 11188 C 2506 11148 2534 11123 2574 11116 C 2610 11112 2646 11134 2662 11170 Z M 2586 11248 C 2618 11227 2618 11209 2606 11188 C 2606 11180 2594 11173 2582 11173 C 2574 11173 2558 11184 2558 11188 C 2554 11209 2554 11231 2586 11248 Z M 2586 11248 "/>
<path style=" stroke:none;fill-rule:evenodd;fill:rgb(100%,100%,100%);fill-opacity:1;" d="M 2604 11187 C 2620 11212 2620 11230 2584 11248 C 2552 11234 2548 11212 2560 11187 C 2560 11180 2572 11169 2580 11169 C 2592 11173 2604 11180 2604 11187 Z M 2604 11187 "/>
<path style=" stroke:none;fill-rule:evenodd;fill:rgb(100%,100%,100%);fill-opacity:1;" d="M 5660 13911 C 5660 13922 5660 13933 5660 13943 C 5660 14019 5620 14040 5536 14011 C 5524 14008 5512 13990 5508 13979 C 5504 13961 5504 13943 5504 13922 C 5504 13030 5504 12134 5504 11235 C 5504 11232 5504 11228 5504 11225 C 5504 11149 5524 11135 5616 11142 C 5648 11146 5664 11160 5664 11189 C 5664 11207 5664 11228 5664 11246 C 5664 11694 5664 12138 5664 12579 C 5660 13026 5660 13471 5660 13911 Z M 5660 13911 "/>
<path style=" stroke:none;fill-rule:evenodd;fill:rgb(81.960785%,81.960785%,81.960785%);fill-opacity:1;" d="M 4219 11793 C 4235 11846 4235 13440 4223 13512 C 4091 13505 3970 13498 3850 13490 C 3726 13286 3726 12086 3846 11803 C 3970 11800 4091 11793 4219 11793 Z M 4219 11793 "/>
<path style=" stroke:none;fill-rule:evenodd;fill:rgb(81.960785%,81.960785%,81.960785%);fill-opacity:1;" d="M 5564 11028 C 5564 11064 5552 11079 5516 11086 C 5516 11086 5512 11086 5508 11086 C 5400 11107 5400 11107 5400 11207 C 5400 12121 5400 13034 5400 13955 C 5400 13966 5400 13976 5400 13987 C 5400 14044 5416 14059 5480 14073 C 5508 14077 5540 14066 5560 14098 C 5540 14123 5516 14123 5488 14127 C 5324 14152 5155 14155 4991 14155 C 4783 14152 4574 14134 4366 14091 C 4358 14091 4354 14087 4350 14087 C 4290 14073 4282 14073 4282 14012 C 4282 13890 4282 13769 4282 13643 C 4282 13625 4286 13607 4290 13582 C 4534 13600 4775 13593 5019 13582 C 5019 13550 5019 13511 5019 13475 C 5019 12934 5019 12400 5019 11867 C 5019 11834 5019 11806 5019 11773 C 4995 11770 4971 11763 4947 11763 C 4750 11748 4554 11734 4362 11752 C 4354 11752 4350 11752 4342 11752 C 4294 11752 4290 11748 4282 11705 C 4282 11702 4282 11695 4282 11691 C 4282 11473 4282 11254 4282 11039 C 4282 10978 4294 10971 4358 10968 C 4562 10960 4767 10950 4971 10957 C 5151 10957 5332 10978 5512 10989 C 5544 10985 5564 11000 5564 11028 Z M 5564 11028 "/>
<path style=" stroke:none;fill-rule:evenodd;fill:rgb(81.960785%,81.960785%,81.960785%);fill-opacity:1;" d="M 4927 11814 C 4959 11814 4971 11832 4971 11857 C 4971 11918 4971 11978 4971 12054 C 4943 12036 4931 12029 4919 12021 C 4859 11989 4791 12000 4746 12050 C 4710 12089 4702 12136 4702 12186 C 4702 12312 4702 12440 4702 12573 C 4702 12791 4702 13010 4702 13225 C 4702 13261 4702 13293 4714 13329 C 4742 13433 4835 13465 4939 13411 C 4947 13408 4955 13408 4963 13400 C 4967 13408 4971 13408 4971 13408 C 4971 13436 4975 13458 4975 13476 C 4975 13526 4951 13529 4855 13526 C 4690 13522 4526 13515 4358 13508 C 4290 13504 4290 13501 4290 13440 C 4290 12928 4290 12408 4290 11892 C 4290 11828 4290 11824 4358 11821 C 4534 11814 4710 11814 4887 11814 C 4895 11806 4911 11814 4927 11814 Z M 4927 11814 "/>
<path style=" stroke:none;fill-rule:evenodd;fill:rgb(0%,0%,0%);fill-opacity:1;" d="M 5029 11861 C 5029 12398 5029 12928 5029 13476 L 4973 13476 C 4973 13458 4973 13433 4965 13408 C 4965 13404 4965 13404 4961 13401 C 4953 13401 4945 13408 4937 13412 C 4832 13465 4736 13429 4708 13326 C 4696 13293 4696 13258 4696 13225 C 4692 13003 4696 12788 4696 12570 C 4696 12441 4696 12312 4696 12183 C 4696 12133 4704 12086 4740 12047 C 4784 11997 4856 11986 4917 12018 C 4929 12025 4941 12036 4965 12050 C 4965 11979 4965 11918 4965 11853 L 5029 11853 Z M 5029 11861 "/>
<path style=" stroke:none;fill-rule:evenodd;fill:rgb(54.11765%,78.039217%,86.666667%);fill-opacity:1;" d="M 10574 13931 C 10574 14035 10574 14135 10574 14235 C 10574 14325 10574 14418 10574 14508 C 10574 14515 10570 14526 10570 14543 C 9340 14465 8113 14386 6887 14307 C 6887 14278 6883 14257 6883 14235 C 6883 12570 6883 10901 6883 9239 C 6883 9167 6883 9160 6963 9146 C 7075 9128 7187 9106 7304 9099 C 7544 9081 7785 9074 8029 9060 C 8298 9042 8562 9020 8831 9002 C 9027 8992 9224 8977 9420 8963 C 9440 8963 9460 8963 9480 8959 C 9592 8952 9700 8945 9809 8938 C 9833 8938 9857 8938 9881 8938 C 9897 8992 9897 9855 9881 9919 C 9809 9923 9737 9930 9664 9934 C 9212 9955 8763 9973 8314 9998 C 7969 10016 7624 10037 7280 10059 C 7240 10059 7203 10063 7163 10077 C 7067 10102 6999 10156 6979 10245 C 6983 10238 6987 10234 6991 10227 C 7043 10131 7135 10091 7252 10084 C 7340 10080 7424 10077 7512 10073 C 7684 10066 7861 10063 8033 10059 C 8342 10048 8654 10034 8967 10020 C 9139 10012 9316 10005 9492 9994 C 9616 9991 9737 9980 9861 9977 C 10013 9973 10133 10030 10214 10148 C 10262 10224 10282 10302 10282 10385 C 10282 10696 10286 11005 10286 11313 C 10286 11323 10282 11338 10278 11348 C 10153 11384 10125 11402 10121 11499 C 10121 11510 10121 11524 10121 11538 C 10117 11714 10121 11882 10121 12058 C 10121 12079 10121 12101 10121 12126 C 10105 12122 10101 12122 10093 12115 C 10049 12050 9981 12029 9893 12029 C 9260 12029 8634 12029 8005 12029 C 7973 12029 7941 12029 7913 12040 C 7833 12065 7785 12118 7777 12194 C 7777 12215 7777 12237 7777 12258 C 7777 12831 7777 13401 7777 13970 C 7777 13988 7777 14006 7777 14024 C 7785 14128 7853 14196 7973 14203 C 8033 14207 8093 14210 8153 14210 C 8530 14225 8907 14235 9288 14253 C 9476 14260 9664 14268 9853 14275 C 9873 14275 9897 14275 9917 14278 C 10013 14289 10121 14214 10117 14103 C 10113 14020 10117 13935 10117 13852 C 10117 13831 10117 13813 10117 13788 C 10129 13795 10133 13798 10137 13802 C 10169 13852 10218 13870 10278 13870 C 10322 13870 10362 13874 10406 13877 C 10446 13877 10486 13881 10530 13881 C 10570 13881 10574 13888 10574 13931 Z M 10574 13931 "/>
<path style=" stroke:none;fill-rule:evenodd;fill:rgb(100%,100%,100%);fill-opacity:1;" d="M 12059 9561 C 12059 9651 12059 9740 12059 9833 C 12055 9837 12051 9840 12043 9844 C 11991 9855 11983 9887 11983 9930 C 11983 10277 11983 10628 11983 10976 C 11983 11001 11983 11022 11983 11055 C 11935 11055 11899 11058 11863 11058 C 11606 11062 11350 11069 11097 11073 C 10989 11076 10889 11101 10805 11162 C 10797 11169 10793 11173 10781 11180 C 10748 11141 10748 11094 10752 11055 C 10756 11012 10768 10965 10776 10926 C 10781 10915 10785 10901 10785 10890 C 10861 10704 10905 10510 10921 10317 C 10925 10281 10933 10249 10941 10213 C 10981 10027 11113 9898 11298 9808 C 11526 9704 11775 9629 12023 9565 C 12035 9561 12043 9561 12059 9561 Z M 12059 9561 "/>
<path style="fill:none;stroke-width:50;stroke-linecap:butt;stroke-linejoin:miter;stroke:rgb(0%,0%,0%);stroke-opacity:1;stroke-miterlimit:4;" d="M 15007 11305 L 15007 11288 "/>
<path style=" stroke:none;fill-rule:evenodd;fill:rgb(0%,0%,0%);fill-opacity:1;" d="M 10398 13831 L 10398 13874 C 10354 13870 10314 13870 10274 13870 C 10210 13866 10161 13852 10129 13802 C 10125 13795 10121 13795 10109 13784 C 10109 13813 10109 13831 10109 13849 C 10109 13931 10105 14017 10109 14103 C 10113 14210 10005 14286 9909 14275 C 9889 14271 9865 14275 9849 14271 C 9656 14264 9472 14257 9284 14250 C 8903 14235 8526 14221 8145 14210 C 8085 14207 8025 14203 7965 14200 C 7849 14192 7777 14124 7769 14024 C 7769 14006 7769 13988 7769 13967 C 7769 13394 7769 12824 7769 12255 C 7769 12233 7769 12212 7773 12190 C 7777 12115 7825 12065 7905 12040 C 7933 12029 7965 12029 7997 12029 C 8626 12029 9260 12029 9885 12025 C 9973 12025 10041 12047 10089 12115 C 10089 12118 10097 12118 10113 12126 C 10113 12097 10113 12076 10113 12054 C 10113 11882 10113 11710 10113 11538 C 10113 11520 10113 11510 10113 11495 L 10161 11499 C 10161 11510 10161 11520 10161 11531 C 10161 11556 10161 11578 10161 11603 C 10161 12294 10161 12989 10161 13684 C 10161 13702 10161 13727 10165 13745 C 10177 13791 10198 13809 10246 13816 C 10278 13820 10306 13823 10334 13823 C 10358 13827 10378 13827 10398 13831 Z M 10053 12717 C 10053 12548 10053 12391 10053 12222 C 10017 12222 9993 12222 9965 12222 C 9476 12222 8991 12222 8498 12222 C 8474 12222 8450 12222 8426 12222 C 8382 12226 8350 12251 8334 12287 C 8330 12308 8326 12326 8326 12348 C 8326 12448 8326 12548 8326 12652 C 8326 12667 8330 12681 8334 12699 C 8911 12706 9480 12710 10053 12717 Z M 9933 14225 C 10005 14221 10045 14182 10041 14121 C 10025 14117 10005 14117 9989 14117 C 9745 14106 9496 14096 9252 14085 C 8991 14074 8731 14067 8474 14056 C 8454 14056 8434 14053 8414 14049 C 8342 14035 8298 13995 8282 13931 C 8274 13902 8274 13877 8274 13852 C 8274 13361 8274 12871 8274 12380 C 8274 12362 8274 12341 8274 12323 C 8286 12240 8342 12187 8430 12172 C 8466 12169 8498 12169 8530 12169 C 9007 12169 9480 12169 9949 12169 C 9977 12169 10005 12165 10041 12165 C 10025 12108 9985 12093 9941 12086 C 9921 12079 9897 12083 9877 12083 C 9260 12083 8638 12083 8017 12083 C 8001 12083 7981 12083 7965 12083 C 7893 12086 7841 12133 7829 12197 C 7829 12222 7829 12251 7829 12276 C 7829 12838 7829 13397 7829 13963 C 7829 13981 7829 13999 7829 14017 C 7833 14103 7881 14153 7977 14157 C 8149 14164 8322 14171 8494 14178 C 8767 14189 9043 14196 9316 14207 C 9456 14210 9592 14221 9733 14225 C 9797 14225 9865 14225 9933 14225 Z M 9985 13086 C 9989 12989 9941 12921 9845 12889 C 9773 12860 9696 12846 9620 12824 C 9600 12817 9576 12803 9556 12795 C 9556 13018 9556 13243 9556 13476 C 9588 13480 9612 13487 9636 13487 C 9729 13487 9817 13487 9909 13487 C 9981 13487 9985 13483 9985 13419 C 9985 13308 9985 13197 9985 13086 Z M 9460 13429 C 9460 13304 9460 13175 9456 13046 C 9456 12989 9424 12939 9360 12910 C 9304 12885 9240 12864 9175 12842 C 9139 12831 9099 12831 9059 12828 C 9059 13043 9059 13250 9059 13462 C 9131 13487 9348 13490 9444 13472 C 9452 13458 9460 13444 9460 13429 Z M 8955 13078 C 8955 12989 8911 12924 8823 12892 C 8751 12864 8674 12849 8602 12831 C 8590 12828 8574 12831 8562 12831 C 8546 12899 8546 13412 8562 13458 C 8686 13472 8815 13483 8947 13462 C 8951 13433 8955 13412 8955 13390 C 8955 13286 8951 13182 8955 13078 Z M 8955 13078 "/>
<path style=" stroke:none;fill-rule:evenodd;fill:rgb(100%,100%,100%);fill-opacity:1;" d="M 12266 11384 L 12266 11449 C 12101 11449 11945 11452 11785 11452 C 11312 11459 10839 11467 10362 11474 C 10238 11477 10222 11488 10222 11610 L 10157 11610 C 10157 11585 10157 11556 10157 11531 C 10157 11520 10157 11510 10157 11499 C 10157 11495 10157 11492 10161 11485 C 10165 11431 10198 11409 10258 11402 C 10270 11402 10274 11402 10286 11402 C 10771 11399 11260 11395 11745 11391 C 11921 11388 12089 11384 12266 11384 Z M 12266 11384 "/>
<path style=" stroke:none;fill-rule:evenodd;fill:rgb(100%,100%,100%);fill-opacity:1;" d="M 10422 13784 L 10418 13831 C 10410 13831 10406 13831 10398 13831 C 10378 13831 10358 13831 10334 13831 C 10306 13827 10278 13827 10246 13823 C 10198 13816 10173 13795 10161 13752 C 10157 13734 10157 13712 10157 13695 C 10157 13000 10157 12305 10157 11610 L 10226 11610 C 10234 12298 10238 12982 10242 13666 C 10242 13677 10242 13687 10242 13702 C 10246 13755 10278 13780 10334 13784 C 10366 13780 10394 13784 10422 13784 Z M 10422 13784 "/>
<path style=" stroke:none;fill-rule:evenodd;fill:rgb(81.960785%,81.960785%,81.960785%);fill-opacity:1;" d="M 10041 14121 C 10045 14182 10005 14221 9933 14225 C 9865 14225 9797 14225 9733 14221 C 9592 14217 9456 14210 9316 14203 C 9043 14192 8771 14185 8494 14174 C 8322 14171 8149 14164 7977 14153 C 7881 14149 7829 14103 7829 14017 C 7829 13999 7829 13977 7829 13960 C 7829 13401 7829 12835 7829 12273 C 7829 12247 7829 12222 7829 12194 C 7841 12129 7893 12086 7965 12079 C 7981 12079 8001 12079 8017 12079 C 8638 12079 9260 12079 9877 12079 C 9897 12079 9921 12079 9941 12083 C 9985 12093 10025 12108 10041 12161 C 10005 12165 9981 12165 9949 12165 C 9480 12165 9007 12165 8530 12165 C 8498 12165 8462 12165 8430 12172 C 8342 12183 8286 12237 8274 12319 C 8274 12341 8274 12358 8274 12380 C 8274 12867 8274 13361 8274 13852 C 8274 13877 8274 13902 8282 13927 C 8298 13995 8342 14035 8414 14049 C 8434 14053 8454 14056 8474 14056 C 8735 14063 8991 14074 9252 14085 C 9496 14092 9745 14103 9989 14114 C 10005 14117 10025 14117 10041 14121 Z M 10041 14121 "/>
<path style=" stroke:none;fill-rule:evenodd;fill:rgb(81.960785%,81.960785%,81.960785%);fill-opacity:1;" d="M 10053 12222 C 10053 12391 10053 12552 10053 12720 C 9476 12713 8907 12710 8334 12702 C 8330 12684 8326 12670 8326 12656 C 8326 12552 8326 12452 8326 12348 C 8326 12326 8330 12308 8334 12287 C 8350 12251 8382 12226 8426 12222 C 8450 12222 8474 12222 8498 12222 C 8983 12222 9472 12222 9961 12222 C 9993 12222 10017 12222 10053 12222 Z M 10053 12222 "/>
<path style=" stroke:none;fill-rule:evenodd;fill:rgb(100%,100%,100%);fill-opacity:1;" d="M 8821 12890 C 8905 12926 8957 12987 8953 13076 C 8949 13187 8953 13288 8953 13395 C 8953 13417 8953 13438 8949 13467 C 8813 13488 8689 13478 8564 13463 C 8548 13417 8544 12901 8560 12833 C 8576 12833 8592 12829 8604 12833 C 8677 12851 8749 12865 8821 12890 Z M 8821 12890 "/>
<path style=" stroke:none;fill-rule:evenodd;fill:rgb(100%,100%,100%);fill-opacity:1;" d="M 9456 13050 C 9460 13175 9460 13304 9460 13433 C 9460 13447 9452 13458 9448 13469 C 9352 13490 9127 13483 9059 13462 C 9059 13250 9059 13043 9059 12821 C 9099 12828 9139 12828 9171 12838 C 9236 12860 9300 12878 9364 12910 C 9424 12939 9456 12989 9456 13050 Z M 9456 13050 "/>
<path style=" stroke:none;fill-rule:evenodd;fill:rgb(100%,100%,100%);fill-opacity:1;" d="M 9849 12889 C 9945 12924 9989 12989 9989 13086 C 9985 13193 9989 13308 9989 13419 C 9989 13483 9981 13487 9909 13490 C 9821 13490 9733 13490 9640 13487 C 9608 13487 9584 13480 9552 13476 C 9552 13243 9552 13014 9552 12792 C 9576 12803 9596 12817 9624 12821 C 9696 12846 9773 12860 9849 12889 Z M 9849 12889 "/>
<path style=" stroke:none;fill-rule:evenodd;fill:rgb(81.960785%,81.960785%,81.960785%);fill-opacity:1;" d="M 12735 13721 C 12735 13728 12735 13731 12735 13739 C 12735 13803 12731 13807 12654 13803 C 12458 13799 12262 13792 12065 13789 C 11877 13782 11689 13774 11500 13771 C 11135 13760 10775 13753 10410 13742 C 10290 13739 10290 13739 10290 13635 C 10286 12965 10282 12288 10274 11618 C 10274 11521 10274 11521 10382 11521 C 11123 11511 11865 11500 12606 11493 C 12719 11489 12719 11489 12719 11589 C 12719 11948 12719 12302 12719 12660 C 12723 12660 12731 12660 12731 12660 C 12735 13011 12735 13366 12735 13721 Z M 12266 12847 C 12266 12574 12266 12295 12266 12019 C 12266 11948 12242 11923 12157 11923 C 11668 11923 11175 11923 10682 11923 C 10598 11923 10574 11944 10574 12019 C 10574 12291 10574 12567 10574 12836 C 10574 12911 10590 12929 10678 12929 C 10927 12933 11171 12940 11420 12943 L 11420 12940 C 11656 12943 11897 12947 12133 12951 C 12157 12951 12178 12951 12202 12951 C 12234 12947 12254 12929 12262 12904 C 12262 12882 12266 12865 12266 12847 Z M 12266 12847 "/>
<path style=" stroke:none;fill-rule:evenodd;fill:rgb(0%,0%,0%);fill-opacity:1;" d="M 12270 12018 C 12270 12294 12270 12570 12270 12846 C 12270 12864 12266 12885 12262 12903 C 12254 12932 12234 12946 12202 12949 C 12178 12949 12157 12949 12133 12949 C 11897 12946 11660 12942 11420 12939 L 11420 12942 C 11171 12939 10927 12932 10674 12928 C 10590 12928 10570 12910 10570 12835 C 10570 12559 10570 12290 10570 12018 C 10570 11943 10594 11921 10678 11921 C 11175 11921 11668 11921 12161 11921 C 12242 11921 12270 11947 12270 12018 Z M 12222 12824 C 12222 12566 12222 12308 12222 12054 C 12222 12040 12222 12033 12222 12022 C 12218 11975 12214 11972 12161 11968 C 12153 11968 12145 11968 12133 11968 C 11660 11968 11184 11968 10703 11968 C 10678 11968 10654 11968 10630 11968 C 10614 12018 10610 12810 10630 12874 C 10646 12878 10662 12881 10678 12881 C 11171 12885 11664 12892 12157 12899 C 12214 12899 12218 12896 12222 12846 C 12222 12842 12222 12831 12222 12824 Z M 12222 12824 "/>
<path style=" stroke:none;fill-rule:evenodd;fill:rgb(100%,100%,100%);fill-opacity:1;" d="M 12223 12050 C 12223 12308 12223 12563 12223 12821 C 12223 12828 12223 12835 12223 12846 C 12219 12899 12215 12903 12159 12903 C 11666 12896 11173 12889 10680 12881 C 10664 12881 10648 12881 10632 12878 C 10612 12806 10616 12022 10632 11972 C 10656 11972 10680 11968 10704 11968 C 11185 11968 11662 11968 12135 11968 C 12147 11968 12155 11968 12163 11968 C 12215 11972 12219 11975 12223 12025 C 12223 12029 12223 12040 12223 12050 Z M 12131 12695 C 12131 12505 12131 12316 12131 12126 C 12131 12050 12111 12033 12027 12033 C 11874 12033 11722 12033 11574 12033 C 11422 12033 11269 12033 11117 12033 C 11033 12033 11013 12050 11013 12126 C 11013 12312 11013 12498 11013 12684 C 11013 12752 11033 12770 11105 12770 C 11414 12774 11718 12781 12027 12785 C 12107 12788 12131 12763 12131 12695 Z M 12131 12695 "/>
<path style=" stroke:none;fill-rule:evenodd;fill:rgb(0%,0%,0%);fill-opacity:1;" d="M 12129 12126 C 12129 12316 12129 12506 12129 12696 C 12129 12771 12105 12792 12025 12792 C 11717 12785 11408 12785 11099 12778 C 11027 12778 11007 12757 11007 12685 C 11007 12499 11007 12312 11007 12126 C 11007 12054 11027 12037 11111 12037 C 11264 12037 11416 12037 11568 12037 C 11717 12037 11869 12037 12025 12037 C 12109 12033 12129 12051 12129 12126 Z M 12065 12742 C 12085 12653 12077 12208 12061 12162 C 12045 12162 12025 12158 12001 12158 C 11761 12158 11520 12158 11288 12158 C 11204 12158 11192 12169 11192 12244 C 11192 12380 11192 12520 11192 12656 C 11192 12681 11200 12699 11200 12724 C 11492 12735 11777 12739 12065 12742 Z M 12065 12742 "/>
<path style=" stroke:none;fill-rule:evenodd;fill:rgb(100%,100%,100%);fill-opacity:1;" d="M 12057 12165 C 12077 12215 12081 12656 12065 12745 C 11777 12738 11492 12735 11200 12731 C 11196 12706 11192 12684 11192 12667 C 11192 12527 11192 12391 11192 12251 C 11192 12172 11204 12161 11284 12161 C 11520 12161 11765 12161 12001 12161 C 12021 12161 12041 12161 12057 12165 Z M 12057 12165 "/>
<path style=" stroke:none;fill-rule:evenodd;fill:rgb(80.784315%,80.784315%,80.784315%);fill-opacity:1;" d="M 12755 8606 C 12755 8646 12755 8685 12755 8721 C 12755 8764 12751 8771 12703 8771 C 12550 8782 12398 8785 12246 8793 C 11913 8810 11572 8825 11240 8839 C 11123 8843 11007 8850 10887 8853 C 10867 8853 10843 8853 10811 8853 C 10811 8821 10811 8800 10811 8778 C 10811 7757 10811 6737 10811 5716 C 10811 5683 10811 5655 10819 5626 C 10843 5547 10895 5497 10987 5486 C 11123 5469 11260 5454 11396 5440 C 11596 5418 11805 5397 12009 5375 C 12234 5350 12462 5318 12691 5293 C 12711 5289 12731 5293 12755 5293 C 12759 5325 12763 5358 12763 5386 C 12755 6461 12755 7535 12755 8606 Z M 12755 8606 "/>
<path style=" stroke:none;fill-rule:evenodd;fill:rgb(0%,0%,0%);fill-opacity:1;" d="M 17436 17538 L 17432 17588 C 17372 17581 17308 17577 17248 17570 C 17212 17567 17184 17577 17160 17592 C 16923 17721 16687 17849 16450 17978 C 16045 18197 15641 18415 15240 18641 C 15103 18716 14963 18745 14807 18727 C 14578 18706 14354 18691 14129 18670 C 13825 18641 13528 18609 13224 18577 C 13007 18555 12787 18530 12570 18501 C 12482 18491 12394 18480 12306 18469 L 12314 18423 C 12667 18469 13023 18509 13380 18548 C 13853 18598 14330 18638 14807 18680 C 14831 18684 14859 18680 14887 18680 C 14891 18663 14895 18648 14895 18634 C 14899 18530 14903 18426 14903 18322 C 14911 17953 14915 17581 14923 17216 C 14927 16571 14915 15933 14895 15288 C 14895 15271 14891 15253 14887 15231 C 13837 15185 12787 15134 11733 15074 L 11733 15027 C 12005 15045 12278 15059 12550 15074 C 12947 15095 13344 15113 13741 15131 C 14145 15152 14554 15170 14959 15185 C 14971 15185 14987 15185 15011 15181 C 15011 15145 15015 15117 15011 15084 C 15011 15048 15027 15027 15063 15016 C 15164 14988 15256 14955 15352 14927 C 15460 14891 15448 14909 15448 14801 C 15440 13376 15440 11947 15436 10521 C 15432 9966 15428 9418 15428 8863 C 15428 8809 15420 8752 15420 8694 C 15392 8694 15372 8691 15352 8691 L 15352 8648 C 15380 8648 15408 8648 15436 8655 C 15504 8673 15568 8694 15633 8716 C 15645 8723 15665 8730 15665 8737 C 15669 8784 15709 8780 15745 8791 C 15917 8830 16093 8870 16266 8909 C 16422 8941 16578 8981 16739 9009 C 16851 9035 16959 8956 16967 8852 C 16971 8834 16971 8820 16971 8802 C 16971 7613 16971 6420 16971 5231 C 16971 5209 16967 5191 16967 5163 C 15580 5309 14198 5456 12815 5603 L 12811 5564 C 14202 5417 15580 5270 16967 5123 C 16967 3540 16967 1967 16967 391 L 17023 391 C 17023 402 17023 409 17023 420 C 17023 1960 17023 3504 17023 5044 C 17023 5062 17019 5080 17023 5102 C 17023 5112 17031 5127 17035 5130 C 17075 5152 17112 5180 17164 5191 C 17164 5159 17164 5134 17164 5109 C 17164 3712 17164 2315 17164 918 C 17164 896 17164 875 17164 854 C 17168 807 17180 793 17228 782 C 17248 775 17272 771 17292 764 L 17304 821 C 17292 821 17280 825 17264 828 C 17248 832 17232 854 17232 868 C 17228 896 17228 925 17228 950 C 17228 3977 17228 6996 17228 10016 C 17228 12480 17228 14941 17228 17402 C 17228 17423 17228 17445 17228 17470 C 17228 17495 17244 17509 17272 17513 C 17332 17527 17384 17531 17436 17538 Z M 17172 9683 C 17172 9651 17172 9626 17172 9597 C 17172 8182 17172 6764 17172 5349 C 17172 5331 17172 5309 17172 5291 C 17168 5281 17164 5266 17156 5263 C 17116 5241 17083 5213 17023 5205 C 17023 5238 17023 5259 17023 5288 C 17023 6448 17023 7609 17023 8769 C 17023 8802 17023 8830 17023 8859 C 17011 8988 16887 9077 16743 9063 C 16707 9060 16671 9049 16631 9045 C 16342 8977 16057 8913 15769 8848 C 15741 8841 15713 8838 15681 8834 C 15681 8852 15677 8863 15677 8870 C 15677 9038 15677 9203 15677 9371 C 15677 9418 15681 9418 15737 9429 C 16194 9514 16651 9597 17107 9679 C 17128 9683 17144 9683 17172 9683 Z M 17172 9683 "/>
<path style=" stroke:none;fill-rule:evenodd;fill:rgb(0%,0%,0%);fill-opacity:1;" d="M 19272 2254 C 19312 2289 19332 2329 19332 2382 C 19328 2400 19332 2422 19332 2440 C 19332 7096 19332 11746 19332 16402 C 19332 16563 19336 16542 19192 16628 C 18679 16939 18166 17247 17653 17559 C 17600 17591 17552 17605 17492 17598 C 17472 17591 17448 17591 17428 17588 L 17436 17537 C 17464 17541 17492 17541 17520 17545 C 17564 17548 17568 17537 17576 17502 C 17576 17491 17576 17480 17576 17469 C 17576 17082 17580 16699 17584 16316 C 17588 15155 17596 13995 17596 12838 C 17596 10166 17596 7497 17592 4825 C 17588 3615 17580 2411 17576 1197 C 17576 1086 17576 971 17576 857 C 17576 835 17572 814 17568 792 C 17552 789 17536 785 17524 785 C 17456 799 17384 814 17312 832 L 17296 774 C 17320 771 17340 767 17360 763 C 17392 756 17428 746 17468 738 C 17456 724 17452 713 17444 703 C 17336 592 17228 481 17124 369 C 17120 362 17112 355 17103 352 C 17087 348 17063 341 17047 344 C 17035 344 17027 369 17023 380 C 17023 387 17023 395 17023 405 L 16967 405 C 16967 384 16967 369 16967 348 C 16943 352 16923 355 16903 355 C 16639 409 16370 455 16101 506 C 15140 685 14178 860 13216 1036 C 13143 1050 13079 1072 13019 1111 C 12879 1204 12815 1329 12815 1483 C 12815 1895 12815 2300 12815 2708 C 12811 3550 12811 4396 12807 5237 L 12759 5237 C 12759 5209 12759 5184 12759 5158 C 12759 3944 12759 2726 12759 1509 C 12759 1462 12759 1412 12771 1369 C 12815 1183 12939 1054 13147 1003 C 13312 964 13480 939 13648 907 C 14382 771 15119 638 15853 502 C 16246 430 16639 359 17035 287 C 17087 276 17128 294 17160 330 C 17272 448 17388 570 17504 688 C 17524 710 17540 728 17572 731 C 17596 735 17621 760 17641 778 C 18009 1111 18374 1444 18743 1781 C 18919 1931 19096 2092 19272 2254 Z M 19272 2254 "/>
<path style=" stroke:none;fill-rule:evenodd;fill:rgb(80.784315%,80.784315%,80.784315%);fill-opacity:1;" d="M 16967 399 C 16967 1978 16967 3547 16967 5130 C 15580 5277 14202 5424 12807 5571 C 12807 5539 12807 5514 12807 5488 C 12807 5402 12807 5317 12807 5231 C 12811 4389 12815 3547 12815 2702 C 12815 2293 12815 1889 12815 1480 C 12815 1326 12879 1201 13019 1108 C 13079 1068 13143 1047 13216 1033 C 14178 857 15136 674 16097 499 C 16362 449 16631 402 16903 352 C 16923 345 16943 345 16967 341 C 16967 363 16967 381 16967 399 Z M 16967 399 "/>
<path style=" stroke:none;fill-rule:evenodd;fill:rgb(100%,100%,100%);fill-opacity:1;" d="M 17442 693 C 17446 704 17454 715 17466 729 C 17426 740 17390 747 17358 754 C 17334 758 17314 761 17294 769 C 17278 772 17254 776 17230 783 C 17181 794 17169 812 17165 854 C 17165 876 17165 897 17165 919 C 17165 2316 17165 3713 17165 5110 C 17165 5138 17165 5163 17165 5192 C 17113 5181 17077 5156 17037 5131 C 17029 5128 17025 5113 17025 5103 C 17021 5085 17025 5067 17025 5049 C 17025 3501 17025 1965 17025 421 C 17025 410 17025 403 17025 392 C 17025 382 17025 378 17025 367 C 17029 353 17037 332 17049 332 C 17065 328 17085 335 17105 339 C 17113 342 17117 349 17125 357 C 17222 471 17334 582 17442 693 Z M 17442 693 "/>
<path style=" stroke:none;fill-rule:evenodd;fill:rgb(100%,100%,100%);fill-opacity:1;" d="M 17593 4824 C 17597 7496 17601 10164 17597 12836 C 17597 13997 17589 15157 17585 16314 C 17581 16701 17581 17084 17577 17471 C 17577 17482 17577 17489 17577 17500 C 17573 17539 17565 17550 17521 17543 C 17493 17543 17461 17539 17433 17539 C 17381 17532 17329 17529 17277 17521 C 17249 17521 17233 17504 17233 17478 C 17233 17457 17233 17435 17233 17414 C 17233 14950 17233 12485 17233 10025 C 17233 7005 17233 3986 17233 962 C 17233 934 17229 905 17237 880 C 17237 862 17253 841 17269 837 C 17281 834 17293 834 17309 830 C 17381 816 17453 801 17525 787 C 17537 783 17553 787 17569 791 C 17573 816 17577 834 17577 855 C 17577 970 17577 1084 17577 1199 C 17581 2410 17589 3617 17593 4824 Z M 17593 4824 "/>
<path style=" stroke:none;fill-rule:evenodd;fill:rgb(0%,0%,0%);fill-opacity:1;" d="M 15372 14858 C 15372 14861 15372 14868 15372 14872 C 15360 14875 15348 14879 15332 14879 C 15308 14886 15288 14890 15264 14890 C 15015 14879 14767 14861 14514 14847 C 14226 14829 13941 14807 13657 14789 C 13440 14779 13232 14764 13015 14750 C 12731 14732 12446 14714 12157 14696 C 11941 14682 11725 14668 11508 14653 C 11224 14635 10939 14618 10654 14600 C 10622 14596 10586 14603 10554 14607 C 10350 14643 10141 14678 9937 14718 C 9785 14743 9813 14718 9809 14858 C 9809 14908 9813 14908 9865 14915 C 9965 14918 10065 14929 10165 14936 C 10598 14965 11031 14994 11464 15019 C 11552 15026 11644 15029 11733 15033 L 11733 15076 C 11095 15040 10458 15001 9821 14954 C 9817 14994 9817 15022 9817 15051 C 9817 15538 9817 16029 9817 16519 C 9817 17007 9817 17497 9817 17988 C 9817 18056 9817 18056 9893 18067 C 10398 18149 10903 18232 11412 18307 C 11713 18353 12013 18393 12314 18432 L 12306 18479 C 12045 18447 11785 18411 11524 18371 C 11163 18321 10803 18264 10442 18207 C 9684 18088 8935 17949 8197 17762 C 7849 17676 7504 17580 7179 17444 C 7091 17411 7007 17365 6923 17325 C 6851 17297 6823 17243 6823 17175 C 6827 16999 6823 16824 6823 16645 C 6823 16623 6823 16602 6823 16577 C 6795 16580 6779 16580 6759 16584 C 6390 16670 6025 16752 5660 16842 C 5532 16874 5408 16914 5276 16924 C 4995 16953 4718 16953 4446 16881 C 4382 16863 4322 16831 4257 16806 C 4237 16795 4213 16785 4189 16785 C 3965 16756 3736 16727 3508 16702 C 3219 16666 2931 16634 2642 16598 C 2350 16562 2057 16530 1768 16494 C 1728 16491 1684 16487 1648 16484 C 1576 16473 1552 16448 1552 16387 C 1552 16373 1552 16358 1552 16344 C 1552 15613 1552 14886 1552 14155 C 1552 14152 1552 14145 1552 14141 C 1552 14044 1552 14044 1660 14044 C 1668 14044 1676 14044 1684 14044 C 1692 14041 1704 14034 1704 14027 C 1704 14019 1696 14005 1688 14005 C 1664 13998 1640 13998 1616 13994 C 1564 13987 1552 13976 1552 13933 C 1552 13919 1552 13905 1552 13890 C 1552 12952 1552 12014 1552 11075 C 1552 11068 1552 11061 1552 11050 C 1552 10982 1556 10975 1632 10975 C 1648 10975 1664 10975 1680 10971 C 1688 10971 1692 10957 1708 10935 C 1664 10935 1640 10935 1620 10935 C 1568 10935 1552 10921 1552 10874 C 1552 10663 1552 10452 1552 10237 C 1552 10190 1564 10183 1616 10180 C 1676 10180 1676 10180 1700 10162 C 1684 10137 1660 10147 1640 10147 C 1564 10147 1552 10140 1552 10072 C 1552 9435 1552 8790 1552 8149 C 1552 8088 1564 8073 1632 8070 C 2021 8041 2406 8013 2795 7984 C 3199 7955 3608 7923 4017 7894 C 4177 7884 4334 7855 4494 7837 C 4678 7819 4863 7816 5047 7826 C 5203 7833 5360 7844 5516 7869 C 5596 7880 5680 7894 5761 7916 C 6923 8238 8089 8557 9256 8883 C 9328 8919 9404 8919 9476 8915 L 9484 8965 C 9464 8965 9444 8965 9424 8969 C 9228 8980 9031 8994 8831 9008 C 8562 9026 8298 9044 8033 9062 C 7789 9076 7548 9087 7304 9105 C 7191 9112 7079 9130 6967 9152 C 6887 9166 6887 9173 6887 9241 C 6887 10907 6887 12572 6887 14234 C 6887 14259 6887 14281 6891 14309 C 8117 14388 9344 14467 10566 14546 C 10570 14528 10574 14517 10574 14506 C 10574 14417 10574 14327 10574 14234 L 10622 14234 C 10622 14381 10626 14521 10634 14553 C 12210 14653 13789 14754 15372 14858 Z M 10358 14592 C 10358 14585 10354 14582 10354 14575 C 9195 14503 8041 14428 6879 14352 C 6879 14413 6879 14467 6879 14528 C 6967 14553 7055 14582 7143 14596 C 7376 14635 7608 14682 7841 14711 C 8185 14757 8530 14789 8875 14825 C 9091 14847 9312 14865 9528 14879 C 9604 14886 9680 14890 9761 14897 C 9761 14829 9765 14764 9769 14700 C 9969 14664 10161 14628 10358 14592 Z M 9757 17970 C 9757 16971 9757 15975 9753 14976 C 9753 14969 9749 14965 9749 14958 C 9749 14954 9745 14954 9741 14954 C 9741 14954 9741 14951 9737 14947 C 9717 14943 9696 14940 9672 14936 C 9472 14918 9272 14904 9071 14886 C 8610 14850 8153 14804 7700 14739 C 7436 14700 7175 14661 6923 14585 C 6911 14582 6899 14585 6879 14582 C 6879 14610 6879 14635 6879 14664 C 6879 15488 6879 16312 6879 17136 C 6879 17157 6879 17175 6879 17196 C 6879 17229 6895 17254 6927 17272 C 6963 17290 6999 17311 7035 17325 C 7304 17451 7580 17537 7865 17616 C 8382 17762 8903 17873 9432 17977 C 9532 17995 9636 18017 9741 18031 C 9749 18020 9749 18017 9749 18013 C 9757 17999 9757 17988 9757 17970 Z M 5656 13941 C 5656 13930 5656 13919 5656 13908 C 5656 13468 5656 13024 5656 12579 C 5656 12139 5656 11695 5656 11254 C 5656 11233 5656 11215 5656 11193 C 5656 11165 5644 11150 5608 11147 C 5520 11140 5504 11150 5504 11229 C 5504 11236 5504 11240 5504 11240 C 5504 12135 5504 13031 5504 13926 C 5504 13941 5500 13962 5504 13980 C 5512 13994 5524 14009 5536 14016 C 5616 14037 5656 14012 5656 13941 Z M 5504 16817 C 5540 16813 5564 16792 5560 16756 C 5560 16745 5560 16734 5560 16724 C 5560 15932 5560 15137 5560 14342 C 5560 14320 5556 14299 5556 14274 C 5127 14309 4710 14292 4290 14231 C 4286 14259 4282 14288 4282 14313 C 4282 14664 4282 15019 4282 15373 C 4282 15810 4282 16251 4282 16688 C 4282 16745 4302 16777 4358 16795 C 4366 16799 4374 16802 4382 16806 C 4506 16849 4638 16874 4775 16885 C 4899 16896 5027 16892 5151 16881 C 5272 16863 5388 16842 5504 16817 Z M 5560 8023 C 5560 8005 5560 7987 5560 7973 C 5556 7934 5548 7923 5496 7919 C 5340 7905 5179 7887 5023 7876 C 4795 7859 4570 7876 4346 7916 C 4294 7927 4290 7934 4286 7980 C 4286 7995 4286 8013 4286 8027 C 4286 8339 4286 8647 4286 8958 C 4286 9277 4286 9599 4286 9918 C 4286 9983 4290 9986 4358 9983 C 4470 9983 4578 9975 4686 9975 C 4947 9975 5203 9983 5460 9983 C 5560 9986 5560 9986 5560 9897 C 5560 9273 5560 8643 5560 8023 Z M 5516 11089 C 5552 11079 5560 11068 5560 11032 C 5560 11000 5544 10989 5512 10986 C 5332 10975 5155 10953 4975 10953 C 4771 10946 4566 10960 4366 10964 C 4294 10968 4290 10975 4290 11039 C 4290 11254 4290 11473 4290 11688 C 4290 11695 4290 11698 4290 11705 C 4290 11745 4298 11748 4346 11748 C 4354 11748 4358 11748 4366 11748 C 4562 11734 4758 11745 4951 11759 C 4975 11763 4999 11766 5023 11774 C 5023 11802 5023 11831 5023 11863 L 4967 11863 C 4967 11834 4955 11820 4927 11817 C 4911 11817 4895 11813 4879 11813 C 4706 11813 4530 11813 4354 11817 C 4286 11820 4286 11824 4286 11888 C 4286 12404 4286 12920 4286 13432 C 4286 13496 4286 13500 4358 13500 C 4522 13511 4682 13514 4847 13518 C 4947 13521 4971 13521 4971 13468 L 5023 13468 C 5023 13504 5023 13539 5023 13575 C 4779 13586 4538 13593 4294 13575 C 4290 13600 4290 13618 4290 13636 C 4290 13758 4290 13880 4290 14001 C 4290 14062 4294 14062 4358 14077 C 4362 14077 4366 14080 4370 14080 C 4574 14123 4783 14145 4999 14145 C 5163 14145 5324 14141 5488 14116 C 5512 14112 5540 14112 5560 14087 C 5540 14059 5508 14066 5480 14062 C 5416 14048 5404 14034 5400 13976 C 5400 13966 5400 13955 5400 13944 C 5400 13031 5400 12114 5400 11200 C 5400 11100 5400 11100 5512 11079 C 5512 11089 5512 11089 5516 11089 Z M 5288 10821 C 5292 10799 5296 10778 5296 10760 C 5284 10756 5272 10753 5264 10749 C 5151 10746 5043 10738 4927 10735 C 4855 10731 4839 10720 4839 10652 C 4839 10520 4839 10387 4839 10255 C 4839 10190 4851 10176 4931 10176 C 5027 10176 5123 10176 5219 10180 C 5235 10180 5251 10180 5268 10176 C 5276 10172 5292 10162 5292 10155 C 5292 10144 5284 10126 5272 10122 C 5260 10115 5243 10115 5223 10115 C 5175 10112 5123 10115 5071 10112 C 4847 10104 4626 10112 4406 10140 C 4342 10147 4334 10155 4334 10212 C 4334 10355 4334 10498 4334 10642 C 4334 10670 4334 10699 4334 10728 C 4338 10767 4346 10774 4390 10778 C 4410 10778 4426 10774 4446 10778 C 4458 10778 4482 10781 4486 10789 C 4510 10828 4546 10821 4582 10821 C 4807 10824 5031 10828 5255 10828 C 5264 10824 5272 10824 5288 10821 Z M 4217 16670 C 4217 15868 4217 15069 4217 14270 C 4217 14249 4213 14227 4209 14202 C 3344 14163 2482 14127 1612 14087 C 1612 14123 1612 14148 1612 14173 C 1612 14467 1612 14757 1612 15051 C 1612 15484 1612 15925 1612 16362 C 1612 16426 1612 16426 1684 16434 C 1833 16451 1981 16469 2125 16487 C 2446 16527 2770 16562 3091 16602 C 3388 16638 3680 16674 3973 16709 C 4049 16717 4129 16727 4213 16734 C 4213 16709 4217 16688 4217 16670 Z M 4213 13507 C 4225 13436 4225 11845 4209 11791 C 4085 11795 3965 11802 3841 11802 C 3724 12082 3724 13281 3845 13486 C 3965 13496 4085 13500 4213 13507 Z M 4205 14055 C 4217 14001 4217 13611 4201 13557 C 4065 13547 3929 13539 3789 13532 C 3781 13500 3772 13475 3768 13446 C 3728 13228 3712 13009 3704 12787 C 3692 12497 3712 12211 3752 11924 C 3760 11870 3777 11813 3789 11759 C 3933 11748 4073 11759 4213 11738 C 4213 11483 4217 11229 4213 10968 C 3344 10986 2482 11007 1616 11028 C 1616 12003 1616 12970 1616 13941 C 1788 13962 4141 14069 4205 14055 Z M 4213 9997 C 4213 9309 4213 8621 4213 7934 C 3344 7995 2482 8059 1616 8124 C 1616 8783 1616 9435 1616 10090 C 1632 10090 1640 10094 1652 10094 C 1752 10094 1849 10094 1949 10090 C 2410 10072 2871 10051 3332 10033 C 3592 10022 3853 10015 4109 10004 C 4141 10008 4173 10004 4213 9997 Z M 4205 10824 C 4205 10817 4205 10814 4205 10810 C 4077 10817 3953 10828 3825 10835 C 3941 10835 4057 10835 4173 10835 C 4181 10835 4193 10828 4205 10824 Z M 3412 10162 L 3412 10158 C 3408 10162 3400 10162 3392 10162 C 3400 10162 3408 10162 3412 10162 Z M 3279 10849 C 3275 10817 3275 10789 3275 10760 C 3275 10609 3275 10455 3275 10305 C 3275 10258 3267 10212 3312 10169 C 2746 10183 2185 10205 1620 10230 C 1620 10448 1620 10656 1620 10878 C 1728 10882 1837 10885 1937 10885 C 2021 10885 2105 10878 2185 10878 C 2538 10867 2887 10864 3235 10853 C 3251 10853 3267 10853 3279 10849 Z M 3279 10849 "/>
<path style=" stroke:none;fill-rule:evenodd;fill:rgb(0%,39.607844%,56.862748%);fill-opacity:1;" d="M 15352 8658 L 15356 8701 C 15300 8701 15244 8705 15184 8709 C 14663 8734 14141 8755 13620 8780 C 13272 8795 12927 8812 12578 8830 C 12097 8852 11616 8870 11135 8891 C 10983 8898 10831 8909 10678 8920 C 10662 8920 10642 8927 10614 8927 C 10614 8956 10614 8974 10614 8995 C 10614 9758 10614 10521 10614 11280 C 10614 11298 10614 11316 10618 11330 C 10622 11338 10630 11356 10642 11356 C 10650 11356 10666 11345 10670 11338 C 10678 11320 10691 11302 10699 11280 L 10743 11298 C 10731 11316 10723 11334 10719 11356 C 10755 11356 10783 11356 10811 11356 C 11151 11352 11492 11348 11833 11345 C 12025 11345 12214 11345 12406 11338 C 12654 11330 12903 11345 13151 11359 C 13232 11366 13276 11402 13280 11474 C 13280 11488 13280 11506 13280 11520 C 13280 11767 13280 12018 13280 12265 C 13280 12785 13280 13304 13280 13823 C 13280 13924 13236 13967 13123 13967 C 12967 13967 12811 13967 12654 13963 C 12270 13949 11885 13931 11504 13913 C 11280 13902 11063 13892 10843 13881 L 10847 13841 C 11091 13852 11336 13863 11580 13874 C 11777 13881 11977 13888 12174 13899 C 12490 13920 12807 13927 13119 13920 C 13204 13917 13224 13899 13228 13827 C 13228 13809 13228 13791 13228 13773 C 13228 13404 13228 13032 13228 12667 C 13228 12287 13228 11911 13228 11535 C 13228 11517 13228 11495 13228 11481 C 13224 11427 13204 11409 13143 11406 C 13107 11402 13075 11402 13043 11399 C 12883 11388 12727 11373 12566 11377 C 12462 11377 12358 11381 12258 11384 C 12085 11384 11913 11388 11745 11388 C 11256 11391 10767 11395 10282 11402 C 10274 11402 10266 11402 10254 11402 C 10193 11406 10165 11431 10157 11481 C 10157 11485 10157 11492 10153 11495 L 10105 11495 C 10109 11399 10141 11377 10266 11345 C 10270 11334 10270 11323 10270 11309 C 10270 11001 10270 10693 10270 10385 C 10270 10299 10250 10220 10198 10145 C 10117 10030 10001 9973 9845 9973 C 9725 9977 9604 9987 9484 9994 C 9308 10002 9135 10009 8955 10016 C 8646 10030 8334 10041 8021 10055 C 7849 10063 7676 10066 7504 10070 C 7416 10073 7328 10077 7240 10080 C 7123 10084 7035 10131 6979 10227 C 6979 10231 6975 10234 6967 10242 C 6991 10152 7059 10098 7155 10073 C 7191 10063 7227 10055 7268 10055 C 7612 10034 7957 10012 8306 9994 C 8755 9973 9199 9951 9648 9930 C 9725 9926 9797 9919 9869 9916 C 9885 9851 9881 8988 9865 8938 C 9845 8938 9817 8934 9793 8938 C 9684 8941 9576 8949 9468 8956 L 9464 8909 C 9520 8902 9576 8898 9628 8891 C 9925 8877 10226 8859 10526 8870 C 10594 8870 10662 8863 10743 8863 C 10743 8827 10743 8802 10743 8773 C 10743 7756 10743 6742 10743 5725 C 10743 5696 10743 5668 10743 5639 C 10751 5531 10827 5449 10947 5428 C 11035 5413 11123 5402 11212 5395 C 11560 5356 11913 5317 12266 5277 C 12414 5263 12562 5245 12707 5227 C 12719 5227 12735 5223 12755 5220 L 12803 5220 C 12803 5306 12803 5392 12803 5478 C 12803 5503 12803 5528 12803 5560 L 12807 5603 C 12807 5625 12803 5635 12803 5642 C 12803 6678 12803 7706 12803 8741 C 12803 8744 12807 8752 12807 8755 C 12807 8759 12807 8759 12811 8762 C 12815 8762 12815 8762 12819 8769 C 12939 8762 13063 8759 13188 8752 C 13568 8734 13953 8716 14334 8698 C 14671 8683 15003 8666 15340 8651 C 15352 8658 15352 8658 15352 8658 Z M 12751 8723 C 12755 8683 12751 8644 12751 8608 C 12751 7534 12751 6463 12751 5385 C 12751 5356 12751 5331 12747 5299 C 12723 5299 12699 5295 12683 5299 C 12454 5324 12226 5349 11997 5374 C 11793 5395 11592 5420 11388 5442 C 11256 5456 11115 5471 10983 5488 C 10891 5499 10839 5549 10815 5628 C 10807 5657 10807 5685 10807 5718 C 10807 6742 10807 7763 10807 8784 C 10807 8805 10807 8827 10807 8859 C 10839 8859 10863 8859 10883 8859 C 11003 8852 11115 8848 11236 8845 C 11568 8830 11901 8812 12238 8798 C 12390 8791 12542 8784 12695 8777 C 12747 8769 12751 8766 12751 8723 Z M 12751 8723 "/>
<path style=" stroke:none;fill-rule:evenodd;fill:rgb(80.784315%,80.784315%,80.784315%);fill-opacity:1;" d="M 16971 5234 C 16971 6430 16971 7620 16971 8812 C 16971 8827 16971 8845 16967 8859 C 16959 8963 16851 9042 16735 9020 C 16578 8988 16418 8952 16262 8916 C 16089 8877 15913 8838 15741 8798 C 15709 8791 15665 8795 15661 8744 C 15661 8741 15641 8730 15629 8726 C 15564 8705 15500 8683 15432 8666 C 15404 8658 15372 8658 15348 8658 C 15344 8658 15344 8658 15340 8658 C 15007 8673 14675 8687 14342 8705 C 13957 8723 13576 8741 13192 8759 C 13067 8766 12947 8769 12827 8773 C 12819 8769 12819 8769 12815 8769 C 12815 8766 12811 8766 12811 8762 C 12807 8755 12807 8752 12807 8744 C 12807 7716 12807 6685 12807 5650 C 12807 5639 12811 5628 12815 5610 C 14198 5463 15576 5317 16967 5170 C 16971 5195 16971 5216 16971 5234 Z M 16971 5234 "/>
<path style=" stroke:none;fill-rule:evenodd;fill:rgb(100%,100%,100%);fill-opacity:1;" d="M 17172 9597 C 17172 9626 17172 9651 17172 9683 C 17144 9683 17128 9683 17107 9679 C 16655 9593 16198 9514 15737 9429 C 15677 9418 15673 9418 15673 9371 C 15673 9203 15673 9038 15673 8870 C 15673 8863 15677 8852 15681 8834 C 15709 8841 15741 8841 15765 8848 C 16057 8916 16346 8981 16631 9045 C 16671 9052 16707 9063 16747 9063 C 16891 9077 17011 8988 17023 8859 C 17027 8830 17027 8802 17027 8769 C 17027 7605 17027 6441 17027 5284 C 17027 5256 17027 5234 17027 5202 C 17083 5209 17120 5238 17160 5259 C 17168 5263 17172 5277 17172 5288 C 17176 5306 17172 5324 17172 5345 C 17172 6764 17172 8178 17172 9597 Z M 17172 9597 "/>
<path style=" stroke:none;fill-rule:evenodd;fill:rgb(54.11765%,78.039217%,86.666667%);fill-opacity:1;" d="M 4221 14268 C 4221 15070 4221 15872 4221 16671 C 4221 16693 4217 16710 4217 16736 C 4133 16728 4053 16718 3977 16710 C 3684 16675 3392 16639 3095 16603 C 2770 16567 2446 16528 2125 16488 C 1977 16470 1829 16453 1684 16435 C 1612 16427 1612 16427 1612 16363 C 1612 15926 1612 15485 1612 15048 C 1612 14755 1612 14461 1612 14171 C 1612 14146 1612 14121 1612 14085 C 2482 14121 3348 14160 4213 14200 C 4217 14225 4221 14246 4221 14268 Z M 3945 15690 C 3949 15682 3949 15679 3953 15672 C 3945 15665 3937 15654 3929 15654 C 3271 15596 2610 15539 1949 15478 C 1941 15478 1933 15485 1913 15496 C 1933 15503 1941 15507 1949 15511 C 2614 15571 3284 15629 3945 15690 Z M 1917 15962 C 1969 15987 3873 16166 3949 16162 C 3945 16134 3921 16134 3901 16130 C 3760 16119 3620 16109 3480 16094 C 3251 16073 3019 16051 2795 16030 C 2570 16008 2354 15987 2133 15965 C 2073 15958 2013 15955 1949 15951 C 1945 15948 1933 15955 1917 15962 Z M 3949 15836 C 3949 15833 3949 15829 3949 15826 C 3937 15819 3925 15815 3909 15811 C 3255 15751 2598 15693 1945 15639 C 1937 15639 1929 15643 1909 15650 C 1929 15661 1937 15668 1945 15668 C 2598 15725 3255 15786 3909 15840 C 3917 15844 3929 15840 3941 15840 C 3945 15840 3949 15836 3949 15836 Z M 3929 15263 C 4013 15174 3993 15013 3893 14941 C 3817 14887 3716 14902 3660 14973 C 3628 15013 3616 15056 3620 15099 C 3620 15167 3640 15224 3688 15267 C 3760 15335 3865 15328 3929 15263 Z M 3937 16012 C 3941 16012 3945 16005 3965 15994 C 3937 15987 3917 15980 3905 15980 C 3251 15919 2598 15858 1949 15797 C 1945 15797 1937 15797 1937 15801 C 1933 15801 1933 15808 1925 15815 C 1941 15819 1953 15826 1969 15829 C 2622 15887 3279 15951 3937 16012 Z M 3933 16496 C 3937 16496 3945 16488 3957 16481 C 3933 16474 3917 16467 3905 16467 C 3700 16442 3492 16417 3292 16395 C 3079 16374 2871 16349 2666 16327 C 2446 16306 2225 16277 2005 16256 C 1981 16252 1953 16256 1929 16256 C 1929 16259 1925 16266 1925 16270 C 1933 16273 1941 16277 1949 16281 C 2606 16349 3271 16424 3933 16496 Z M 3953 16309 C 3945 16306 3937 16299 3929 16299 C 3271 16234 2606 16170 1949 16105 C 1941 16105 1933 16109 1925 16112 C 1925 16116 1925 16119 1925 16123 C 1941 16127 1957 16130 1977 16134 C 2330 16170 2682 16205 3039 16241 C 3324 16270 3608 16295 3889 16324 C 3913 16327 3937 16334 3953 16309 Z M 3336 15210 C 3404 15124 3388 14980 3296 14909 C 3215 14848 3107 14859 3047 14937 C 3019 14973 3007 15016 3007 15059 C 3007 15131 3035 15188 3083 15231 C 3167 15296 3271 15288 3336 15210 Z M 2766 15156 C 2835 15066 2811 14927 2722 14855 C 2646 14801 2550 14808 2490 14877 C 2458 14916 2442 14963 2446 15009 C 2446 15081 2470 15138 2518 15181 C 2598 15245 2706 15235 2766 15156 Z M 2666 14343 C 2666 14296 2626 14250 2582 14250 C 2538 14246 2502 14286 2498 14336 C 2498 14386 2534 14425 2582 14425 C 2626 14429 2666 14393 2666 14343 Z M 2482 14329 C 2486 14278 2446 14235 2402 14232 C 2358 14232 2318 14268 2314 14318 C 2310 14364 2350 14407 2398 14411 C 2442 14414 2482 14375 2482 14329 Z M 2225 15117 C 2298 15027 2277 14884 2181 14808 C 2109 14755 2009 14766 1949 14834 C 1917 14873 1901 14920 1905 14959 C 1905 15034 1925 15091 1981 15138 C 2057 15206 2165 15195 2225 15117 Z M 2201 14346 C 2205 14329 2209 14314 2213 14286 C 2205 14264 2197 14228 2177 14203 C 2121 14132 2017 14142 1977 14221 C 1949 14275 1957 14329 1993 14375 C 2021 14407 2057 14432 2109 14422 C 2161 14418 2185 14386 2201 14346 Z M 2201 14346 "/>
<path style=" stroke:none;fill-rule:evenodd;fill:rgb(0%,39.607844%,56.862748%);fill-opacity:1;" d="M 2218 14290 C 2214 14319 2210 14333 2206 14351 C 2190 14390 2162 14419 2114 14430 C 2062 14437 2026 14415 1997 14379 C 1957 14333 1949 14279 1977 14222 C 2018 14143 2126 14132 2178 14208 C 2202 14229 2210 14268 2218 14290 Z M 2218 14290 "/>
<path style=" stroke:none;fill-rule:evenodd;fill:rgb(0%,0%,0%);fill-opacity:1;" d="M 2402 14232 C 2446 14235 2490 14278 2486 14329 C 2486 14375 2442 14418 2398 14414 C 2350 14411 2310 14364 2314 14318 C 2318 14268 2358 14232 2402 14232 Z M 2402 14357 C 2434 14325 2434 14325 2402 14282 C 2358 14318 2358 14325 2402 14357 Z M 2402 14357 "/>
<path style=" stroke:none;fill-rule:evenodd;fill:rgb(100%,100%,100%);fill-opacity:1;" d="M 2406 14282 C 2438 14329 2438 14329 2406 14361 C 2358 14329 2358 14321 2406 14282 Z M 2406 14282 "/>
<path style=" stroke:none;fill-rule:evenodd;fill:rgb(0%,0%,0%);fill-opacity:1;" d="M 2586 14250 C 2630 14250 2670 14293 2670 14343 C 2670 14397 2630 14433 2586 14429 C 2534 14429 2498 14386 2498 14336 C 2502 14286 2538 14246 2586 14250 Z M 2586 14375 C 2598 14365 2606 14357 2626 14343 C 2606 14325 2594 14314 2586 14304 C 2578 14314 2558 14325 2558 14332 C 2558 14347 2574 14361 2586 14375 Z M 2586 14375 "/>
<path style=" stroke:none;fill-rule:evenodd;fill:rgb(0%,0%,0%);fill-opacity:1;" d="M 15276 12328 C 15332 12485 15332 12647 15304 12811 C 15288 12901 15260 12990 15212 13073 C 15168 13137 15111 13170 15023 13170 C 14763 13166 14498 13166 14238 13170 C 14210 13170 14186 13173 14154 13173 C 14154 13205 14154 13230 14154 13252 C 14154 13445 14150 13639 14154 13829 C 14154 14047 13953 14280 13653 14287 C 13428 14294 13208 14294 12987 14284 C 12554 14269 12129 14248 11701 14230 C 11496 14223 11296 14212 11091 14205 C 10963 14198 10859 14158 10775 14072 C 10723 14026 10691 13976 10670 13915 C 10666 13897 10662 13879 10634 13886 C 10626 13907 10622 14072 10622 14237 L 10570 14237 C 10570 14137 10570 14033 10570 13929 C 10570 13886 10566 13882 10518 13879 C 10478 13879 10434 13875 10394 13875 L 10394 13829 C 10402 13829 10410 13829 10414 13829 C 10558 13836 10707 13843 10851 13847 L 10847 13886 C 10807 13886 10763 13886 10711 13886 C 10723 13918 10731 13940 10743 13965 C 10819 14087 10931 14147 11083 14155 C 11388 14169 11693 14180 11997 14194 C 12226 14205 12454 14215 12679 14223 C 12867 14230 13051 14237 13240 14237 C 13276 14237 13316 14230 13348 14215 C 13524 14133 13620 13993 13620 13818 C 13628 13388 13632 12962 13632 12536 C 13632 12195 13628 11851 13624 11508 C 13620 11332 13528 11200 13360 11106 C 13316 11085 13272 11071 13220 11071 L 13220 11028 C 13244 11028 13260 11028 13276 11028 C 13392 11028 13504 11024 13620 11028 C 13677 11028 13733 11035 13785 11049 C 13985 11106 14162 11282 14154 11508 C 14150 11694 14154 11880 14154 12066 C 14154 12088 14154 12109 14158 12134 C 14186 12138 14206 12138 14230 12138 C 14510 12138 14795 12138 15079 12138 C 15136 12138 15180 12156 15208 12199 C 15240 12242 15264 12281 15276 12328 Z M 15256 12622 C 15264 12507 15244 12396 15200 12292 C 15196 12271 15180 12245 15168 12228 C 15119 12174 15019 12170 14975 12228 C 14943 12271 14915 12317 14895 12364 C 14827 12546 14815 12733 14863 12915 C 14879 12973 14911 13026 14939 13084 C 14959 13116 14991 13127 15035 13127 C 15107 13127 15144 13087 15168 13033 C 15228 12897 15264 12761 15256 12622 Z M 15256 12622 "/>
<path style=" stroke:none;fill-rule:evenodd;fill:rgb(54.11765%,78.039217%,86.666667%);fill-opacity:1;" d="M 15450 14812 C 15450 14920 15466 14898 15358 14934 L 15334 14880 C 15346 14877 15362 14877 15374 14873 C 15374 14869 15374 14862 15374 14859 C 13795 14758 12211 14651 10632 14551 C 10624 14515 10616 14375 10616 14232 C 10616 14071 10624 13902 10632 13881 C 10656 13877 10664 13895 10668 13909 C 10688 13970 10720 14024 10768 14071 C 10857 14149 10965 14189 11085 14196 C 11289 14207 11494 14214 11698 14221 C 12127 14243 12556 14264 12985 14278 C 13205 14286 13430 14286 13654 14278 C 13947 14271 14151 14042 14151 13827 C 14151 13634 14151 13440 14151 13250 C 14151 13225 14151 13200 14151 13172 C 14183 13168 14207 13164 14231 13164 C 14496 13164 14761 13164 15021 13164 C 15109 13168 15165 13136 15209 13071 C 15258 12989 15286 12899 15302 12806 C 15330 12645 15330 12480 15274 12323 C 15258 12280 15233 12237 15205 12194 C 15177 12154 15133 12136 15077 12136 C 14793 12136 14512 12136 14227 12133 C 14203 12133 14183 12133 14155 12133 C 14151 12108 14151 12086 14151 12065 C 14151 11879 14143 11692 14151 11506 C 14155 11277 13979 11105 13787 11048 C 13734 11030 13674 11026 13622 11022 C 13506 11019 13394 11022 13278 11022 C 13261 11022 13241 11022 13221 11022 C 13213 11022 13205 11022 13197 11022 C 13197 10990 13197 10962 13197 10940 C 13197 10611 13197 10281 13197 9951 C 13197 9937 13197 9919 13197 9905 C 13197 9876 13189 9855 13157 9848 C 13117 9837 13113 9815 13117 9783 C 13117 9647 13117 9511 13117 9375 C 13117 9364 13117 9350 13117 9339 C 13117 9303 13097 9285 13061 9278 C 13053 9278 13041 9278 13033 9274 C 12985 9267 12937 9264 12889 9257 C 12869 9257 12845 9253 12817 9249 C 12817 9217 12813 9181 12813 9149 C 12813 9120 12801 9099 12768 9099 C 12708 9092 12644 9081 12588 9081 C 12524 9081 12468 9085 12408 9092 C 12336 9103 12332 9110 12328 9174 C 12328 9199 12328 9221 12328 9249 C 12288 9257 12247 9260 12211 9264 C 12203 9264 12199 9267 12191 9267 C 12067 9285 12063 9289 12063 9396 C 12063 9429 12063 9457 12059 9486 C 12059 9493 12055 9497 12055 9507 C 12031 9514 12007 9522 11979 9529 C 11750 9590 11526 9661 11310 9754 C 11257 9780 11205 9808 11157 9837 C 10997 9941 10913 10080 10885 10252 C 10873 10335 10865 10417 10849 10496 C 10833 10582 10809 10668 10784 10754 C 10764 10825 10732 10894 10716 10969 C 10696 11051 10688 11133 10736 11209 C 10724 11234 10712 11255 10700 11280 C 10688 11298 10680 11320 10668 11334 C 10664 11345 10648 11356 10640 11352 C 10632 11352 10620 11338 10616 11330 C 10612 11313 10616 11298 10616 11280 C 10616 10517 10616 9758 10616 8995 C 10616 8974 10616 8952 10616 8927 C 10640 8923 10660 8916 10680 8916 C 10833 8909 10985 8898 11137 8891 C 11618 8870 12095 8848 12576 8827 C 12929 8812 13278 8795 13626 8780 C 14143 8755 14664 8730 15185 8709 C 15241 8705 15298 8701 15354 8698 C 15374 8698 15394 8701 15422 8701 C 15422 8759 15430 8816 15430 8873 C 15430 9425 15438 9973 15438 10528 C 15442 11950 15450 13379 15450 14812 Z M 15450 14812 "/>
<path style=" stroke:none;fill-rule:evenodd;fill:rgb(0%,0%,0%);fill-opacity:1;" d="M 13224 11026 L 13224 11073 C 13224 11073 13220 11073 13216 11073 C 12835 11080 12454 11087 12073 11094 C 11745 11101 11408 11112 11079 11119 C 11003 11119 10931 11141 10867 11184 C 10819 11216 10775 11255 10751 11305 L 10707 11288 C 10719 11266 10731 11241 10747 11216 C 10695 11141 10707 11055 10723 10976 C 10743 10904 10771 10833 10791 10761 C 10815 10675 10839 10589 10859 10503 C 10875 10424 10879 10342 10895 10260 C 10923 10088 11003 9944 11163 9844 C 11212 9812 11264 9780 11320 9758 C 11536 9669 11761 9593 11989 9532 C 12017 9529 12045 9518 12065 9511 C 12069 9500 12069 9497 12069 9493 C 12069 9461 12073 9432 12073 9403 C 12077 9292 12077 9285 12206 9271 C 12210 9271 12218 9267 12222 9267 L 12230 9314 C 12198 9314 12161 9321 12129 9335 C 12129 9353 12129 9364 12129 9378 C 12129 9386 12133 9386 12133 9393 C 12446 9364 12755 9353 13067 9393 C 13067 9375 13067 9357 13067 9335 C 13055 9332 13043 9328 13035 9325 L 13039 9282 C 13051 9285 13059 9285 13071 9285 C 13107 9289 13127 9310 13123 9346 C 13123 9357 13123 9368 13123 9378 C 13123 9514 13123 9651 13123 9790 C 13123 9823 13127 9844 13168 9855 C 13196 9862 13204 9883 13204 9912 C 13204 9926 13204 9944 13204 9959 C 13204 10292 13204 10621 13204 10947 C 13204 10976 13204 11001 13204 11033 C 13208 11026 13216 11026 13224 11026 Z M 13059 9815 C 13059 9697 13059 9583 13059 9471 C 13059 9443 13039 9436 13003 9446 C 13003 9489 13003 9532 13003 9579 C 13003 9643 13003 9708 13003 9776 C 13003 9801 13007 9823 13059 9815 Z M 12815 9737 C 12819 9651 12819 9561 12815 9475 C 12815 9432 12803 9421 12751 9418 C 12558 9407 12366 9414 12174 9436 C 12125 9443 12121 9446 12121 9493 C 12121 9590 12121 9683 12121 9776 C 12121 9790 12125 9805 12129 9819 C 12145 9819 12161 9819 12178 9819 C 12230 9815 12282 9808 12330 9805 C 12466 9805 12602 9805 12735 9805 C 12799 9805 12815 9794 12815 9737 Z M 12061 9830 C 12061 9740 12061 9651 12061 9561 C 12045 9565 12033 9561 12025 9565 C 11777 9629 11532 9704 11300 9808 C 11115 9894 10983 10023 10943 10213 C 10935 10249 10927 10281 10923 10317 C 10907 10514 10867 10707 10787 10890 C 10783 10901 10783 10911 10779 10926 C 10767 10969 10755 11012 10755 11055 C 10751 11094 10751 11141 10783 11180 C 10795 11173 10803 11169 10807 11162 C 10895 11101 10991 11073 11099 11073 C 11352 11069 11612 11065 11865 11058 C 11901 11058 11937 11055 11985 11055 C 11985 11022 11985 11001 11985 10976 C 11985 10628 11985 10281 11985 9926 C 11985 9883 11993 9851 12045 9840 C 12053 9837 12057 9833 12061 9830 Z M 12061 9830 "/>
<path style=" stroke:none;fill-rule:evenodd;fill:rgb(100%,100%,100%);fill-opacity:1;" d="M 13059 9333 C 13059 9354 13059 9372 13059 9390 C 12743 9351 12434 9361 12125 9390 C 12117 9383 12117 9383 12117 9379 C 12117 9365 12117 9351 12117 9333 C 12149 9315 12186 9308 12218 9308 C 12242 9304 12262 9304 12282 9301 C 12526 9286 12771 9290 13015 9318 C 13019 9318 13023 9318 13027 9318 C 13035 9322 13047 9326 13059 9333 Z M 13059 9333 "/>
<path style=" stroke:none;fill-rule:evenodd;fill:rgb(0%,0%,0%);fill-opacity:1;" d="M 13035 9278 L 13027 9321 C 13023 9321 13019 9321 13015 9321 C 12771 9292 12522 9289 12282 9303 C 12262 9307 12238 9307 12218 9310 L 12214 9264 C 12250 9260 12290 9257 12330 9253 C 12330 9224 12330 9199 12330 9174 C 12330 9110 12334 9103 12410 9095 C 12466 9081 12530 9081 12586 9081 C 12646 9081 12707 9092 12767 9099 C 12799 9103 12811 9120 12811 9149 C 12811 9181 12815 9214 12815 9249 C 12843 9253 12867 9253 12887 9260 C 12935 9264 12987 9271 13035 9278 Z M 13035 9278 "/>
<path style=" stroke:none;fill-rule:evenodd;fill:rgb(100%,100%,100%);fill-opacity:1;" d="M 12819 9476 C 12819 9562 12819 9652 12819 9741 C 12815 9799 12799 9810 12735 9810 C 12602 9810 12466 9810 12330 9810 C 12278 9810 12226 9820 12174 9824 C 12161 9824 12145 9824 12125 9824 C 12125 9810 12117 9795 12117 9781 C 12117 9684 12117 9591 12117 9494 C 12117 9448 12125 9444 12174 9437 C 12370 9416 12558 9408 12755 9419 C 12807 9423 12815 9433 12819 9476 Z M 12819 9476 "/>
<path style=" stroke:none;fill-rule:evenodd;fill:rgb(100%,100%,100%);fill-opacity:1;" d="M 13059 9476 C 13059 9591 13059 9702 13059 9820 C 13003 9827 12999 9802 12999 9781 C 12999 9713 12999 9648 12999 9584 C 12999 9537 12999 9494 12999 9448 C 13035 9437 13059 9444 13059 9476 Z M 13059 9476 "/>
<path style=" stroke:none;fill-rule:evenodd;fill:rgb(0%,0%,0%);fill-opacity:1;" d="M 12787 13712 C 12787 13727 12787 13745 12787 13759 C 12783 13823 12755 13849 12679 13849 C 12514 13849 12350 13841 12186 13834 C 12001 13831 11817 13823 11632 13820 C 11256 13809 10879 13798 10502 13788 C 10470 13788 10446 13784 10418 13784 C 10390 13784 10362 13784 10334 13780 C 10274 13777 10246 13752 10242 13698 C 10242 13687 10242 13673 10242 13662 C 10238 12975 10230 12290 10226 11606 C 10226 11488 10238 11477 10366 11474 C 10839 11467 11312 11459 11789 11452 C 11945 11452 12105 11449 12262 11449 C 12382 11445 12498 11442 12614 11442 C 12634 11442 12654 11442 12675 11442 C 12735 11445 12767 11477 12775 11531 C 12775 11549 12775 11567 12775 11585 C 12775 11943 12775 12301 12775 12656 C 12779 12656 12783 12656 12787 12656 C 12787 13007 12787 13361 12787 13712 Z M 12735 13738 C 12735 13730 12735 13727 12735 13720 C 12735 13365 12735 13007 12735 12652 C 12731 12652 12727 12652 12723 12652 C 12723 12294 12723 11939 12723 11585 C 12723 11485 12723 11485 12610 11488 C 11865 11495 11123 11506 10382 11517 C 10278 11517 10274 11517 10278 11613 C 10282 12283 10286 12957 10294 13630 C 10294 13734 10294 13734 10414 13738 C 10775 13745 11139 13755 11504 13766 C 11693 13770 11877 13780 12065 13784 C 12262 13791 12462 13795 12658 13798 C 12731 13806 12735 13798 12735 13738 Z M 12735 13738 "/>
<path style=" stroke:none;fill-rule:evenodd;fill:rgb(81.960785%,81.960785%,81.960785%);fill-opacity:1;" d="M 13236 13777 C 13236 13795 13236 13813 13236 13831 C 13232 13903 13212 13921 13127 13924 C 12807 13931 12490 13924 12178 13903 C 11981 13892 11781 13888 11584 13878 C 11340 13867 11099 13860 10851 13849 C 10707 13842 10562 13835 10418 13831 L 10418 13784 C 10446 13784 10478 13784 10502 13784 C 10883 13795 11256 13806 11636 13817 C 11821 13820 12005 13827 12186 13835 C 12354 13838 12518 13845 12679 13849 C 12751 13849 12783 13824 12783 13756 C 12783 13741 12783 13724 12783 13709 C 12783 13358 12783 13007 12783 12656 C 12779 12656 12775 12656 12771 12656 C 12771 12298 12771 11940 12771 11585 C 12771 11567 12771 11546 12771 11528 C 12767 11474 12731 11446 12675 11442 C 12654 11438 12630 11442 12610 11442 C 12498 11442 12382 11442 12266 11446 L 12266 11381 C 12370 11381 12474 11377 12574 11374 C 12735 11370 12895 11392 13055 11399 C 13091 11399 13123 11403 13155 11403 C 13216 11410 13236 11428 13240 11478 C 13240 11496 13240 11517 13240 11531 C 13240 11911 13240 12291 13240 12667 C 13236 13039 13236 13408 13236 13777 Z M 13236 13777 "/>
<path style=" stroke:none;fill-rule:evenodd;fill:rgb(81.960785%,81.960785%,81.960785%);fill-opacity:1;" d="M 13624 11502 C 13628 11843 13636 12187 13636 12530 C 13636 12957 13628 13386 13624 13813 C 13620 13995 13524 14128 13348 14210 C 13316 14225 13276 14235 13240 14232 C 13051 14232 12867 14225 12679 14217 C 12454 14210 12230 14196 11997 14185 C 11693 14174 11388 14160 11079 14146 C 10931 14142 10815 14078 10743 13960 C 10731 13938 10723 13913 10711 13884 C 10763 13884 10803 13881 10843 13884 C 11063 13895 11284 13906 11504 13917 C 11885 13931 12274 13949 12658 13967 C 12815 13970 12971 13970 13127 13967 C 13240 13967 13284 13927 13284 13827 C 13284 13304 13284 12785 13284 12265 C 13284 12018 13284 11767 13284 11520 C 13284 11506 13284 11488 13284 11470 C 13280 11399 13240 11363 13155 11359 C 12907 11341 12658 11330 12410 11334 C 12218 11341 12025 11341 11833 11345 C 11492 11348 11151 11352 10811 11356 C 10783 11356 10755 11356 10719 11356 C 10723 11334 10731 11316 10743 11298 C 10771 11245 10811 11209 10859 11176 C 10923 11133 10995 11112 11071 11108 C 11404 11105 11733 11094 12061 11087 C 12446 11080 12831 11073 13212 11065 L 13216 11065 C 13268 11065 13312 11076 13356 11098 C 13532 11194 13624 11323 13624 11502 Z M 13624 11502 "/>
<path style=" stroke:none;fill-rule:evenodd;fill:rgb(100%,100%,100%);fill-opacity:1;" d="M 15198 12290 C 15242 12398 15258 12505 15254 12620 C 15262 12760 15230 12896 15170 13028 C 15146 13086 15110 13121 15030 13125 C 14986 13125 14954 13114 14938 13078 C 14910 13021 14878 12967 14861 12910 C 14813 12724 14821 12538 14890 12358 C 14910 12312 14938 12265 14974 12222 C 15018 12165 15118 12165 15166 12222 C 15182 12244 15194 12265 15198 12290 Z M 15198 12290 "/>
<path style=" stroke:none;fill-rule:evenodd;fill:rgb(100%,100%,100%);fill-opacity:1;" d="M 2626 14343 C 2602 14357 2590 14368 2578 14379 C 2570 14361 2558 14346 2554 14332 C 2554 14325 2570 14314 2578 14303 C 2590 14314 2602 14325 2626 14343 Z M 2626 14343 "/>
<path style=" stroke:none;fill-rule:evenodd;fill:rgb(0%,0%,0%);fill-opacity:1;" d="M 2190 14813 C 2286 14885 2302 15035 2234 15125 C 2170 15200 2066 15211 1989 15143 C 1933 15096 1909 15039 1909 14967 C 1905 14924 1921 14877 1957 14838 C 2018 14766 2114 14756 2190 14813 Z M 2218 14999 C 2214 14946 2202 14903 2166 14867 C 2102 14809 2018 14824 1985 14892 C 1949 14967 1957 15035 2014 15092 C 2062 15150 2146 15146 2186 15085 C 2202 15060 2206 15028 2218 14999 Z M 2218 14999 "/>
<path style=" stroke:none;fill-rule:evenodd;fill:rgb(100%,100%,100%);fill-opacity:1;" d="M 2164 14866 C 2200 14902 2212 14945 2216 14995 C 2204 15028 2200 15063 2180 15089 C 2140 15149 2060 15153 2008 15096 C 1952 15035 1944 14963 1976 14895 C 2016 14820 2100 14809 2164 14866 Z M 2164 14866 "/>
<path style=" stroke:none;fill-rule:evenodd;fill:rgb(0%,0%,0%);fill-opacity:1;" d="M 2727 14856 C 2819 14928 2839 15068 2771 15161 C 2707 15240 2599 15250 2519 15182 C 2470 15139 2446 15078 2446 15007 C 2442 14964 2458 14917 2491 14878 C 2551 14810 2647 14799 2727 14856 Z M 2755 15032 C 2747 14982 2735 14939 2695 14906 C 2631 14856 2555 14867 2519 14928 C 2482 14992 2495 15089 2547 15139 C 2599 15193 2675 15189 2719 15128 C 2739 15100 2747 15064 2755 15032 Z M 2755 15032 "/>
<path style=" stroke:none;fill-rule:evenodd;fill:rgb(100%,100%,100%);fill-opacity:1;" d="M 2692 14904 C 2732 14940 2752 14979 2760 15033 C 2748 15065 2736 15101 2720 15129 C 2680 15187 2600 15190 2548 15140 C 2495 15086 2479 14986 2524 14925 C 2560 14861 2636 14850 2692 14904 Z M 2692 14904 "/>
<path style=" stroke:none;fill-rule:evenodd;fill:rgb(0%,0%,0%);fill-opacity:1;" d="M 3296 14910 C 3388 14982 3404 15128 3336 15214 C 3276 15290 3172 15300 3092 15236 C 3040 15193 3016 15136 3012 15060 C 3008 15021 3020 14978 3056 14939 C 3112 14860 3220 14846 3296 14910 Z M 3264 15200 C 3304 15171 3316 15128 3316 15085 C 3316 15035 3304 14992 3264 14957 C 3208 14903 3140 14910 3096 14964 C 3044 15032 3064 15143 3128 15197 C 3172 15236 3220 15236 3264 15200 Z M 3264 15200 "/>
<path style=" stroke:none;fill-rule:evenodd;fill:rgb(100%,100%,100%);fill-opacity:1;" d="M 3316 15091 C 3316 15134 3304 15173 3264 15205 C 3220 15238 3172 15238 3132 15202 C 3060 15152 3048 15037 3096 14969 C 3140 14912 3212 14908 3268 14958 C 3304 14990 3316 15037 3316 15091 Z M 3316 15091 "/>
<path style=" stroke:none;fill-rule:evenodd;fill:rgb(0%,0%,0%);fill-opacity:1;" d="M 3889 14941 C 3993 15017 4013 15174 3929 15267 C 3861 15335 3756 15339 3684 15271 C 3636 15224 3616 15171 3616 15102 C 3616 15056 3628 15013 3660 14974 C 3716 14902 3813 14888 3889 14941 Z M 3929 15131 C 3925 15070 3901 15024 3849 14988 C 3793 14945 3736 14959 3700 15013 C 3656 15074 3668 15181 3724 15235 C 3777 15278 3841 15278 3881 15228 C 3901 15203 3909 15163 3929 15131 Z M 3929 15131 "/>
<path style=" stroke:none;fill-rule:evenodd;fill:rgb(100%,100%,100%);fill-opacity:1;" d="M 3851 14982 C 3907 15022 3927 15072 3931 15129 C 3915 15161 3907 15201 3883 15226 C 3843 15276 3771 15276 3723 15233 C 3663 15179 3651 15072 3695 15011 C 3735 14954 3795 14943 3851 14982 Z M 3851 14982 "/>
<path style=" stroke:none;fill-rule:evenodd;fill:rgb(81.960785%,81.960785%,81.960785%);fill-opacity:1;" d="M 5565 16757 C 5573 16793 5549 16814 5512 16818 C 5396 16843 5276 16868 5152 16879 C 5027 16893 4903 16893 4775 16882 C 4643 16872 4510 16847 4382 16804 C 4378 16804 4370 16796 4358 16796 C 4306 16775 4282 16743 4286 16689 C 4290 16248 4286 15811 4286 15367 C 4286 15013 4286 14662 4286 14307 C 4286 14282 4290 14257 4290 14228 C 4711 14289 5132 14307 5565 14268 C 5565 14296 5565 14318 5565 14339 C 5565 15131 5565 15930 5565 16725 C 5565 16736 5565 16746 5565 16757 Z M 5396 16306 C 5396 16288 5396 16270 5396 16252 C 5396 16023 5396 15790 5396 15561 C 5396 15317 5396 15077 5396 14837 C 5396 14819 5396 14798 5392 14780 C 5388 14748 5364 14726 5328 14726 C 5244 14723 5164 14726 5080 14730 C 5043 14730 5023 14755 5019 14787 C 5015 14805 5019 14823 5019 14844 C 5019 15113 5019 15382 5019 15654 C 5019 15865 5019 16080 5019 16291 C 5019 16356 5039 16374 5112 16377 C 5176 16377 5240 16377 5312 16377 C 5364 16377 5392 16356 5396 16306 Z M 5396 16306 "/>
<path style=" stroke:none;fill-rule:evenodd;fill:rgb(0%,0%,0%);fill-opacity:1;" d="M 5396 16252 C 5396 16270 5396 16288 5396 16306 C 5392 16356 5368 16377 5312 16377 C 5243 16377 5179 16377 5115 16377 C 5039 16374 5019 16356 5019 16291 C 5019 16080 5019 15865 5019 15654 C 5019 15385 5019 15113 5019 14844 C 5019 14826 5019 14805 5019 14787 C 5023 14755 5043 14730 5079 14730 C 5167 14726 5247 14726 5328 14726 C 5364 14726 5384 14748 5392 14780 C 5396 14798 5396 14819 5396 14837 C 5396 15077 5396 15321 5396 15561 C 5396 15790 5396 16023 5396 16252 Z M 5396 16252 "/>
<path style=" stroke:none;fill-rule:evenodd;fill:rgb(100%,100%,100%);fill-opacity:1;" d="M 10358 14572 C 10358 14579 10362 14583 10362 14590 C 10165 14622 9973 14662 9773 14697 C 9769 14766 9765 14830 9765 14898 C 9680 14891 9604 14891 9528 14884 C 9312 14866 9091 14851 8875 14830 C 8530 14791 8185 14755 7841 14712 C 7608 14680 7376 14637 7143 14594 C 7055 14579 6967 14551 6879 14526 C 6879 14465 6879 14414 6879 14354 C 8041 14425 9195 14500 10358 14572 Z M 10358 14572 "/>
<path style=" stroke:none;fill-rule:evenodd;fill:rgb(100%,100%,100%);fill-opacity:1;" d="M 15330 14874 L 15354 14928 C 15258 14960 15162 14993 15065 15021 C 15025 15032 15009 15050 15013 15089 C 15013 15122 15009 15154 15009 15190 C 14989 15190 14973 15193 14957 15193 C 14552 15175 14147 15157 13743 15139 C 13342 15118 12949 15100 12552 15079 C 12280 15064 12011 15046 11739 15032 C 11646 15028 11558 15021 11466 15018 C 11037 14989 10604 14960 10167 14932 C 10067 14925 9967 14917 9867 14910 C 9815 14907 9811 14903 9811 14856 C 9811 14713 9783 14742 9939 14713 C 10143 14677 10348 14638 10556 14606 C 10588 14599 10624 14595 10656 14599 C 10941 14616 11226 14634 11510 14652 C 11731 14667 11947 14681 12163 14695 C 12448 14713 12733 14731 13021 14749 C 13234 14763 13446 14774 13658 14788 C 13947 14806 14236 14824 14520 14842 C 14769 14860 15017 14874 15266 14889 C 15286 14885 15306 14882 15330 14874 Z M 15330 14874 "/>
<path style=" stroke:none;fill-rule:evenodd;fill:rgb(0%,0%,0%);fill-opacity:1;" d="M 3953 15672 C 3949 15679 3949 15682 3945 15690 C 3284 15629 2618 15568 1949 15511 C 1941 15511 1933 15503 1913 15493 C 1933 15489 1941 15478 1949 15478 C 2614 15536 3271 15596 3929 15657 C 3937 15657 3945 15668 3953 15672 Z M 3953 15672 "/>
<path style=" stroke:none;fill-rule:evenodd;fill:rgb(0%,0%,0%);fill-opacity:1;" d="M 3949 15826 C 3949 15833 3949 15836 3949 15836 C 3949 15840 3945 15840 3945 15840 C 3933 15844 3921 15847 3913 15844 C 3259 15786 2602 15729 1945 15672 C 1937 15672 1933 15665 1913 15650 C 1933 15639 1937 15636 1945 15636 C 2602 15697 3259 15758 3913 15815 C 3925 15815 3937 15822 3949 15826 Z M 3949 15826 "/>
<path style=" stroke:none;fill-rule:evenodd;fill:rgb(0%,0%,0%);fill-opacity:1;" d="M 3961 15994 C 3945 16005 3937 16012 3933 16012 C 3279 15951 2622 15887 1965 15822 C 1949 15822 1937 15815 1921 15808 C 1925 15801 1925 15797 1933 15793 C 1933 15793 1937 15790 1945 15790 C 2598 15851 3247 15912 3901 15976 C 3917 15983 3933 15987 3961 15994 Z M 3961 15994 "/>
<path style=" stroke:none;fill-rule:evenodd;fill:rgb(0%,0%,0%);fill-opacity:1;" d="M 3953 16162 C 3873 16166 1973 15983 1921 15958 C 1937 15955 1945 15944 1961 15944 C 2021 15948 2081 15951 2141 15958 C 2362 15980 2582 16005 2803 16023 C 3031 16051 3255 16073 3484 16091 C 3624 16105 3764 16116 3905 16130 C 3925 16134 3945 16134 3953 16162 Z M 3953 16162 "/>
<path style=" stroke:none;fill-rule:evenodd;fill:rgb(0%,0%,0%);fill-opacity:1;" d="M 3957 16483 C 3945 16490 3937 16497 3933 16497 C 3271 16426 2610 16347 1945 16275 C 1937 16275 1933 16268 1925 16264 C 1925 16257 1925 16254 1925 16250 C 1949 16250 1977 16246 2001 16250 C 2225 16275 2446 16300 2666 16325 C 2875 16347 3083 16372 3288 16393 C 3492 16418 3696 16443 3901 16465 C 3917 16468 3933 16476 3957 16483 Z M 3957 16483 "/>
<path style=" stroke:none;fill-rule:evenodd;fill:rgb(0%,0%,0%);fill-opacity:1;" d="M 3929 16297 C 3937 16297 3945 16305 3953 16308 C 3933 16337 3913 16330 3893 16326 C 3604 16297 3324 16269 3039 16240 C 2686 16204 2334 16168 1977 16133 C 1961 16129 1945 16125 1925 16122 C 1925 16118 1925 16111 1929 16111 C 1937 16108 1945 16097 1949 16104 C 2610 16168 3267 16233 3929 16297 Z M 3929 16297 "/>
<path style=" stroke:none;fill-rule:evenodd;fill:rgb(54.11765%,78.039217%,86.666667%);fill-opacity:1;" d="M 9757 14973 C 9757 15976 9757 16976 9757 17975 C 9757 17989 9757 18004 9757 18018 C 9757 18021 9753 18021 9745 18036 C 9641 18018 9541 18000 9437 17978 C 8907 17875 8386 17767 7865 17620 C 7585 17538 7304 17452 7040 17330 C 7004 17312 6964 17294 6927 17273 C 6895 17255 6879 17233 6883 17198 C 6883 17180 6883 17158 6883 17140 C 6883 16316 6883 15493 6883 14662 C 6883 14637 6883 14611 6883 14583 C 6899 14583 6915 14583 6927 14586 C 7180 14662 7441 14701 7701 14737 C 8154 14805 8615 14848 9076 14887 C 9276 14905 9477 14920 9681 14937 C 9701 14941 9725 14945 9741 14945 C 9745 14952 9749 14952 9749 14952 C 9749 14952 9749 14955 9753 14955 C 9753 14963 9757 14970 9757 14973 Z M 9653 17169 C 9657 17165 9657 17158 9661 17151 C 9641 17147 9621 17140 9597 17137 C 9501 17119 9400 17101 9300 17079 C 8859 16997 8419 16915 7982 16807 C 7665 16728 7352 16642 7064 16496 C 7052 16492 7036 16492 7024 16492 C 7028 16510 7040 16521 7048 16528 C 7112 16560 7180 16592 7244 16621 C 7501 16721 7769 16796 8042 16857 C 8551 16979 9064 17072 9577 17169 C 9609 17169 9633 17169 9653 17169 Z M 9661 17341 C 9653 17337 9649 17330 9645 17330 C 9617 17323 9585 17316 9553 17309 C 9128 17223 8699 17144 8270 17051 C 7857 16965 7445 16864 7068 16682 C 7056 16675 7040 16675 7020 16671 C 7032 16710 7064 16718 7092 16728 C 7360 16857 7653 16936 7942 17011 C 8354 17115 8767 17198 9180 17273 C 9324 17301 9469 17327 9613 17352 C 9633 17355 9649 17366 9661 17341 Z M 9661 15973 C 9653 15944 9629 15948 9609 15948 C 9384 15915 9160 15887 8932 15854 C 8535 15793 8130 15733 7737 15650 C 7501 15600 7268 15550 7048 15450 C 7044 15446 7032 15453 7020 15453 C 7032 15485 7060 15493 7084 15500 C 7216 15561 7356 15596 7501 15632 C 7909 15725 8318 15797 8731 15858 C 9012 15901 9292 15937 9577 15976 C 9601 15980 9629 15987 9661 15973 Z M 9629 17749 C 9629 17742 9633 17735 9633 17728 C 9613 17724 9589 17717 9569 17713 C 9497 17699 9429 17685 9356 17674 C 8847 17577 8338 17463 7837 17323 C 7573 17248 7312 17165 7072 17044 C 7056 17033 7036 17018 7004 17033 C 7020 17047 7032 17061 7048 17069 C 7096 17094 7148 17119 7200 17140 C 7473 17255 7749 17341 8034 17416 C 8535 17549 9044 17652 9553 17746 C 9577 17746 9605 17746 9629 17749 Z M 9601 16177 C 9621 16177 9645 16191 9665 16159 C 9641 16152 9617 16145 9597 16141 C 9473 16123 9348 16109 9228 16084 C 8803 16012 8382 15940 7954 15858 C 7649 15801 7344 15740 7060 15614 C 7052 15611 7040 15614 7028 15614 C 7028 15622 7024 15625 7020 15629 C 7048 15643 7072 15657 7100 15668 C 7276 15743 7465 15786 7653 15829 C 8106 15933 8563 16012 9020 16084 C 9216 16119 9409 16148 9601 16177 Z M 9589 16796 C 9613 16800 9637 16814 9665 16789 C 9629 16761 9585 16761 9545 16753 C 9000 16653 8459 16553 7917 16417 C 7629 16345 7344 16266 7084 16134 C 7076 16130 7068 16127 7060 16123 C 7048 16123 7036 16123 7024 16123 C 7020 16130 7020 16134 7020 16134 C 7048 16152 7072 16170 7104 16180 C 7368 16309 7657 16388 7946 16460 C 8270 16535 8599 16603 8924 16671 C 9144 16718 9368 16757 9589 16796 Z M 9593 16983 C 9617 16986 9641 16997 9665 16968 C 9633 16961 9609 16954 9585 16950 C 9040 16847 8491 16746 7950 16610 C 7641 16535 7336 16445 7060 16309 C 7052 16306 7040 16306 7028 16302 C 7028 16306 7024 16309 7020 16316 C 7032 16324 7040 16334 7052 16342 C 7124 16374 7192 16410 7260 16438 C 7553 16553 7861 16632 8170 16700 C 8507 16775 8839 16839 9172 16904 C 9312 16933 9453 16958 9593 16983 Z M 9589 16385 C 9613 16388 9637 16395 9665 16367 C 9637 16359 9617 16352 9593 16349 C 9497 16331 9400 16316 9304 16299 C 8811 16216 8318 16119 7833 16008 C 7573 15948 7308 15887 7064 15779 C 7052 15776 7040 15776 7028 15772 C 7024 15779 7020 15783 7020 15790 C 7044 15801 7064 15819 7092 15829 C 7284 15915 7493 15969 7701 16016 C 8098 16102 8503 16184 8907 16263 C 9132 16306 9364 16345 9589 16385 Z M 9585 16589 C 9609 16592 9637 16603 9665 16578 C 9645 16571 9629 16564 9613 16560 C 9485 16535 9356 16513 9228 16492 C 8759 16406 8282 16324 7817 16216 C 7565 16152 7308 16084 7076 15969 C 7060 15962 7044 15962 7028 15955 C 7028 15962 7024 15962 7020 15965 C 7028 15973 7032 15983 7044 15987 C 7064 16001 7092 16012 7116 16023 C 7376 16145 7661 16216 7950 16277 C 8310 16352 8675 16417 9040 16488 C 9216 16524 9400 16556 9585 16589 Z M 9589 15554 C 9613 15557 9641 15564 9661 15543 C 9629 15521 9597 15521 9565 15521 C 9328 15493 9092 15471 8855 15446 C 8459 15399 8058 15349 7665 15271 C 7457 15231 7252 15192 7060 15106 C 7052 15102 7040 15106 7016 15106 C 7048 15142 7084 15156 7124 15170 C 7272 15224 7429 15263 7585 15292 C 7934 15364 8286 15417 8643 15457 C 8956 15485 9272 15521 9589 15554 Z M 9649 17559 C 9629 17527 9605 17527 9581 17524 C 9104 17434 8627 17341 8154 17219 C 7777 17126 7400 17022 7056 16847 C 7044 16843 7028 16843 7016 16839 C 7012 16843 7008 16847 7008 16854 C 7032 16882 7072 16893 7104 16911 C 7284 16997 7473 17065 7665 17119 C 7909 17187 8154 17258 8406 17312 C 8799 17402 9200 17477 9597 17559 C 9617 17567 9629 17559 9649 17559 Z M 9585 15761 C 9609 15761 9633 15768 9669 15747 C 9645 15740 9629 15733 9613 15733 C 9409 15708 9196 15686 8992 15661 C 8535 15607 8074 15546 7621 15453 C 7433 15414 7244 15374 7064 15296 C 7056 15288 7040 15288 7024 15285 C 7032 15328 7064 15331 7088 15342 C 7168 15371 7248 15399 7332 15421 C 7709 15518 8094 15575 8483 15629 C 8727 15661 8972 15690 9216 15718 C 9336 15736 9461 15751 9585 15761 Z M 9585 15761 "/>
<path style=" stroke:none;fill-rule:evenodd;fill:rgb(0%,0%,0%);fill-opacity:1;" d="M 9664 15541 C 9640 15562 9616 15559 9592 15552 C 9276 15519 8955 15483 8638 15451 C 8286 15412 7937 15355 7588 15286 C 7428 15254 7272 15222 7123 15165 C 7087 15150 7051 15140 7015 15100 C 7039 15100 7055 15097 7063 15100 C 7252 15186 7460 15226 7664 15265 C 8057 15340 8458 15390 8855 15437 C 9091 15466 9328 15487 9564 15512 C 9596 15519 9632 15519 9664 15541 Z M 9664 15541 "/>
<path style=" stroke:none;fill-rule:evenodd;fill:rgb(0%,0%,0%);fill-opacity:1;" d="M 9672 15747 C 9640 15772 9612 15761 9588 15761 C 9464 15751 9340 15736 9220 15722 C 8971 15690 8727 15661 8482 15625 C 8097 15571 7712 15518 7336 15421 C 7252 15396 7171 15371 7091 15342 C 7067 15331 7035 15324 7027 15288 C 7043 15292 7059 15292 7067 15296 C 7248 15374 7436 15414 7624 15453 C 8077 15543 8534 15607 8991 15665 C 9199 15690 9408 15711 9616 15733 C 9632 15733 9644 15740 9672 15747 Z M 9672 15747 "/>
<path style=" stroke:none;fill-rule:evenodd;fill:rgb(0%,0%,0%);fill-opacity:1;" d="M 9668 16367 C 9640 16395 9616 16385 9592 16385 C 9368 16345 9131 16306 8903 16263 C 8502 16184 8101 16102 7700 16016 C 7492 15969 7288 15915 7091 15826 C 7067 15815 7043 15797 7019 15786 C 7023 15779 7023 15776 7027 15768 C 7039 15772 7051 15768 7063 15776 C 7308 15887 7572 15948 7837 16008 C 8318 16119 8811 16216 9304 16299 C 9404 16313 9500 16331 9592 16349 C 9620 16352 9640 16363 9668 16367 Z M 9668 16367 "/>
<path style=" stroke:none;fill-rule:evenodd;fill:rgb(0%,0%,0%);fill-opacity:1;" d="M 9612 15948 C 9628 15948 9652 15944 9660 15973 C 9632 15987 9604 15980 9576 15976 C 9296 15937 9011 15897 8727 15858 C 8318 15793 7905 15725 7504 15629 C 7360 15596 7219 15557 7083 15493 C 7063 15482 7031 15478 7023 15450 C 7035 15446 7043 15442 7051 15442 C 7268 15543 7504 15596 7741 15647 C 8133 15733 8530 15793 8931 15851 C 9159 15887 9384 15915 9612 15948 Z M 9612 15948 "/>
<path style=" stroke:none;fill-rule:evenodd;fill:rgb(0%,0%,0%);fill-opacity:1;" d="M 9668 16160 C 9648 16189 9624 16178 9604 16178 C 9412 16149 9220 16120 9023 16088 C 8566 16017 8109 15938 7660 15834 C 7472 15791 7284 15748 7107 15673 C 7079 15658 7055 15640 7027 15630 C 7027 15626 7031 15619 7031 15615 C 7043 15615 7055 15608 7067 15612 C 7348 15741 7652 15802 7957 15863 C 8382 15945 8807 16013 9236 16088 C 9356 16110 9480 16124 9600 16142 C 9620 16146 9644 16153 9668 16160 Z M 9668 16160 "/>
<path style=" stroke:none;fill-rule:evenodd;fill:rgb(0%,0%,0%);fill-opacity:1;" d="M 9588 17527 C 9612 17531 9636 17531 9652 17559 C 9632 17563 9620 17567 9608 17563 C 9208 17481 8803 17405 8410 17316 C 8161 17262 7917 17190 7672 17126 C 7480 17069 7292 17001 7111 16915 C 7079 16897 7043 16882 7015 16854 C 7019 16850 7019 16843 7023 16839 C 7035 16843 7051 16843 7063 16850 C 7412 17026 7785 17130 8165 17226 C 8630 17344 9111 17434 9588 17527 Z M 9588 17527 "/>
<path style=" stroke:none;fill-rule:evenodd;fill:rgb(0%,0%,0%);fill-opacity:1;" d="M 9668 16968 C 9644 17001 9620 16986 9596 16983 C 9456 16954 9316 16933 9175 16904 C 8835 16836 8506 16771 8173 16700 C 7865 16632 7556 16546 7264 16431 C 7195 16402 7127 16370 7055 16334 C 7043 16331 7035 16320 7023 16309 C 7027 16306 7031 16302 7031 16295 C 7043 16299 7055 16299 7063 16302 C 7340 16442 7644 16528 7953 16607 C 8490 16746 9039 16843 9588 16947 C 9612 16954 9636 16961 9668 16968 Z M 9668 16968 "/>
<path style=" stroke:none;fill-rule:evenodd;fill:rgb(0%,0%,0%);fill-opacity:1;" d="M 9668 16578 C 9640 16603 9612 16592 9588 16589 C 9404 16556 9224 16524 9039 16492 C 8674 16420 8314 16356 7953 16277 C 7664 16216 7384 16148 7119 16023 C 7095 16012 7067 16001 7047 15987 C 7035 15980 7031 15969 7023 15962 C 7027 15958 7031 15958 7031 15955 C 7047 15958 7063 15962 7079 15969 C 7316 16084 7568 16155 7821 16216 C 8286 16327 8759 16406 9232 16492 C 9360 16517 9488 16539 9616 16564 C 9632 16564 9648 16571 9668 16578 Z M 9668 16578 "/>
<path style=" stroke:none;fill-rule:evenodd;fill:rgb(0%,0%,0%);fill-opacity:1;" d="M 9668 16791 C 9640 16816 9616 16802 9592 16798 C 9372 16759 9147 16719 8923 16676 C 8598 16608 8274 16540 7953 16465 C 7664 16393 7376 16314 7107 16182 C 7079 16168 7055 16150 7023 16135 C 7027 16132 7027 16128 7031 16125 C 7043 16125 7051 16121 7063 16125 C 7075 16128 7083 16132 7087 16135 C 7352 16268 7636 16350 7925 16422 C 8458 16554 9003 16658 9552 16759 C 9588 16766 9632 16766 9668 16791 Z M 9668 16791 "/>
<path style=" stroke:none;fill-rule:evenodd;fill:rgb(0%,0%,0%);fill-opacity:1;" d="M 9636 17728 C 9636 17735 9632 17739 9632 17746 C 9608 17746 9580 17743 9556 17739 C 9043 17646 8534 17542 8033 17409 C 7749 17334 7468 17248 7203 17137 C 7151 17109 7099 17084 7047 17058 C 7031 17051 7023 17037 7007 17026 C 7035 17008 7055 17026 7075 17033 C 7316 17159 7576 17245 7837 17316 C 8334 17460 8847 17571 9360 17667 C 9428 17678 9500 17692 9568 17707 C 9592 17714 9616 17721 9636 17728 Z M 9636 17728 "/>
<path style=" stroke:none;fill-rule:evenodd;fill:rgb(0%,0%,0%);fill-opacity:1;" d="M 9648 17330 C 9652 17334 9656 17337 9664 17341 C 9652 17366 9632 17355 9620 17355 C 9472 17327 9328 17301 9183 17276 C 8767 17198 8354 17112 7949 17011 C 7656 16940 7368 16861 7099 16728 C 7075 16714 7039 16707 7023 16667 C 7047 16675 7063 16675 7075 16678 C 7448 16864 7861 16961 8274 17051 C 8698 17144 9131 17226 9560 17312 C 9588 17316 9620 17323 9648 17330 Z M 9648 17330 "/>
<path style=" stroke:none;fill-rule:evenodd;fill:rgb(0%,0%,0%);fill-opacity:1;" d="M 9664 17151 C 9660 17158 9660 17165 9656 17169 C 9632 17169 9608 17169 9588 17165 C 9075 17072 8554 16972 8049 16850 C 7777 16786 7508 16714 7252 16614 C 7183 16585 7119 16553 7055 16521 C 7043 16513 7035 16503 7031 16481 C 7043 16485 7063 16485 7071 16488 C 7360 16635 7672 16721 7989 16800 C 8426 16907 8871 16990 9308 17076 C 9408 17097 9508 17112 9608 17130 C 9624 17140 9644 17144 9664 17151 Z M 9664 17151 "/>
<path style=" stroke:none;fill-rule:evenodd;fill:rgb(54.11765%,78.039217%,86.666667%);fill-opacity:1;" d="M 14895 15288 C 14915 15933 14927 16574 14923 17219 C 14919 17588 14911 17957 14903 18326 C 14903 18430 14895 18534 14895 18638 C 14895 18652 14891 18666 14887 18684 C 14859 18684 14831 18688 14807 18684 C 14330 18641 13853 18602 13380 18552 C 13023 18516 12671 18476 12314 18430 C 12013 18390 11713 18351 11412 18304 C 10903 18226 10394 18143 9889 18064 C 9813 18054 9813 18050 9813 17982 C 9813 17495 9813 17001 9813 16510 C 9813 16019 9813 15532 9813 15041 C 9813 15013 9813 14988 9817 14948 C 10454 14995 11095 15034 11729 15070 C 12779 15131 13833 15181 14883 15231 C 14891 15256 14895 15274 14895 15288 Z M 14895 15288 "/>
</g>
</svg>
