<?xml version="1.0" encoding="UTF-8"?>
<svg xmlns="http://www.w3.org/2000/svg" xmlns:xlink="http://www.w3.org/1999/xlink" width="1024pt" height="1024pt" viewBox="0 0 1024 1024" version="1.1">
<g id="surface5013">
<path style=" stroke:none;fill-rule:nonzero;fill:rgb(0%,0%,0%);fill-opacity:1;" d="M 940.121094 335.128906 L 795.90625 479.300781 C 781.660156 493.515625 762.722656 501.351562 742.550781 501.351562 L 742.511719 501.351562 C 722.488281 501.417969 703.273438 493.464844 689.152344 479.265625 L 544.902344 335.089844 C 530.722656 320.964844 522.796875 301.746094 522.894531 281.730469 C 522.894531 261.558594 530.691406 242.585938 544.902344 228.375 L 689.152344 84.199219 C 703.367188 69.949219 722.339844 62.113281 742.511719 62.113281 C 762.722656 62.113281 781.660156 69.949219 795.90625 84.199219 L 940.121094 228.375 C 954.40625 242.621094 962.242188 261.558594 962.242188 281.730469 C 962.242188 301.941406 954.40625 320.878906 940.121094 335.128906 Z M 905.472656 263.019531 L 761.261719 118.84375 C 756.300781 113.878906 749.566406 111.097656 742.550781 111.121094 C 735.519531 111.09375 728.769531 113.875 723.800781 118.84375 L 579.589844 263.019531 C 574.582031 267.960938 571.765625 274.699219 571.765625 281.730469 C 571.765625 288.765625 574.582031 295.503906 579.589844 300.441406 L 723.800781 444.617188 C 734.28125 454.632812 750.78125 454.632812 761.261719 444.617188 L 905.472656 300.441406 C 910.480469 295.503906 913.296875 288.765625 913.296875 281.730469 C 913.296875 274.699219 910.480469 267.960938 905.472656 263.019531 Z M 404.328125 961.851562 L 150.625 961.851562 C 101.804688 961.765625 62.25 922.214844 62.167969 873.394531 L 62.167969 619.839844 C 62.210938 571.003906 101.789062 531.425781 150.625 531.386719 L 404.328125 531.386719 C 453.164062 531.425781 492.742188 571.003906 492.78125 619.839844 L 492.78125 873.394531 C 492.78125 922.140625 453.109375 961.8125 404.328125 961.851562 Z M 442.648438 619.839844 C 442.648438 598.691406 425.476562 581.480469 404.328125 581.480469 L 150.660156 581.480469 C 129.476562 581.480469 112.265625 598.691406 112.265625 619.839844 L 112.300781 873.394531 C 112.300781 894.542969 129.476562 911.753906 150.660156 911.753906 L 404.328125 911.753906 C 425.476562 911.753906 442.648438 894.542969 442.648438 873.394531 Z M 404.328125 496.964844 L 150.625 496.964844 C 101.796875 496.902344 62.230469 457.335938 62.167969 408.507812 L 62.167969 154.953125 C 62.230469 106.128906 101.796875 66.5625 150.625 66.5 L 404.328125 66.5 C 427.839844 66.5 450.035156 75.722656 466.796875 92.484375 C 483.460938 108.996094 492.820312 131.496094 492.78125 154.953125 L 492.78125 408.507812 C 492.742188 457.34375 453.164062 496.921875 404.328125 496.964844 Z M 442.648438 154.953125 C 442.648438 133.804688 425.476562 116.59375 404.328125 116.59375 L 150.660156 116.59375 C 129.476562 116.59375 112.265625 133.804688 112.265625 154.953125 L 112.265625 408.507812 C 112.304688 429.691406 129.480469 446.847656 150.660156 446.867188 L 404.328125 446.867188 C 425.476562 446.867188 442.648438 429.65625 442.648438 408.507812 Z M 615.699219 531.386719 L 869.363281 531.386719 C 918.199219 531.425781 957.777344 571.003906 957.820312 619.839844 L 957.820312 873.394531 C 957.820312 922.140625 918.148438 961.8125 869.363281 961.851562 L 615.699219 961.851562 C 566.875 961.765625 527.308594 922.21875 527.203125 873.394531 L 527.203125 619.839844 C 527.265625 571 566.855469 531.425781 615.699219 531.386719 Z M 577.339844 873.394531 C 577.339844 894.542969 594.550781 911.753906 615.699219 911.753906 L 869.363281 911.753906 C 890.511719 911.753906 907.722656 894.542969 907.722656 873.394531 L 907.722656 619.839844 C 907.722656 598.691406 890.511719 581.480469 869.363281 581.480469 L 615.699219 581.480469 C 594.550781 581.480469 577.339844 598.691406 577.339844 619.839844 Z M 577.339844 873.394531 "/>
</g>
</svg>
