<?xml version="1.0" encoding="UTF-8"?>
<svg xmlns="http://www.w3.org/2000/svg" xmlns:xlink="http://www.w3.org/1999/xlink" width="1024pt" height="1024pt" viewBox="0 0 1024 1024" version="1.1">
<g id="surface36">
<path style=" stroke:none;fill-rule:nonzero;fill:rgb(0%,0%,0%);fill-opacity:1;" d="M 796.601562 96 C 724.046875 96 665.246094 154.847656 665.300781 227.398438 C 665.320312 235.25 666.054688 243.082031 667.5 250.800781 L 329.101562 407 C 284.132812 351.882812 203.464844 342.554688 147.109375 385.960938 C 90.75 429.367188 79.167969 509.738281 120.972656 567.289062 C 162.78125 624.84375 242.796875 638.675781 301.5 598.5 L 460.398438 737.699219 C 428.917969 800.195312 451.9375 876.398438 512.753906 911.011719 C 573.570312 945.628906 650.84375 926.507812 688.5 867.53125 C 726.160156 808.550781 710.988281 730.40625 654 689.800781 L 781.601562 357.800781 C 786.578125 358.40625 791.585938 358.707031 796.601562 358.699219 C 844.390625 360.019531 889.128906 335.277344 913.410156 294.09375 C 937.695312 252.910156 937.695312 201.789062 913.410156 160.605469 C 889.128906 119.425781 844.390625 94.679688 796.601562 96 Z M 720.398438 334.199219 L 592.699219 666.199219 C 587.722656 665.59375 582.714844 665.292969 577.699219 665.300781 C 551.25 665.234375 525.402344 673.222656 503.601562 688.199219 L 344.601562 549.101562 C 353.875 530.816406 358.707031 510.601562 358.699219 490.101562 C 358.679688 482.25 357.945312 474.417969 356.5 466.699219 L 694.898438 310.5 C 702.328125 319.480469 710.902344 327.449219 720.398438 334.199219 Z M 491.5 697.601562 L 489.300781 699.601562 Z M 345.800781 433.5 L 346.800781 435.601562 Z M 678.199219 284 L 677.199219 281.898438 Z M 686.101562 298.199219 L 684.398438 295.398438 Z M 339.601562 422 L 337.898438 419.300781 Z M 326.5 576.199219 C 326.109375 576.542969 325.742188 576.910156 325.398438 577.300781 Z M 227.398438 555.800781 C 191.113281 555.800781 161.699219 526.386719 161.699219 490.101562 C 161.699219 453.816406 191.113281 424.398438 227.398438 424.398438 C 263.683594 424.398438 293.101562 453.816406 293.101562 490.101562 C 293.046875 526.363281 263.664062 555.746094 227.398438 555.800781 Z M 313.5 589.101562 C 314.28125 588.488281 315.015625 587.816406 315.699219 587.101562 C 315.015625 587.816406 314.28125 588.488281 313.5 589.101562 Z M 479.699219 709.398438 L 478.601562 710.601562 Z M 577.699219 862.300781 C 541.414062 862.300781 512 832.886719 512 796.601562 C 512 760.316406 541.414062 730.898438 577.699219 730.898438 C 613.984375 730.898438 643.398438 760.316406 643.398438 796.601562 C 643.34375 832.863281 613.960938 862.246094 577.699219 862.300781 Z M 608.300781 669 L 610.699219 669.601562 Z M 624.300781 673.898438 L 625.601562 674.398438 Z M 763.601562 354.398438 L 766.101562 355 Z M 748.699219 349.601562 L 750 350.101562 Z M 796.601562 293.101562 C 760.316406 293.101562 730.898438 263.683594 730.898438 227.398438 C 730.898438 191.113281 760.316406 161.699219 796.601562 161.699219 C 832.886719 161.699219 862.300781 191.113281 862.300781 227.398438 C 862.246094 263.664062 832.863281 293.046875 796.601562 293.101562 Z M 796.601562 293.101562 "/>
</g>
</svg>
