<?xml version="1.0" encoding="UTF-8"?>
<svg xmlns="http://www.w3.org/2000/svg" xmlns:xlink="http://www.w3.org/1999/xlink" width="1024pt" height="1024pt" viewBox="0 0 1024 1024" version="1.1">
<g id="surface18783">
<path style=" stroke:none;fill-rule:nonzero;fill:rgb(0%,0%,0%);fill-opacity:1;" d="M 893.398438 527.101562 L 737.300781 437 L 737.300781 256.699219 C 737.289062 231.988281 724.101562 209.15625 702.699219 196.800781 L 546.601562 106.699219 C 525.199219 94.296875 498.800781 94.296875 477.398438 106.699219 L 321.300781 196.800781 C 299.898438 209.15625 286.710938 231.988281 286.699219 256.699219 L 286.699219 437 L 130.601562 527.101562 C 109.199219 539.457031 96.011719 562.289062 96 587 L 96 767.300781 C 96.011719 792.011719 109.199219 814.84375 130.601562 827.199219 L 286.699219 917.300781 C 308.097656 929.703125 334.5 929.703125 355.898438 917.300781 L 512 827.199219 L 668.101562 917.300781 C 689.5 929.703125 715.902344 929.703125 737.300781 917.300781 L 893.398438 827.199219 C 914.800781 814.84375 927.988281 792.011719 928 767.300781 L 928 587 C 927.988281 562.289062 914.800781 539.457031 893.398438 527.101562 Z M 477.398438 767.300781 L 321.300781 857.398438 L 165.199219 767.300781 L 165.199219 587 L 321.300781 496.898438 L 477.398438 587 Z M 355.898438 437 L 355.898438 256.699219 L 512 166.601562 L 668.101562 256.699219 L 668.101562 437 L 512 527.101562 Z M 858.800781 767.300781 L 702.699219 857.398438 L 546.601562 767.300781 L 546.601562 587 L 702.699219 496.898438 L 858.800781 587 Z M 858.800781 767.300781 "/>
</g>
</svg>
