<?xml version="1.0" encoding="UTF-8"?>
<svg xmlns="http://www.w3.org/2000/svg" xmlns:xlink="http://www.w3.org/1999/xlink" width="1024pt" height="1024pt" viewBox="0 0 1024 1024" version="1.1">
<g id="surface221">
<path style=" stroke:none;fill-rule:nonzero;fill:rgb(0%,0%,0%);fill-opacity:1;" d="M 226.699219 191.101562 L 131.699219 191.101562 C 118.511719 190.402344 106.015625 197.039062 99.214844 208.355469 C 92.410156 219.675781 92.410156 233.824219 99.214844 245.144531 C 106.015625 256.460938 118.511719 263.097656 131.699219 262.398438 L 226.699219 262.398438 C 239.886719 263.097656 252.382812 256.460938 259.1875 245.144531 C 265.988281 233.824219 265.988281 219.675781 259.1875 208.355469 C 252.382812 197.039062 239.886719 190.402344 226.699219 191.101562 Z M 393.101562 262.398438 L 892.300781 262.398438 C 905.488281 263.097656 917.984375 256.460938 924.785156 245.144531 C 931.589844 233.824219 931.589844 219.675781 924.785156 208.355469 C 917.984375 197.039062 905.488281 190.402344 892.300781 191.101562 L 393.101562 191.101562 C 374.144531 192.105469 359.289062 207.765625 359.289062 226.75 C 359.289062 245.734375 374.144531 261.394531 393.101562 262.398438 Z M 226.699219 381.300781 L 131.699219 381.300781 C 118.511719 380.601562 106.015625 387.238281 99.214844 398.558594 C 92.410156 409.875 92.410156 424.023438 99.214844 435.34375 C 106.015625 446.660156 118.511719 453.296875 131.699219 452.601562 L 226.699219 452.601562 C 239.886719 453.296875 252.382812 446.660156 259.1875 435.34375 C 265.988281 424.023438 265.988281 409.875 259.1875 398.558594 C 252.382812 387.238281 239.886719 380.601562 226.699219 381.300781 Z M 892.300781 381.300781 L 393.101562 381.300781 C 374.144531 382.304688 359.289062 397.96875 359.289062 416.949219 C 359.289062 435.933594 374.144531 451.59375 393.101562 452.601562 L 892.300781 452.601562 C 905.488281 453.296875 917.984375 446.660156 924.785156 435.34375 C 931.589844 424.023438 931.589844 409.875 924.785156 398.558594 C 917.984375 387.238281 905.488281 380.601562 892.300781 381.300781 Z M 226.699219 571.398438 L 131.699219 571.398438 C 118.511719 570.703125 106.015625 577.339844 99.214844 588.65625 C 92.410156 599.976562 92.410156 614.125 99.214844 625.441406 C 106.015625 636.761719 118.511719 643.398438 131.699219 642.699219 L 226.699219 642.699219 C 239.886719 643.398438 252.382812 636.761719 259.1875 625.441406 C 265.988281 614.125 265.988281 599.976562 259.1875 588.65625 C 252.382812 577.339844 239.886719 570.703125 226.699219 571.398438 Z M 892.300781 571.398438 L 393.101562 571.398438 C 374.144531 572.40625 359.289062 588.066406 359.289062 607.050781 C 359.289062 626.03125 374.144531 641.695312 393.101562 642.699219 L 892.300781 642.699219 C 905.488281 643.398438 917.984375 636.761719 924.785156 625.441406 C 931.589844 614.125 931.589844 599.976562 924.785156 588.65625 C 917.984375 577.339844 905.488281 570.703125 892.300781 571.398438 Z M 226.699219 761.601562 L 131.699219 761.601562 C 118.511719 760.902344 106.015625 767.539062 99.214844 778.855469 C 92.410156 790.175781 92.410156 804.324219 99.214844 815.644531 C 106.015625 826.960938 118.511719 833.597656 131.699219 832.898438 L 226.699219 832.898438 C 239.886719 833.597656 252.382812 826.960938 259.1875 815.644531 C 265.988281 804.324219 265.988281 790.175781 259.1875 778.855469 C 252.382812 767.539062 239.886719 760.902344 226.699219 761.601562 Z M 892.300781 761.601562 L 393.101562 761.601562 C 374.144531 762.605469 359.289062 778.265625 359.289062 797.25 C 359.289062 816.234375 374.144531 831.894531 393.101562 832.898438 L 892.300781 832.898438 C 905.488281 833.597656 917.984375 826.960938 924.785156 815.644531 C 931.589844 804.324219 931.589844 790.175781 924.785156 778.855469 C 917.984375 767.539062 905.488281 760.902344 892.300781 761.601562 Z M 892.300781 761.601562 "/>
</g>
</svg>
