<?xml version="1.0" encoding="UTF-8"?>
<svg xmlns="http://www.w3.org/2000/svg" xmlns:xlink="http://www.w3.org/1999/xlink" width="1041pt" height="1024pt" viewBox="0 0 1041 1024" version="1.1">
<g id="surface227">
<path style=" stroke:none;fill-rule:nonzero;fill:rgb(80.392158%,80.392158%,80.392158%);fill-opacity:1;" d="M 275.453125 746.992188 L 309.691406 746.992188 L 309.691406 840.363281 L 275.453125 840.363281 Z M 275.453125 746.992188 "/>
<path style=" stroke:none;fill-rule:nonzero;fill:rgb(80.392158%,80.392158%,80.392158%);fill-opacity:1;" d="M 315.835938 730.261719 L 315.835938 764.5 L 222.464844 764.5 L 222.464844 730.261719 Z M 731.429688 183.636719 L 765.664062 183.636719 L 765.664062 277.007812 L 731.429688 277.007812 Z M 731.429688 183.636719 "/>
<path style=" stroke:none;fill-rule:nonzero;fill:rgb(80.392158%,80.392158%,80.392158%);fill-opacity:1;" d="M 820.601562 259.050781 L 820.601562 293.289062 L 727.226562 293.289062 L 727.226562 259.050781 Z M 820.601562 259.050781 "/>
<path style=" stroke:none;fill-rule:nonzero;fill:rgb(80.392158%,80.392158%,80.392158%);fill-opacity:1;" d="M 765.664062 683.183594 L 765.664062 261.445312 L 345.484375 261.445312 C 308.132812 261.445312 277.007812 292.570312 277.007812 329.921875 L 277.007812 765.664062 L 681.628906 765.664062 C 728.316406 765.664062 765.664062 728.316406 765.664062 683.183594 Z M 765.664062 683.183594 "/>
<path style=" stroke:none;fill-rule:nonzero;fill:rgb(80.392158%,80.392158%,80.392158%);fill-opacity:1;" d="M 241.214844 328.363281 C 241.214844 270.785156 287.902344 224.097656 345.484375 224.097656 L 765.664062 224.097656 L 765.664062 82.480469 C 765.664062 37.347656 728.316406 0 683.183594 0 L 82.480469 0 C 37.347656 0 0 37.347656 0 82.480469 L 0 681.628906 C 0 726.761719 37.347656 764.109375 82.480469 764.109375 L 241.214844 764.109375 Z M 241.214844 328.363281 "/>
<path style=" stroke:none;fill-rule:nonzero;fill:rgb(80.392158%,80.392158%,80.392158%);fill-opacity:1;" d="M 762.554688 694.078125 L 762.554688 258.335938 L 357.933594 258.335938 C 312.800781 258.335938 275.453125 295.683594 275.453125 340.816406 L 275.453125 762.554688 L 695.636719 762.554688 C 732.984375 762.554688 762.554688 732.984375 762.554688 694.078125 Z M 762.554688 694.078125 "/>
<path style=" stroke:none;fill-rule:nonzero;fill:rgb(80.392158%,80.392158%,80.392158%);fill-opacity:1;" d="M 957.082031 258.335938 L 798.347656 258.335938 L 798.347656 694.078125 C 798.347656 751.660156 751.660156 798.347656 694.078125 798.347656 L 273.898438 798.347656 L 273.898438 941.519531 C 273.898438 986.652344 311.246094 1024 356.375 1024 L 955.527344 1024 C 1000.65625 1024 1038.007812 986.652344 1038.007812 941.519531 L 1038.007812 340.816406 C 1041.117188 295.683594 1003.769531 258.335938 957.082031 258.335938 Z M 957.082031 258.335938 "/>
</g>
</svg>
