<?xml version="1.0" encoding="UTF-8"?>
<svg xmlns="http://www.w3.org/2000/svg" xmlns:xlink="http://www.w3.org/1999/xlink" width="21979pt" height="19016pt" viewBox="0 0 21979 19016" version="1.1">
<g id="surface11">
<path style=" stroke:none;fill-rule:evenodd;fill:rgb(0%,0%,0%);fill-opacity:1;" d="M 1809 663 C 1912 632 1995 653 2068 715 C 2078 726 2088 736 2099 746 C 2088 736 2078 726 2068 715 C 1995 653 1912 632 1819 663 C 1716 705 1643 777 1612 871 C 1581 953 1591 1047 1653 1119 C 1674 1150 1695 1171 1716 1192 C 1695 1171 1664 1150 1643 1119 C 1591 1047 1571 953 1602 871 C 1643 767 1716 694 1809 663 Z M 1809 663 "/>
<path style=" stroke:none;fill-rule:evenodd;fill:rgb(0%,0%,0%);fill-opacity:1;" d="M 1816 670 C 1899 639 1981 659 2054 721 C 2064 732 2075 742 2085 752 C 2095 752 2095 752 2095 763 C 2126 784 2147 804 2168 825 C 2271 918 2365 1011 2458 1115 C 2468 1115 2468 1115 2468 1115 C 2468 1115 2468 1125 2479 1125 C 2489 1136 2499 1156 2520 1167 C 2530 1156 2541 1146 2551 1136 C 2561 1136 2572 1125 2582 1115 C 2706 991 2841 856 2976 732 C 3048 659 3131 607 3235 597 C 3380 566 3514 607 3628 711 C 3711 784 3784 866 3866 939 C 4436 1509 5016 2078 5586 2637 C 5606 2658 5617 2679 5637 2700 L 5648 2710 C 5658 2720 5658 2720 5669 2731 C 5679 2741 5689 2762 5700 2782 C 5814 2969 5782 3186 5637 3342 C 5544 3435 5451 3528 5358 3621 C 5316 3663 5275 3704 5234 3746 C 5223 3756 5202 3777 5192 3797 C 5202 3818 5223 3829 5234 3849 C 5244 3849 5244 3849 5244 3849 C 5337 3953 5441 4056 5544 4150 C 5555 4170 5575 4181 5596 4201 L 5596 4212 L 5606 4212 C 5679 4284 5700 4367 5679 4471 C 5669 4491 5669 4512 5689 4522 C 5689 4533 5689 4533 5700 4543 C 5762 4595 5814 4647 5865 4709 C 5876 4719 5896 4730 5907 4740 C 5927 4761 5959 4781 5979 4812 C 6114 4916 6259 4957 6425 4968 C 6528 4968 6621 4968 6715 4968 C 6725 4947 6735 4926 6735 4906 C 6766 4854 6818 4812 6880 4802 C 6901 4802 6932 4802 6953 4802 C 8341 4802 9749 4802 11148 4802 C 11168 4802 11199 4802 11230 4812 C 11261 4812 11293 4823 11313 4844 C 11324 4854 11324 4854 11324 4854 C 11344 4885 11365 4916 11365 4947 C 11365 5051 11365 5154 11365 5258 C 11355 5330 11313 5382 11241 5403 C 11210 5413 11189 5413 11158 5424 C 11158 5455 11158 5486 11158 5517 C 11158 6325 11158 7132 11158 7940 C 11158 8883 11158 9825 11158 10768 C 11158 11089 11148 11410 11127 11731 C 11116 11959 11096 12187 11075 12415 C 11054 12570 11013 12705 10982 12850 C 10692 13999 10402 15149 10101 16299 C 9956 16899 9801 17479 9656 18070 C 9594 18308 9449 18463 9211 18525 C 8983 18588 8734 18525 8579 18360 C 8569 18349 8569 18349 8558 18339 C 8496 18266 8455 18173 8424 18070 C 8175 17106 7926 16123 7678 15159 C 7460 14310 7253 13461 7036 12611 C 7015 12508 6994 12404 6984 12301 C 6943 11741 6922 11182 6922 10623 C 6922 8924 6922 7226 6922 5527 C 6922 5496 6922 5465 6922 5424 L 6911 5424 C 6849 5413 6808 5403 6766 5372 L 6766 5361 C 6735 5330 6715 5289 6715 5227 C 6715 5216 6715 5216 6715 5216 C 6684 5216 6663 5216 6632 5216 C 6528 5206 6414 5216 6300 5206 C 6093 5175 5907 5092 5741 4947 C 5731 4926 5710 4916 5700 4906 C 5700 4895 5689 4895 5689 4895 C 5627 4833 5575 4781 5513 4719 C 5492 4699 5472 4688 5441 4688 C 5347 4719 5254 4688 5182 4616 C 5182 4616 5182 4605 5171 4605 C 4788 4222 4395 3839 4011 3456 C 3245 2700 2479 1944 1712 1187 C 1691 1167 1660 1146 1650 1125 C 1588 1053 1567 960 1609 877 C 1640 784 1712 711 1816 670 Z M 6808 5237 C 6808 5299 6839 5320 6891 5330 C 6911 5330 6943 5330 6963 5330 C 7657 5330 8341 5330 9045 5330 C 9739 5330 10433 5330 11127 5330 C 11148 5330 11179 5330 11210 5330 C 11220 5330 11220 5320 11230 5320 C 11261 5310 11282 5289 11282 5247 C 11282 5154 11282 5061 11282 4968 C 11282 4926 11251 4895 11210 4895 L 11210 4885 C 11179 4885 11158 4885 11127 4885 C 9749 4885 8351 4885 6963 4885 C 6943 4885 6922 4885 6891 4885 C 6839 4895 6808 4916 6808 4978 C 6808 5061 6808 5154 6808 5237 Z M 6104 5061 C 6290 5144 6497 5134 6694 5123 L 6704 5123 C 6704 5102 6704 5071 6704 5051 C 6694 5051 6694 5051 6684 5051 L 6673 5051 C 6663 5051 6653 5040 6642 5040 C 6570 5040 6508 5040 6435 5040 C 6207 5040 6010 4957 5845 4802 C 5834 4792 5824 4781 5814 4771 C 5803 4761 5793 4750 5782 4740 C 5751 4719 5720 4688 5700 4657 C 5689 4647 5679 4647 5679 4636 C 5658 4616 5637 4605 5617 4585 C 5596 4605 5586 4616 5565 4636 C 5679 4750 5772 4875 5907 4957 C 5959 4989 6021 5030 6083 5051 C 6083 5061 6093 5061 6104 5061 Z M 5379 4616 C 5410 4616 5430 4616 5451 4605 C 5482 4595 5513 4564 5534 4533 C 5575 4491 5596 4450 5596 4409 C 5596 4398 5596 4398 5596 4388 C 5596 4346 5575 4305 5534 4264 C 5461 4191 5389 4119 5316 4046 C 4229 2979 3141 1902 2054 825 C 2033 804 2012 794 1992 773 C 1950 742 1899 721 1836 752 C 1764 773 1722 825 1691 897 C 1681 918 1671 929 1671 949 C 1671 960 1671 970 1671 970 C 1671 1011 1691 1042 1712 1063 C 1733 1094 1754 1115 1785 1136 C 2831 2171 3877 3207 4933 4243 C 5037 4346 5140 4450 5244 4554 C 5265 4564 5275 4574 5285 4585 L 5296 4595 C 5316 4605 5347 4616 5379 4616 Z M 11085 10633 C 11085 9825 11085 9017 11085 8210 C 11085 7329 11085 6449 11085 5569 C 11085 5517 11085 5475 11065 5424 C 9718 5424 8361 5424 7015 5424 C 7005 5455 7005 5475 7005 5496 C 7005 7309 7005 9111 7005 10913 C 7005 11006 7005 11099 7015 11192 C 7025 11514 7046 11845 7067 12166 C 7067 12321 7088 12466 7129 12611 C 7450 13875 7771 15139 8092 16402 C 8227 16951 8372 17500 8506 18049 C 8527 18132 8558 18204 8620 18266 C 8745 18411 8910 18474 9107 18463 C 9356 18443 9521 18277 9584 18059 C 9656 17831 9708 17583 9770 17345 C 10143 15853 10526 14372 10899 12891 C 10940 12725 10992 12560 11003 12384 C 11034 12052 11054 11721 11065 11389 C 11085 11141 11075 10892 11085 10633 Z M 5596 3249 C 5710 3114 5710 2927 5606 2782 C 5586 2762 5565 2741 5544 2720 C 4892 2078 4250 1436 3597 794 C 3576 773 3556 763 3545 742 C 3452 680 3359 649 3245 670 C 3224 670 3204 680 3183 690 L 3172 690 C 3121 711 3069 742 3027 784 C 2893 918 2758 1053 2624 1187 C 2613 1198 2603 1208 2592 1219 C 2592 1219 2592 1229 2582 1229 L 2582 1239 C 3431 2068 4270 2896 5120 3735 C 5140 3715 5161 3704 5171 3684 C 5296 3559 5430 3435 5555 3300 C 5565 3290 5586 3269 5596 3249 Z M 5596 3249 "/>
<path style=" stroke:none;fill-rule:evenodd;fill:rgb(100%,100%,100%);fill-opacity:1;" d="M 5326 4062 C 5398 4134 5471 4207 5543 4279 C 5585 4321 5606 4362 5606 4403 C 5606 4362 5585 4321 5543 4279 C 5471 4207 5398 4134 5326 4072 C 4238 2995 3141 1907 2053 830 C 2032 820 2012 799 1991 778 C 1950 747 1898 737 1836 758 C 1763 789 1722 841 1691 903 C 1680 923 1670 944 1670 955 C 1670 934 1680 923 1691 903 C 1722 830 1763 778 1836 758 C 1898 727 1950 747 1991 778 C 2012 799 2032 810 2053 830 C 3141 1907 4238 2995 5326 4062 Z M 5326 4062 "/>
<path style=" stroke:none;fill-rule:evenodd;fill:rgb(100%,100%,100%);fill-opacity:1;" d="M 5461 4616 C 5440 4627 5419 4627 5388 4627 C 5357 4627 5326 4616 5305 4606 L 5295 4596 C 5285 4585 5274 4575 5253 4565 C 5150 4461 5046 4357 4943 4254 C 3876 3218 2830 2182 1784 1136 C 1753 1116 1732 1095 1711 1064 C 1691 1033 1680 1012 1670 971 C 1670 971 1670 960 1670 950 C 1670 940 1680 919 1691 898 C 1722 836 1763 784 1836 753 C 1898 732 1950 743 1991 774 C 2012 795 2032 815 2053 826 C 3141 1903 4238 2990 5326 4067 C 5398 4130 5471 4202 5543 4275 C 5585 4316 5606 4357 5606 4399 C 5606 4409 5606 4409 5606 4420 C 5606 4461 5585 4502 5543 4544 C 5523 4575 5492 4606 5461 4616 Z M 5461 4616 "/>
<path style=" stroke:none;fill-rule:evenodd;fill:rgb(0%,0%,0%);fill-opacity:1;" d="M 2478 1126 C 2467 1126 2467 1126 2467 1115 C 2467 1126 2467 1126 2478 1126 Z M 2478 1126 "/>
<path style=" stroke:none;fill-rule:evenodd;fill:rgb(0%,0%,0%);fill-opacity:1;" d="M 3234 592 C 3389 571 3524 613 3627 727 C 3710 799 3793 882 3876 955 C 3793 882 3721 799 3638 727 C 3524 613 3389 571 3244 602 C 3141 613 3058 675 2985 747 C 2851 872 2716 1006 2581 1141 C 2571 1141 2561 1151 2550 1151 C 2561 1151 2571 1141 2571 1131 C 2716 1006 2851 872 2975 737 C 3047 665 3141 613 3234 592 Z M 3234 592 "/>
<path style=" stroke:none;fill-rule:evenodd;fill:rgb(100%,100%,100%);fill-opacity:1;" d="M 5616 2789 C 5720 2934 5720 3121 5606 3255 C 5595 3276 5575 3297 5564 3307 C 5440 3431 5305 3566 5181 3690 C 5171 3711 5150 3721 5129 3742 C 4270 2903 3431 2074 2581 1236 C 2592 1225 2592 1225 2592 1225 C 2602 1204 2612 1194 2623 1184 C 2757 1049 2892 914 3027 780 C 3068 738 3120 707 3172 676 L 3182 676 C 3203 676 3223 666 3244 666 C 3348 645 3451 676 3534 738 C 3555 759 3576 769 3586 790 C 4238 1443 4891 2085 5554 2727 C 5575 2748 5595 2768 5616 2789 Z M 5616 2789 "/>
<path style=" stroke:none;fill-rule:evenodd;fill:rgb(100%,100%,100%);fill-opacity:1;" d="M 2633 1188 C 2623 1208 2612 1219 2592 1229 C 2612 1219 2623 1188 2633 1188 Z M 2633 1188 "/>
<path style=" stroke:none;fill-rule:evenodd;fill:rgb(100%,100%,100%);fill-opacity:1;" d="M 5554 2727 C 5575 2748 5595 2768 5616 2789 C 5720 2934 5720 3121 5606 3255 C 5595 3276 5575 3297 5564 3307 C 5575 3297 5595 3276 5606 3255 C 5720 3121 5720 2934 5616 2789 C 5595 2768 5575 2748 5554 2727 C 4891 2074 4238 1432 3586 790 C 3576 769 3555 759 3534 738 C 3451 676 3348 645 3244 666 C 3223 676 3203 676 3182 687 C 3203 676 3223 676 3244 666 C 3358 645 3451 676 3545 738 C 3555 759 3576 769 3596 790 C 4249 1432 4891 2074 5554 2727 Z M 5554 2727 "/>
<path style=" stroke:none;fill-rule:evenodd;fill:rgb(0%,0%,0%);fill-opacity:1;" d="M 5657 2721 L 5637 2700 C 5657 2700 5657 2721 5657 2721 Z M 5657 2721 "/>
<path style=" stroke:none;fill-rule:evenodd;fill:rgb(0%,0%,0%);fill-opacity:1;" d="M 5554 4160 C 5450 4067 5336 3953 5243 3850 C 5347 3953 5450 4067 5554 4160 Z M 5554 4160 "/>
<path style=" stroke:none;fill-rule:evenodd;fill:rgb(0%,0%,0%);fill-opacity:1;" d="M 5595 4202 L 5606 4212 C 5575 4191 5554 4171 5543 4150 C 5554 4160 5575 4191 5595 4202 Z M 5595 4202 "/>
<path style=" stroke:none;fill-rule:evenodd;fill:rgb(100%,100%,100%);fill-opacity:1;" d="M 5295 4595 C 5316 4616 5357 4626 5388 4626 C 5357 4626 5316 4616 5295 4595 Z M 5295 4595 "/>
<path style=" stroke:none;fill-rule:evenodd;fill:rgb(0%,0%,0%);fill-opacity:1;" d="M 5699 4906 C 5637 4844 5575 4782 5523 4720 C 5575 4782 5637 4844 5699 4906 Z M 5699 4906 "/>
<path style=" stroke:none;fill-rule:evenodd;fill:rgb(100%,100%,100%);fill-opacity:1;" d="M 5844 4823 C 6010 4978 6217 5051 6445 5061 C 6517 5061 6579 5061 6652 5061 C 6662 5061 6672 5061 6683 5061 L 6693 5061 C 6703 5061 6703 5061 6714 5061 C 6714 5092 6714 5113 6714 5134 C 6703 5134 6703 5134 6703 5155 C 6507 5155 6300 5165 6113 5082 C 6103 5072 6082 5072 6082 5072 C 6020 5041 5958 5010 5906 4968 C 5771 4885 5678 4761 5564 4657 C 5585 4637 5595 4616 5616 4585 C 5637 4616 5657 4637 5678 4647 C 5678 4657 5688 4657 5699 4668 C 5720 4699 5751 4730 5782 4761 C 5792 4771 5802 4782 5813 4792 C 5823 4802 5833 4813 5844 4823 Z M 5844 4823 "/>
<path style=" stroke:none;fill-rule:evenodd;fill:rgb(0%,0%,0%);fill-opacity:1;" d="M 6424 4978 C 6258 4968 6113 4916 5978 4802 C 5947 4782 5927 4761 5906 4730 C 5927 4761 5947 4782 5978 4802 C 6103 4916 6258 4968 6424 4968 C 6517 4968 6610 4968 6714 4968 C 6724 4947 6724 4937 6735 4916 C 6766 4844 6807 4802 6880 4802 C 6900 4802 6921 4802 6952 4802 C 8350 4802 9748 4802 11136 4802 C 11167 4802 11198 4802 11230 4802 C 11261 4813 11292 4823 11312 4844 C 11292 4823 11261 4813 11230 4802 C 11198 4802 11167 4802 11147 4802 C 9748 4802 8350 4802 6952 4802 C 6931 4802 6900 4802 6880 4802 C 6817 4813 6766 4844 6735 4916 C 6735 4937 6724 4958 6714 4978 C 6621 4978 6527 4978 6424 4978 Z M 6424 4978 "/>
<path style=" stroke:none;fill-rule:evenodd;fill:rgb(100%,100%,100%);fill-opacity:1;" d="M 5906 4958 C 5958 4999 6030 5041 6092 5061 C 6030 5041 5958 4999 5906 4958 Z M 5906 4958 "/>
<path style=" stroke:none;fill-rule:evenodd;fill:rgb(0%,0%,0%);fill-opacity:1;" d="M 12864 4933 C 12977 5026 13102 5088 13236 5130 C 13402 5171 13568 5161 13734 5151 C 13744 5151 13744 5151 13754 5140 C 13754 5120 13754 5099 13754 5078 C 13723 5078 13702 5078 13682 5078 C 13620 5078 13547 5078 13485 5078 C 13288 5068 13122 5016 12967 4902 C 12874 4830 12801 4747 12719 4664 C 12698 4653 12677 4633 12656 4612 C 12646 4622 12636 4622 12636 4633 C 12625 4633 12625 4643 12625 4643 C 12615 4653 12615 4653 12605 4664 C 12615 4674 12615 4685 12625 4695 C 12708 4767 12781 4850 12864 4933 Z M 18415 4985 C 18415 5088 18415 5192 18415 5296 C 18415 5306 18415 5316 18405 5327 C 18384 5389 18343 5430 18270 5441 C 18260 5441 18239 5441 18218 5451 L 18218 5461 C 18218 5472 18208 5492 18208 5503 C 18208 5534 18208 5565 18208 5586 C 18208 7377 18208 9169 18208 10961 C 18208 11230 18187 11510 18177 11779 C 18166 11976 18156 12183 18135 12380 C 18125 12566 18084 12742 18032 12918 C 18021 12960 18011 13001 18001 13043 C 17814 13799 17618 14555 17431 15311 C 17359 15580 17286 15850 17224 16119 C 17214 16140 17214 16160 17203 16181 C 17048 16813 16882 17455 16716 18087 C 16716 18107 16706 18128 16706 18149 C 16644 18387 16499 18542 16271 18615 C 15919 18718 15567 18522 15474 18159 C 15349 17672 15225 17175 15090 16668 C 14862 15756 14624 14835 14396 13913 C 14293 13509 14179 13095 14086 12691 C 14055 12556 14034 12421 14024 12287 C 14003 12017 13992 11748 13972 11479 C 13961 11282 13961 11075 13961 10878 C 13961 9107 13961 7326 13961 5544 C 13961 5513 13961 5492 13961 5451 C 13930 5451 13899 5441 13879 5430 C 13796 5410 13765 5347 13765 5244 C 13734 5233 13713 5233 13692 5233 C 13578 5233 13464 5233 13361 5223 C 13143 5202 12957 5109 12791 4964 C 12708 4892 12636 4819 12563 4747 C 12542 4716 12511 4705 12470 4716 C 12377 4736 12294 4695 12221 4633 C 11973 4384 11735 4146 11486 3908 C 10575 3007 9663 2106 8731 1194 C 8710 1173 8679 1153 8659 1122 C 8607 1059 8586 977 8607 904 C 8617 863 8627 832 8659 801 C 8679 780 8700 759 8721 738 C 8824 635 8980 635 9083 738 C 9104 759 9125 780 9145 801 C 9259 904 9373 1018 9487 1132 C 9497 1142 9518 1163 9539 1184 C 9560 1163 9580 1142 9591 1132 C 9725 997 9860 852 10005 718 C 10160 562 10409 542 10585 676 C 10616 687 10637 707 10668 738 C 11320 1381 11983 2033 12636 2686 C 12719 2748 12770 2831 12791 2934 C 12801 2996 12801 3048 12791 3110 C 12781 3203 12729 3286 12656 3369 C 12532 3493 12397 3628 12273 3763 C 12252 3773 12232 3794 12221 3815 L 12221 3825 C 12232 3846 12252 3866 12263 3877 C 12387 3991 12501 4115 12615 4218 C 12698 4301 12729 4384 12708 4498 C 12698 4529 12708 4550 12729 4571 C 12791 4643 12864 4705 12926 4767 C 13081 4923 13267 4995 13475 4995 C 13547 4995 13630 4995 13702 4995 C 13734 4995 13754 4995 13765 4954 C 13796 4871 13858 4830 13951 4830 C 13961 4830 13972 4830 13982 4830 C 15391 4830 16789 4830 18187 4830 C 18218 4830 18249 4830 18280 4840 C 18363 4861 18415 4912 18415 4985 Z M 18343 5254 C 18343 5192 18343 5120 18343 5057 C 18343 4933 18311 4912 18187 4912 C 17483 4912 16789 4912 16095 4912 C 15401 4912 14697 4912 14003 4912 C 13982 4912 13961 4912 13941 4912 C 13899 4912 13879 4933 13868 4954 C 13858 4954 13858 4954 13858 4964 C 13858 4975 13847 4985 13847 5006 C 13847 5088 13847 5182 13847 5275 C 13858 5327 13879 5358 13930 5358 C 13951 5368 13982 5368 14013 5368 C 15401 5368 16789 5368 18177 5368 C 18187 5368 18208 5368 18229 5368 C 18270 5368 18291 5358 18311 5337 C 18332 5316 18343 5296 18343 5254 Z M 18135 10702 C 18135 9397 18135 8102 18135 6797 C 18135 6393 18135 5990 18135 5575 C 18135 5534 18125 5492 18125 5451 C 16768 5461 15411 5461 14055 5461 C 14055 5461 14055 5472 14055 5482 C 14055 5492 14055 5492 14055 5503 C 14055 5513 14044 5534 14044 5544 C 14044 7118 14055 8693 14044 10267 C 14044 10888 14055 11500 14096 12111 C 14106 12307 14127 12494 14169 12680 C 14386 13519 14593 14358 14811 15197 C 15059 16171 15308 17155 15556 18138 C 15639 18439 15898 18605 16209 18542 C 16312 18522 16395 18480 16468 18418 C 16478 18408 16489 18397 16499 18387 C 16561 18325 16602 18242 16623 18149 C 16696 17900 16758 17641 16820 17393 C 16872 17217 16913 17041 16955 16875 C 17017 16606 17089 16347 17151 16088 C 17421 15042 17680 14006 17949 12960 C 17990 12784 18042 12618 18053 12452 C 18084 12121 18104 11779 18115 11448 C 18135 11199 18135 10951 18135 10702 Z M 12719 3048 C 12719 3038 12719 3027 12719 3017 C 12719 2924 12677 2841 12605 2758 C 12594 2748 12574 2727 12563 2717 C 11942 2106 11320 1484 10689 873 C 10657 842 10626 801 10595 769 C 10492 687 10378 656 10254 676 C 10181 697 10109 728 10057 780 C 9922 925 9777 1059 9642 1204 C 9632 1215 9622 1225 9611 1246 C 9901 1536 10202 1826 10502 2126 C 11051 2665 11600 3214 12159 3752 C 12180 3732 12201 3721 12211 3711 C 12284 3638 12356 3566 12429 3493 C 12491 3421 12563 3359 12625 3286 C 12687 3214 12719 3131 12719 3048 Z M 12636 4436 C 12636 4426 12636 4415 12636 4415 C 12636 4395 12636 4384 12625 4374 C 12605 4343 12584 4301 12553 4270 C 11393 3121 10222 1971 9062 832 C 9042 811 9031 790 9011 780 C 8969 759 8928 738 8886 749 C 8866 759 8835 769 8824 769 C 8814 769 8814 780 8804 780 C 8752 811 8710 863 8690 935 C 8669 977 8679 1028 8710 1070 C 8731 1091 8752 1111 8762 1122 C 9943 2271 11103 3421 12263 4571 C 12284 4581 12304 4602 12315 4612 C 12377 4653 12439 4653 12491 4633 L 12501 4622 C 12511 4622 12522 4612 12532 4602 C 12553 4581 12584 4560 12605 4529 C 12615 4508 12625 4477 12636 4457 C 12636 4457 12636 4446 12636 4436 Z M 12636 4436 "/>
<path style=" stroke:none;fill-rule:evenodd;fill:rgb(100%,100%,100%);fill-opacity:1;" d="M 8775 1115 C 9935 2275 11095 3425 12276 4564 C 12286 4585 12307 4606 12328 4616 C 12380 4657 12442 4657 12494 4637 C 12442 4657 12380 4657 12317 4616 C 12307 4606 12286 4585 12266 4575 C 11095 3425 9935 2275 8765 1115 C 8755 1105 8734 1084 8713 1063 C 8682 1022 8672 970 8692 929 C 8713 856 8755 805 8806 773 C 8755 805 8713 856 8692 918 C 8682 970 8692 1022 8724 1063 C 8734 1084 8755 1095 8775 1115 Z M 8775 1115 "/>
<path style=" stroke:none;fill-rule:evenodd;fill:rgb(100%,100%,100%);fill-opacity:1;" d="M 12632 4417 C 12632 4417 12632 4428 12632 4438 C 12632 4448 12632 4459 12632 4459 C 12621 4480 12611 4511 12601 4531 C 12580 4562 12549 4583 12518 4614 C 12507 4614 12507 4625 12497 4625 C 12487 4625 12487 4635 12487 4635 C 12435 4656 12373 4656 12321 4614 C 12300 4604 12279 4583 12269 4562 C 11088 3423 9928 2263 8768 1113 C 8748 1093 8727 1082 8717 1062 C 8686 1020 8675 968 8686 917 C 8706 855 8748 803 8799 772 C 8810 772 8810 761 8820 761 C 8831 761 8851 751 8862 751 C 8913 730 8955 751 8996 772 C 9007 792 9027 803 9048 823 C 10208 1973 11368 3123 12538 4272 C 12569 4303 12601 4345 12621 4386 C 12632 4386 12632 4397 12632 4417 Z M 12632 4417 "/>
<path style=" stroke:none;fill-rule:evenodd;fill:rgb(100%,100%,100%);fill-opacity:1;" d="M 10246 666 C 10370 645 10484 676 10587 759 C 10618 790 10650 831 10681 863 C 11323 1474 11944 2105 12566 2716 C 12576 2727 12597 2748 12607 2768 C 12680 2841 12721 2924 12721 3017 C 12721 3027 12721 3038 12721 3048 C 12721 3131 12690 3214 12628 3286 C 12555 3359 12493 3421 12431 3483 C 12358 3555 12286 3628 12213 3700 C 12203 3721 12182 3731 12162 3752 C 11602 3214 11043 2665 10494 2126 C 10194 1826 9893 1525 9603 1235 C 9614 1215 9624 1204 9635 1194 C 9769 1049 9914 914 10049 769 C 10101 718 10173 686 10246 666 Z M 10246 666 "/>
<path style=" stroke:none;fill-rule:evenodd;fill:rgb(100%,100%,100%);fill-opacity:1;" d="M 9603 1240 C 9904 1530 10204 1830 10505 2130 C 10204 1830 9904 1530 9603 1240 Z M 9603 1240 "/>
<path style=" stroke:none;fill-rule:evenodd;fill:rgb(100%,100%,100%);fill-opacity:1;" d="M 12421 3497 C 12348 3570 12276 3642 12203 3715 C 12193 3725 12172 3736 12151 3756 C 12172 3736 12193 3725 12203 3705 C 12276 3632 12348 3560 12421 3497 C 12483 3425 12555 3363 12628 3280 C 12690 3207 12721 3125 12721 3042 C 12721 3125 12690 3207 12628 3280 C 12566 3363 12483 3425 12421 3497 Z M 12421 3497 "/>
<path style=" stroke:none;fill-rule:evenodd;fill:rgb(0%,0%,0%);fill-opacity:1;" d="M 12265 3767 C 12390 3632 12524 3497 12659 3373 C 12742 3280 12783 3197 12804 3104 C 12783 3197 12742 3290 12659 3373 C 12524 3508 12390 3642 12265 3777 C 12245 3787 12234 3808 12213 3818 C 12234 3798 12245 3777 12265 3767 Z M 12265 3767 "/>
<path style=" stroke:none;fill-rule:evenodd;fill:rgb(100%,100%,100%);fill-opacity:1;" d="M 12959 4896 C 13115 5010 13291 5061 13487 5072 C 13550 5072 13612 5072 13684 5072 C 13705 5072 13726 5072 13757 5072 C 13757 5103 13757 5123 13757 5144 C 13746 5155 13746 5155 13736 5155 C 13570 5165 13405 5165 13249 5113 C 13094 5082 12970 5020 12866 4916 C 12773 4844 12700 4761 12617 4678 C 12607 4678 12607 4668 12597 4657 C 12597 4647 12607 4647 12617 4637 C 12617 4637 12617 4626 12628 4626 C 12628 4616 12638 4616 12638 4606 C 12669 4626 12690 4647 12711 4657 C 12793 4740 12866 4823 12959 4896 Z M 12959 4896 "/>
<path style=" stroke:none;fill-rule:evenodd;fill:rgb(100%,100%,100%);fill-opacity:1;" d="M 12617 4637 C 12617 4637 12617 4626 12628 4626 C 12617 4626 12617 4637 12617 4637 Z M 12617 4637 "/>
<path style=" stroke:none;fill-rule:evenodd;fill:rgb(0%,0%,0%);fill-opacity:1;" d="M 6714 5217 C 6714 5289 6735 5331 6776 5372 C 6735 5331 6714 5279 6714 5217 Z M 6714 5217 "/>
<path style=" stroke:none;fill-rule:evenodd;fill:rgb(100%,100%,100%);fill-opacity:1;" d="M 11281 4968 C 11281 5061 11281 5165 11281 5258 C 11271 5300 11261 5320 11230 5331 C 11219 5331 11219 5341 11209 5341 C 11178 5341 11147 5341 11126 5341 C 10432 5341 9738 5341 9034 5341 C 8340 5341 7656 5341 6962 5341 C 6942 5341 6911 5341 6890 5341 C 6838 5331 6807 5310 6807 5248 C 6807 5165 6807 5061 6807 4978 C 6807 4916 6838 4896 6890 4885 C 6921 4885 6942 4885 6962 4885 C 8350 4885 9748 4885 11126 4885 C 11157 4885 11178 4885 11209 4885 L 11209 4896 C 11250 4896 11271 4927 11281 4968 Z M 11281 4968 "/>
<path style=" stroke:none;fill-rule:evenodd;fill:rgb(100%,100%,100%);fill-opacity:1;" d="M 11198 4896 C 11240 4896 11281 4937 11281 4978 C 11271 4937 11240 4896 11198 4896 Z M 11198 4896 "/>
<path style=" stroke:none;fill-rule:evenodd;fill:rgb(100%,100%,100%);fill-opacity:1;" d="M 13684 5082 C 13705 5082 13726 5082 13757 5082 C 13757 5103 13757 5123 13757 5144 C 13757 5134 13757 5113 13757 5082 C 13726 5082 13705 5082 13684 5082 C 13612 5082 13550 5082 13487 5082 C 13280 5072 13104 5020 12959 4906 C 12866 4833 12793 4751 12711 4657 C 12690 4647 12669 4626 12648 4606 C 12669 4626 12690 4647 12711 4657 C 12793 4751 12866 4833 12959 4906 C 13115 5020 13280 5072 13487 5082 C 13550 5082 13622 5082 13684 5082 Z M 13684 5082 "/>
<path style=" stroke:none;fill-rule:evenodd;fill:rgb(100%,100%,100%);fill-opacity:1;" d="M 14005 5372 C 15403 5372 16791 5372 18179 5372 C 18200 5372 18210 5372 18231 5372 C 18272 5362 18293 5362 18314 5341 C 18293 5362 18272 5372 18231 5372 C 18210 5372 18190 5372 18179 5372 C 16791 5372 15403 5372 14005 5372 C 13974 5372 13943 5372 13922 5362 C 13871 5362 13850 5331 13840 5279 C 13840 5175 13840 5082 13840 4999 C 13840 4978 13850 4968 13850 4958 C 13850 4968 13850 4978 13850 4999 C 13840 5082 13840 5175 13850 5279 C 13850 5331 13871 5351 13922 5362 C 13953 5372 13985 5372 14005 5372 Z M 14005 5372 "/>
<path style=" stroke:none;fill-rule:evenodd;fill:rgb(100%,100%,100%);fill-opacity:1;" d="M 18353 5051 C 18353 5123 18353 5196 18353 5258 C 18342 5300 18342 5320 18322 5341 C 18301 5362 18280 5362 18239 5372 C 18218 5372 18208 5372 18187 5372 C 16799 5372 15411 5372 14013 5372 C 13992 5372 13961 5372 13930 5362 C 13878 5351 13858 5331 13858 5279 C 13847 5186 13847 5082 13858 4999 C 13858 4978 13858 4968 13858 4958 C 13858 4947 13858 4947 13868 4947 C 13878 4927 13899 4916 13930 4906 C 13961 4906 13982 4906 14003 4906 C 14707 4906 15411 4906 16105 4906 C 16799 4906 17503 4906 18197 4906 C 18322 4906 18353 4927 18353 5051 Z M 18353 5051 "/>
<path style=" stroke:none;fill-rule:evenodd;fill:rgb(0%,0%,0%);fill-opacity:1;" d="M 7677 15160 C 7926 16133 8185 17107 8433 18070 C 8464 18173 8506 18267 8568 18339 C 8506 18267 8454 18173 8433 18070 C 8185 17096 7926 16133 7677 15160 C 7460 14310 7242 13461 7035 12622 C 7004 12518 6993 12415 6983 12311 C 6931 11752 6921 11182 6921 10623 C 6921 8925 6921 7226 6921 5527 C 6921 5496 6921 5465 6921 5424 C 6921 5465 6921 5496 6921 5527 C 6921 7226 6921 8925 6921 10623 C 6921 11182 6942 11752 6993 12311 C 7004 12415 7014 12518 7035 12622 C 7252 13471 7470 14321 7677 15160 Z M 7677 15160 "/>
<path style=" stroke:none;fill-rule:evenodd;fill:rgb(0%,0%,0%);fill-opacity:1;" d="M 8741 1198 C 9653 2110 10564 3011 11476 3912 C 11724 4150 11973 4398 12211 4637 C 12284 4709 12366 4740 12460 4720 C 12511 4709 12532 4720 12563 4751 C 12646 4823 12719 4906 12791 4968 C 12957 5113 13143 5206 13361 5227 C 13475 5237 13578 5237 13692 5237 C 13713 5237 13734 5248 13765 5248 C 13765 5351 13806 5413 13879 5434 C 13806 5413 13765 5351 13765 5248 C 13734 5248 13713 5248 13692 5248 C 13578 5248 13464 5248 13361 5237 C 13143 5217 12957 5123 12791 4978 C 12719 4906 12636 4833 12563 4761 C 12532 4730 12501 4720 12460 4730 C 12366 4740 12284 4709 12211 4647 C 11973 4398 11724 4160 11476 3922 C 10564 3021 9653 2120 8731 1198 C 8710 1177 8690 1157 8659 1126 C 8607 1063 8586 981 8607 898 C 8586 981 8607 1053 8669 1115 C 8690 1146 8710 1167 8741 1198 Z M 8741 1198 "/>
<path style=" stroke:none;fill-rule:evenodd;fill:rgb(0%,0%,0%);fill-opacity:1;" d="M 14078 12695 C 14047 12560 14036 12425 14016 12291 C 13995 12021 13985 11752 13974 11483 C 13964 11286 13953 11079 13953 10882 C 13953 9111 13953 7330 13953 5548 C 13953 5507 13953 5486 13953 5445 C 13953 5486 13953 5507 13953 5538 C 13953 7319 13953 9101 13953 10882 C 13953 11079 13964 11276 13974 11472 C 13985 11742 14005 12011 14026 12280 C 14036 12415 14047 12560 14078 12684 C 14181 13109 14285 13513 14388 13917 C 14627 14838 14865 15760 15103 16682 C 15227 17169 15352 17666 15476 18163 C 15569 18515 15932 18722 16273 18609 C 16512 18536 16646 18381 16708 18142 L 16708 18153 C 16646 18391 16512 18546 16273 18619 C 15921 18722 15569 18526 15476 18163 C 15352 17676 15227 17179 15103 16682 C 14865 15771 14616 14849 14388 13927 C 14285 13523 14181 13109 14078 12695 Z M 14078 12695 "/>
<path style=" stroke:none;fill-rule:evenodd;fill:rgb(100%,100%,100%);fill-opacity:1;" d="M 14047 10261 C 14047 10882 14047 11493 14088 12104 C 14109 12301 14119 12498 14161 12684 C 14378 13523 14585 14362 14813 15201 C 15062 16175 15310 17148 15559 18122 C 15642 18432 15901 18598 16211 18536 C 16315 18515 16398 18474 16470 18412 C 16398 18474 16315 18515 16211 18536 C 15901 18598 15642 18432 15559 18132 C 15310 17148 15062 16175 14813 15201 C 14585 14362 14378 13523 14161 12684 C 14119 12498 14098 12301 14088 12104 C 14047 11493 14036 10882 14047 10261 C 14047 8686 14036 7112 14036 5538 C 14036 5527 14047 5507 14047 5496 C 14047 5507 14047 5527 14047 5538 C 14047 7112 14047 8686 14047 10261 Z M 14047 10261 "/>
<path style=" stroke:none;fill-rule:evenodd;fill:rgb(100%,100%,100%);fill-opacity:1;" d="M 18138 6801 C 18138 8096 18138 9401 18138 10696 C 18138 10944 18138 11193 18117 11452 C 18107 11783 18086 12115 18055 12446 C 18045 12632 17993 12798 17951 12964 C 17692 14010 17423 15056 17154 16102 C 17092 16351 17030 16610 16967 16868 C 16916 17034 16874 17210 16833 17386 C 16760 17635 16698 17894 16626 18153 C 16605 18236 16553 18318 16501 18381 C 16481 18391 16470 18401 16460 18412 C 16387 18474 16305 18515 16211 18536 C 15901 18598 15631 18432 15559 18122 C 15300 17148 15051 16175 14803 15201 C 14596 14362 14378 13523 14171 12684 C 14119 12487 14109 12301 14098 12104 C 14047 11493 14047 10882 14047 10261 C 14047 8686 14047 7112 14047 5538 C 14047 5527 14047 5507 14047 5496 C 14047 5486 14047 5486 14047 5476 C 14047 5465 14057 5455 14057 5455 C 15414 5455 16771 5455 18127 5455 C 18138 5496 18138 5538 18138 5569 C 18138 5983 18138 6387 18138 6801 Z M 17879 11773 C 17879 11752 17879 11742 17868 11731 C 17868 11721 17848 11711 17827 11700 C 17796 11700 17755 11690 17723 11690 C 17392 11700 17050 11700 16719 11700 C 16160 11711 15621 11711 15072 11711 C 14979 11711 14875 11711 14772 11711 C 14637 11700 14513 11700 14378 11711 C 14316 11711 14295 11721 14306 11783 C 14306 11887 14316 11980 14326 12083 C 14347 12260 14368 12425 14409 12612 C 14440 12798 14502 12974 14544 13161 C 14834 14258 15113 15356 15393 16454 C 15517 16962 15642 17469 15766 17966 C 15766 17987 15776 18018 15787 18039 L 15787 18049 C 15807 18101 15849 18153 15890 18194 C 16004 18318 16294 18329 16398 18122 C 16418 18080 16439 18028 16460 17977 C 16501 17811 16543 17635 16595 17469 C 16988 15936 17382 14403 17775 12871 C 17806 12705 17848 12539 17858 12363 C 17858 12291 17858 12218 17868 12125 C 17868 12094 17868 12052 17868 12011 C 17868 11990 17868 11980 17868 11959 C 17879 11907 17879 11835 17879 11773 Z M 17879 11773 "/>
<path style=" stroke:none;fill-rule:evenodd;fill:rgb(0%,0%,0%);fill-opacity:1;" d="M 18262 5445 C 18345 5434 18386 5393 18407 5320 C 18397 5393 18345 5434 18262 5455 C 18252 5455 18231 5455 18210 5465 C 18210 5455 18210 5455 18210 5455 C 18231 5445 18252 5445 18262 5445 Z M 18262 5445 "/>
<path style="fill:none;stroke-width:3;stroke-linecap:butt;stroke-linejoin:miter;stroke:rgb(0%,0%,0%);stroke-opacity:1;stroke-miterlimit:4;" d="M 10246 8127 L 11074 8127 "/>
<path style="fill:none;stroke-width:3;stroke-linecap:butt;stroke-linejoin:miter;stroke:rgb(0%,0%,0%);stroke-opacity:1;stroke-miterlimit:4;" d="M 17361 8148 L 18190 8148 "/>
<path style="fill:none;stroke-width:3;stroke-linecap:butt;stroke-linejoin:miter;stroke:rgb(0%,0%,0%);stroke-opacity:1;stroke-miterlimit:4;" d="M 10246 9556 L 11074 9556 "/>
<path style="fill:none;stroke-width:3;stroke-linecap:butt;stroke-linejoin:miter;stroke:rgb(0%,0%,0%);stroke-opacity:1;stroke-miterlimit:4;" d="M 17361 9577 L 18190 9577 "/>
<path style=" stroke:none;fill-rule:evenodd;fill:rgb(0%,0%,0%);fill-opacity:1;" d="M 10774 11711 C 10826 11721 10836 11731 10836 11773 C 10826 11866 10826 11949 10826 12011 C 10815 12146 10805 12260 10805 12363 C 10795 12539 10763 12695 10722 12860 C 10328 14393 9925 15926 9531 17469 C 9490 17645 9448 17811 9407 17977 C 9386 18028 9365 18080 9345 18122 C 9251 18329 8951 18318 8837 18205 C 8775 18132 8733 18060 8713 17977 C 8588 17469 8464 16962 8340 16465 C 8060 15356 7781 14248 7501 13150 C 7449 12974 7397 12788 7356 12601 C 7315 12436 7304 12260 7283 12083 C 7273 11990 7263 11887 7252 11793 C 7252 11721 7263 11711 7325 11711 C 7460 11711 7594 11711 7718 11711 C 7822 11711 7926 11721 8029 11721 C 8568 11721 9106 11711 9655 11711 C 9997 11711 10339 11700 10681 11700 C 10712 11700 10743 11700 10774 11711 Z M 10743 11856 C 10743 11835 10732 11825 10732 11804 C 10701 11804 10681 11793 10660 11793 C 10587 11793 10515 11793 10442 11793 C 9614 11793 8796 11783 7967 11783 C 7801 11783 7636 11793 7470 11793 C 7439 11804 7397 11804 7346 11804 C 7346 11814 7346 11814 7346 11825 C 7346 11835 7346 11845 7346 11866 C 7356 11970 7366 12063 7377 12166 C 7397 12363 7428 12560 7480 12757 C 7532 12922 7584 13098 7625 13275 C 7957 14600 8298 15926 8630 17262 C 8692 17490 8744 17707 8796 17935 C 8816 18008 8847 18070 8889 18122 C 8889 18122 8899 18122 8899 18132 C 8982 18215 9200 18236 9272 18070 C 9293 18028 9303 17987 9313 17946 C 9510 17179 9707 16423 9904 15646 C 10152 14662 10411 13678 10670 12695 C 10681 12632 10691 12570 10701 12498 C 10712 12291 10722 12063 10743 11856 Z M 10743 11856 "/>
<path style=" stroke:none;fill-rule:evenodd;fill:rgb(73.333335%,94.509804%,100%);fill-opacity:1;" d="M 7346 11808 C 7397 11808 7439 11808 7480 11808 C 7646 11798 7812 11787 7977 11798 C 8796 11798 9624 11798 10453 11808 C 10525 11808 10587 11808 10670 11808 C 10681 11808 10701 11808 10732 11808 C 10732 11829 10732 11839 10732 11850 C 10722 12067 10712 12285 10691 12502 C 10691 12564 10681 12626 10660 12688 C 10411 13683 10163 14677 9904 15661 C 9707 16417 9521 17183 9324 17950 C 9313 17991 9293 18033 9272 18074 C 9200 18230 8982 18219 8899 18136 C 8899 18136 8899 18126 8889 18126 C 8847 18074 8816 18012 8806 17950 C 8744 17722 8692 17494 8630 17266 C 8298 15941 7967 14615 7625 13279 C 7584 13103 7532 12937 7491 12761 C 7428 12575 7408 12378 7387 12181 C 7377 12077 7366 11974 7356 11870 C 7346 11860 7346 11839 7346 11829 C 7346 11818 7346 11818 7346 11808 Z M 7346 11808 "/>
<path style=" stroke:none;fill-rule:evenodd;fill:rgb(89.803922%,89.803922%,89.803922%);fill-opacity:1;" d="M 9904 15657 C 10163 14673 10411 13678 10660 12684 C 10681 12622 10691 12560 10691 12498 C 10712 12280 10722 12063 10732 11845 C 10732 11835 10732 11825 10732 11804 C 10732 11825 10743 11835 10743 11856 C 10722 12063 10712 12291 10701 12498 C 10691 12570 10681 12632 10670 12695 C 10411 13678 10163 14673 9914 15657 C 9717 16423 9510 17179 9313 17946 C 9303 17987 9293 18028 9272 18070 C 9200 18236 8982 18215 8899 18132 C 8982 18215 9200 18225 9272 18070 C 9282 18028 9303 17987 9313 17946 C 9510 17179 9707 16413 9904 15657 Z M 9904 15657 "/>
<path style=" stroke:none;fill-rule:evenodd;fill:rgb(0%,0%,0%);fill-opacity:1;" d="M 14378 11711 C 14513 11711 14647 11711 14772 11711 C 14875 11711 14979 11721 15072 11721 C 15621 11721 16160 11711 16708 11711 C 17040 11711 17392 11700 17734 11700 C 17765 11700 17796 11700 17827 11711 C 17848 11711 17868 11721 17868 11731 C 17879 11742 17879 11752 17879 11773 C 17879 11835 17879 11907 17868 11959 C 17868 11980 17868 12001 17868 12011 C 17868 12052 17868 12094 17868 12135 C 17858 12218 17858 12291 17848 12363 C 17848 12529 17806 12695 17765 12860 C 17371 14393 16978 15926 16584 17469 C 16543 17635 16501 17811 16450 17977 C 16439 18028 16418 18070 16398 18122 C 16294 18329 16004 18318 15890 18194 C 15849 18153 15818 18101 15787 18049 C 15787 18039 15787 18039 15787 18039 C 15776 18018 15776 17997 15766 17977 C 15642 17469 15517 16962 15393 16465 C 15113 15356 14834 14248 14554 13150 C 14502 12974 14440 12788 14409 12601 C 14368 12436 14357 12260 14337 12083 C 14316 11990 14316 11887 14306 11793 C 14306 11721 14316 11711 14378 11711 Z M 17786 11845 C 17786 11835 17786 11825 17786 11804 C 17775 11804 17775 11804 17775 11804 C 17755 11793 17734 11793 17713 11793 C 17641 11793 17568 11793 17496 11793 C 16667 11793 15838 11783 15020 11783 C 14855 11783 14689 11793 14523 11793 C 14502 11793 14492 11793 14482 11793 C 14451 11793 14430 11793 14399 11793 C 14399 11825 14399 11845 14399 11856 C 14409 11959 14420 12063 14430 12166 C 14451 12363 14482 12560 14533 12757 C 14585 12922 14627 13098 14668 13275 C 15010 14600 15341 15926 15683 17262 C 15735 17480 15797 17707 15849 17935 C 15859 18008 15890 18060 15942 18122 L 15952 18132 C 16035 18215 16253 18236 16315 18070 C 16336 18028 16356 17987 16367 17946 C 16563 17179 16750 16423 16947 15646 C 17195 14662 17465 13678 17713 12695 C 17734 12632 17744 12570 17744 12498 C 17765 12280 17775 12063 17786 11845 Z M 17786 11845 "/>
<path style=" stroke:none;fill-rule:evenodd;fill:rgb(0%,0%,0%);fill-opacity:1;" d="M 17868 11773 C 17868 11835 17868 11907 17858 11959 C 17868 11907 17868 11835 17868 11773 C 17868 11752 17868 11742 17858 11731 C 17868 11742 17868 11752 17868 11773 Z M 17868 11773 "/>
<path style=" stroke:none;fill-rule:evenodd;fill:rgb(73.333335%,94.509804%,100%);fill-opacity:1;" d="M 17786 11845 C 17775 12063 17755 12280 17744 12498 C 17744 12560 17723 12622 17713 12684 C 17454 13668 17206 14673 16957 15657 C 16760 16413 16563 17179 16377 17935 C 16367 17987 16346 18028 16325 18070 C 16253 18225 16046 18215 15952 18132 C 15942 18122 15942 18122 15942 18122 C 15890 18070 15870 18008 15849 17935 C 15797 17718 15735 17490 15683 17262 C 15352 15936 15010 14611 14678 13275 C 14627 13098 14585 12933 14533 12757 C 14482 12570 14451 12373 14430 12177 C 14420 12073 14409 11970 14399 11866 C 14399 11845 14399 11825 14399 11793 C 14430 11793 14451 11793 14482 11793 C 14492 11793 14513 11793 14523 11793 C 14689 11793 14855 11783 15020 11783 C 15849 11793 16677 11793 17496 11793 C 17568 11793 17641 11793 17713 11804 C 17734 11804 17755 11804 17775 11804 C 17775 11814 17786 11835 17786 11845 Z M 17786 11845 "/>
<path style=" stroke:none;fill-rule:evenodd;fill:rgb(0%,0%,0%);fill-opacity:1;" d="M 17868 12135 C 17858 12218 17858 12291 17858 12363 C 17848 12539 17796 12695 17765 12860 C 17371 14393 16978 15926 16584 17459 C 16543 17635 16501 17801 16460 17966 C 16439 18018 16418 18070 16398 18111 C 16294 18329 16004 18318 15890 18205 C 15849 18142 15807 18091 15787 18039 C 15818 18091 15849 18142 15890 18184 C 16004 18318 16294 18329 16398 18111 C 16418 18060 16439 18018 16450 17966 C 16501 17801 16543 17625 16584 17459 C 16978 15926 17361 14393 17755 12860 C 17796 12695 17848 12529 17848 12363 C 17858 12291 17858 12218 17868 12135 Z M 17868 12135 "/>
<path style=" stroke:none;fill-rule:evenodd;fill:rgb(89.803922%,89.803922%,89.803922%);fill-opacity:1;" d="M 17744 12498 C 17755 12280 17775 12063 17786 11845 C 17786 11835 17775 11814 17775 11804 L 17786 11804 C 17786 11825 17786 11835 17786 11845 C 17775 12063 17765 12280 17744 12498 C 17744 12570 17734 12632 17713 12695 C 17465 13678 17206 14673 16957 15657 C 16750 16423 16563 17179 16367 17946 C 16356 17987 16336 18028 16315 18070 C 16253 18236 16035 18215 15952 18132 C 16035 18215 16242 18225 16315 18070 C 16336 18028 16356 17987 16367 17935 C 16553 17179 16750 16413 16957 15657 C 17206 14673 17454 13668 17713 12684 C 17723 12622 17744 12560 17744 12498 Z M 17744 12498 "/>
</g>
</svg>
