<?xml version="1.0" encoding="UTF-8"?>
<svg xmlns="http://www.w3.org/2000/svg" xmlns:xlink="http://www.w3.org/1999/xlink" width="1024pt" height="1024pt" viewBox="0 0 1024 1024" version="1.1">
<g id="surface21068">
<path style=" stroke:none;fill-rule:nonzero;fill:rgb(17.254902%,17.254902%,17.254902%);fill-opacity:1;" d="M 928 938.667969 L 96 938.667969 C 66.558594 938.632812 42.699219 914.773438 42.667969 885.332031 L 42.667969 181.332031 C 42.699219 151.890625 66.558594 128.03125 96 128 L 928 128 C 957.441406 128.03125 981.300781 151.890625 981.332031 181.332031 L 981.332031 885.332031 C 981.300781 914.773438 957.441406 938.632812 928 938.667969 Z M 682.667969 896 L 928 896 C 933.890625 896 938.667969 891.222656 938.667969 885.332031 L 938.667969 682.667969 L 682.667969 682.667969 Z M 384 896 L 640 896 L 640 682.667969 L 384 682.667969 Z M 85.332031 682.667969 L 85.332031 885.332031 C 85.332031 891.222656 90.109375 896 96 896 L 341.332031 896 L 341.332031 682.667969 Z M 682.667969 640 L 938.667969 640 L 938.667969 426.667969 L 682.667969 426.667969 Z M 384 640 L 640 640 L 640 426.667969 L 384 426.667969 Z M 85.332031 640 L 341.332031 640 L 341.332031 426.667969 L 85.332031 426.667969 Z M 938.667969 384 L 938.667969 181.332031 C 938.667969 175.441406 933.890625 170.667969 928 170.667969 L 96 170.667969 C 90.109375 170.667969 85.332031 175.441406 85.332031 181.332031 L 85.332031 384 Z M 938.667969 384 "/>
</g>
</svg>
