<?xml version="1.0" encoding="UTF-8"?>
<svg xmlns="http://www.w3.org/2000/svg" xmlns:xlink="http://www.w3.org/1999/xlink" width="1080pt" height="1024pt" viewBox="0 0 1080 1024" version="1.1">
<g id="surface24453">
<path style=" stroke:none;fill-rule:nonzero;fill:rgb(31.764707%,31.764707%,31.764707%);fill-opacity:1;" d="M 766.339844 1024 L 317.644531 1024 C 266.632812 1024.160156 223.015625 987.347656 214.605469 937.039062 L 104.988281 288.960938 C 102.09375 276.445312 106.375 263.359375 116.101562 254.972656 C 125.828125 246.585938 139.402344 244.277344 151.355469 248.980469 C 163.308594 253.683594 171.667969 264.621094 173.070312 277.390625 L 282.6875 925.464844 C 285.550781 942.523438 300.347656 955 317.644531 954.941406 L 766.339844 954.941406 C 783.578125 955.070312 798.375 942.699219 801.296875 925.710938 L 912.128906 277.632812 C 913.53125 264.867188 921.894531 253.925781 933.847656 249.222656 C 945.800781 244.519531 959.375 246.828125 969.101562 255.214844 C 978.828125 263.601562 983.105469 276.691406 980.214844 289.203125 L 869.378906 937.402344 C 860.761719 987.542969 817.214844 1024.140625 766.339844 1024 Z M 1043.546875 183.851562 L 34.46875 183.851562 C 16.195312 182.765625 1.929688 167.628906 1.929688 149.320312 C 1.929688 131.015625 16.195312 115.878906 34.46875 114.792969 L 1043.546875 114.792969 C 1056.371094 114.03125 1068.5625 120.441406 1075.207031 131.4375 C 1081.851562 142.433594 1081.851562 156.207031 1075.207031 167.207031 C 1068.5625 178.203125 1056.371094 184.613281 1043.546875 183.851562 Z M 688.511719 69.121094 L 386.945312 69.121094 C 374.121094 69.882812 361.929688 63.472656 355.285156 52.472656 C 348.644531 41.476562 348.644531 27.703125 355.285156 16.707031 C 361.929688 5.707031 374.121094 -0.699219 386.945312 0.0625 L 688.511719 0.0625 C 701.335938 -0.699219 713.527344 5.707031 720.171875 16.707031 C 726.816406 27.703125 726.816406 41.476562 720.171875 52.472656 C 713.527344 63.472656 701.335938 69.882812 688.511719 69.121094 Z M 688.511719 69.121094 "/>
</g>
</svg>
